<?xml version="1.0" encoding="utf-8"?>
<!-- Generator: Adobe Illustrator 21.0.0, SVG Export Plug-In . SVG Version: 6.00 Build 0)  -->
<svg version="1.1" id="f20e0c25-d928-42cc-98d1-13cc230663ea"
	 xmlns="http://www.w3.org/2000/svg" xmlns:xlink="http://www.w3.org/1999/xlink" x="0px" y="0px" viewBox="0 0 1009.5 780.8"
	 style="enable-background:new 0 0 1009.5 780.8;" xml:space="preserve">
<style type="text/css">
	.st0{opacity:0.1;fill:#E8004C;enable-background:new    ;}
	.st1{fill:#E0E0E0;}
	.st2{opacity:0.5;}
	.st3{fill:url(#SVGID_1_);}
	.st4{fill:#FAFAFA;}
	.st5{fill:url(#SVGID_2_);}
	.st6{fill:url(#SVGID_3_);}
	.st7{fill:#E8004C;}
	.st8{fill:url(#SVGID_4_);}
	.st9{fill:#FFFFFF;}
	.st10{fill:url(#SVGID_5_);}
	.st11{fill:url(#SVGID_6_);}
	.st12{fill:#47E6B1;}
	.st13{opacity:0.5;fill:#4D8AF0;enable-background:new    ;}
	.st14{opacity:0.5;fill:#FDD835;enable-background:new    ;}
	.st15{opacity:0.5;fill:#F55F44;enable-background:new    ;}
	.st16{opacity:0.5;fill:#47E6B1;enable-background:new    ;}
</style>
<path class="st0" d="M586.6,183.9c-64.7-2.2-126.4-23.1-185.2-46S284.2,89.8,221,77.7c-40.6-7.8-87.1-8.9-119.8,12.9
	c-31.5,21-41.7,57.2-47.2,90.7c-4.1,25.3-6.5,51.9,4.7,75.5c7.8,16.4,21.7,30.2,31.4,46c33.5,54.7,9.8,122.2-26.5,175.6
	c-17,25.1-36.8,49-49.9,75.6c-13.1,26.6-19.2,57.3-7.7,84.5c11.4,27,38.5,47.2,67.9,61.5c59.7,29,130,37.2,198.6,41.9
	c151.8,10.4,304.5,5.9,456.7,1.4c56.3-1.7,112.9-3.3,168.3-12.1c30.8-4.8,62.6-12.5,84.9-31.1c28.4-23.5,35.4-63.4,16.4-92.9
	c-31.9-49.5-120-61.8-142.3-114.9c-12.3-29.2,0.3-61.8,18.2-88.9c38.2-58.2,102.3-109.2,105.7-175.7c2.3-45.7-28.5-91.4-76.1-113
	c-49.9-22.7-119.2-19.8-156,17.7C710.4,171.1,643.7,185.9,586.6,183.9z"/>
<title>no data</title>
<rect x="222.3" y="82.9" transform="matrix(0.9777 -0.2098 0.2098 0.9777 -70.9261 101.0384)" class="st1" width="437" height="603.8"/>
<g class="st2">
	
		<linearGradient id="SVGID_1_" gradientUnits="userSpaceOnUse" x1="722.4841" y1="120.4843" x2="722.4841" y2="703.8943" gradientTransform="matrix(0.9777 -0.2098 -0.2098 -0.9777 -179.1308 939.4301)">
		<stop  offset="0" style="stop-color:#808080;stop-opacity:0.25"/>
		<stop  offset="0.54" style="stop-color:#808080;stop-opacity:0.12"/>
		<stop  offset="1" style="stop-color:#808080;stop-opacity:0.1"/>
	</linearGradient>
	<polygon class="st3" points="173.2,143.9 586,55.3 708.4,625.8 295.6,714.3 	"/>
</g>
<rect x="234.6" y="97.5" transform="matrix(0.9777 -0.2098 0.2098 0.9777 -70.4958 100.8972)" class="st4" width="411.5" height="570.5"/>
<linearGradient id="SVGID_2_" gradientUnits="userSpaceOnUse" x1="723.019" y1="674.8843" x2="723.019" y2="724.3343" gradientTransform="matrix(0.9777 -0.2098 -0.2098 -0.9777 -179.1314 939.4307)">
	<stop  offset="0" style="stop-color:#808080;stop-opacity:0.25"/>
	<stop  offset="0.54" style="stop-color:#808080;stop-opacity:0.12"/>
	<stop  offset="1" style="stop-color:#808080;stop-opacity:0.1"/>
</linearGradient>
<polygon class="st5" points="276,100.9 475.6,58.1 486,106.5 286.4,149.3 "/>
<linearGradient id="SVGID_3_" gradientUnits="userSpaceOnUse" x1="722.9976" y1="714.2048" x2="722.9976" y2="772.6292" gradientTransform="matrix(0.9777 -0.2098 -0.2098 -0.9777 -179.1307 939.4256)">
	<stop  offset="0" style="stop-color:#808080;stop-opacity:0.25"/>
	<stop  offset="0.54" style="stop-color:#808080;stop-opacity:0.12"/>
	<stop  offset="1" style="stop-color:#808080;stop-opacity:0.1"/>
</linearGradient>
<path class="st6" d="M365.7,32.3c-15.4,3.3-25.2,18.8-21.8,34.5s18.6,25.9,34,22.6s25.2-18.8,21.8-34.6S381.1,29,365.7,32.3z
	 M375.4,77.4c-9.1,2.2-18.2-3.4-20.3-12.5s3.4-18.2,12.5-20.3c9.1-2.2,18.2,3.4,20.3,12.5c0,0.1,0,0.2,0.1,0.3
	C390,66.4,384.4,75.3,375.4,77.4C375.4,77.4,375.4,77.4,375.4,77.4z"/>
<rect x="280.4" y="76.9" transform="matrix(0.9777 -0.2098 0.2098 0.9777 -12.6341 82.0321)" class="st7" width="199.8" height="47.3"/>
<path class="st7" d="M365.7,32.3c-15.1,3.2-24.7,18.1-21.4,33.2s18.1,24.7,33.2,21.4c15.1-3.2,24.7-18.1,21.4-33.2
	C395.6,38.7,380.8,29.1,365.7,32.3C365.7,32.3,365.7,32.3,365.7,32.3z M374.9,75.4c-8.7,1.9-17.3-3.7-19.1-12.4
	c-1.9-8.7,3.7-17.3,12.4-19.1c8.7-1.9,17.3,3.7,19.1,12.4c0,0,0,0,0,0C389.2,65,383.6,73.5,374.9,75.4z"/>
<rect x="352.6" y="116.9" class="st1" width="437" height="603.8"/>
<g class="st2">
	
		<linearGradient id="SVGID_4_" gradientUnits="userSpaceOnUse" x1="571.0969" y1="69.47" x2="571.0969" y2="652.88" gradientTransform="matrix(1 0 0 -1 0 780)">
		<stop  offset="0" style="stop-color:#808080;stop-opacity:0.25"/>
		<stop  offset="0.54" style="stop-color:#808080;stop-opacity:0.12"/>
		<stop  offset="1" style="stop-color:#808080;stop-opacity:0.1"/>
	</linearGradient>
	<rect x="360" y="127.1" class="st8" width="422.3" height="583.4"/>
</g>
<rect x="365.3" y="131.4" class="st9" width="411.5" height="570.5"/>
<linearGradient id="SVGID_5_" gradientUnits="userSpaceOnUse" x1="571.6319" y1="623.87" x2="571.6319" y2="673.32" gradientTransform="matrix(1 0 0 -1 0 780)">
	<stop  offset="0" style="stop-color:#808080;stop-opacity:0.25"/>
	<stop  offset="0.54" style="stop-color:#808080;stop-opacity:0.12"/>
	<stop  offset="1" style="stop-color:#808080;stop-opacity:0.1"/>
</linearGradient>
<rect x="469.6" y="106.7" class="st10" width="204.1" height="49.5"/>
<linearGradient id="SVGID_6_" gradientUnits="userSpaceOnUse" x1="761.5519" y1="603.56" x2="761.5519" y2="662" gradientTransform="matrix(1 0 0 -1 -189.92 720.41)">
	<stop  offset="0" style="stop-color:#808080;stop-opacity:0.25"/>
	<stop  offset="0.54" style="stop-color:#808080;stop-opacity:0.12"/>
	<stop  offset="1" style="stop-color:#808080;stop-opacity:0.1"/>
</linearGradient>
<path class="st11" d="M571.6,58.4c-15.8,0-28.5,13.1-28.5,29.2s12.8,29.2,28.5,29.2s28.5-13.1,28.5-29.2S587.4,58.4,571.6,58.4z
	 M571.6,104.5c-9.3,0.2-17-7.1-17.3-16.5c-0.2-9.3,7.1-17,16.5-17.3s17,7.1,17.3,16.5c0,0.1,0,0.3,0,0.4
	C588.2,96.8,580.8,104.3,571.6,104.5L571.6,104.5z"/>
<rect x="471.7" y="104.6" class="st7" width="199.8" height="47.3"/>
<path class="st7" d="M571.6,58.4c-15.4,0-27.9,12.5-27.9,27.9s12.5,27.9,27.9,27.9s27.9-12.5,27.9-27.9l0,0
	C599.6,70.9,587.1,58.4,571.6,58.4z M571.6,102.5c-8.9,0-16.1-7.2-16.1-16.1c0-8.9,7.2-16.1,16.1-16.1c8.9,0,16.1,7.2,16.1,16.1
	C587.8,95.2,580.5,102.4,571.6,102.5C571.6,102.4,571.6,102.4,571.6,102.5L571.6,102.5z"/>
<g class="st2">
	<rect x="110" y="737" class="st12" width="3.8" height="21.3"/>
	<rect x="101.2" y="745.8" class="st12" width="21.3" height="3.8"/>
</g>
<g class="st2">
	<rect x="546.2" class="st12" width="3.8" height="21.3"/>
	<rect x="537.4" y="8.8" class="st12" width="21.3" height="3.8"/>
</g>
<path class="st13" d="M865.8,772.6c-2.1-0.9-3.3-3.3-2.6-5.6c0.1-0.2,0.1-0.3,0.1-0.5l0,0c0.1-1.3-0.9-2.4-2.2-2.4
	c-0.8,0-1.5,0.3-2,0.9l0,0c-0.1,0.1-0.2,0.3-0.3,0.5c-0.9,2.1-3.3,3.3-5.6,2.6c-0.2-0.1-0.3-0.1-0.5-0.1l0,0
	c-1.3-0.1-2.4,0.9-2.4,2.2c0,0.8,0.3,1.5,0.9,2l0,0c0.1,0.1,0.3,0.2,0.5,0.3c2.1,0.9,3.3,3.3,2.6,5.6c-0.1,0.2-0.1,0.3-0.1,0.5l0,0
	c-0.1,1.3,0.9,2.4,2.2,2.4c0.8,0,1.5-0.3,2-0.9l0,0c0.1-0.1,0.2-0.3,0.3-0.5c0.9-2.1,3.3-3.3,5.6-2.6c0.2,0.1,0.3,0.1,0.5,0.1l0,0
	c1.3,0.1,2.4-0.9,2.4-2.2c0-0.8-0.3-1.5-0.9-2l0,0C866.1,772.7,865.9,772.6,865.8,772.6z"/>
<path class="st14" d="M231.4,567.5c-2.1-0.9-3.3-3.3-2.6-5.6c0.1-0.2,0.1-0.3,0.1-0.5l0,0c0.1-1.3-0.9-2.4-2.2-2.4
	c-0.8,0-1.5,0.3-2,0.9l0,0c-0.1,0.1-0.2,0.3-0.3,0.5c-0.9,2.1-3.3,3.3-5.6,2.6c-0.2-0.1-0.3-0.1-0.5-0.1l0,0
	c-1.3-0.1-2.4,0.9-2.4,2.2c0,0.8,0.3,1.5,0.9,2l0,0c0.1,0.1,0.3,0.2,0.5,0.3c2.1,0.9,3.3,3.3,2.6,5.6c-0.1,0.2-0.1,0.3-0.1,0.5l0,0
	c-0.1,1.3,0.9,2.4,2.2,2.4c0.8,0,1.5-0.3,2-0.9l0,0c0.1-0.1,0.2-0.3,0.3-0.5c0.9-2.1,3.3-3.3,5.6-2.6c0.2,0.1,0.3,0.1,0.5,0.1l0,0
	c1.3,0.1,2.4-0.9,2.4-2.2c0-0.8-0.3-1.5-0.9-2l0,0C231.7,567.7,231.5,567.6,231.4,567.5z"/>
<path class="st14" d="M759.8,68.2c-2.1-0.9-3.3-3.3-2.6-5.6c0.1-0.2,0.1-0.3,0.1-0.5l0,0c0.1-1.3-0.9-2.4-2.2-2.4
	c-0.8,0-1.5,0.3-2,0.9l0,0c-0.1,0.1-0.2,0.3-0.3,0.4c-0.9,2.1-3.3,3.3-5.6,2.6c-0.2-0.1-0.3-0.1-0.5-0.1l0,0
	c-1.3-0.1-2.4,0.9-2.4,2.2c0,0.8,0.3,1.5,0.9,2l0,0c0.1,0.1,0.3,0.2,0.5,0.3c2.1,0.9,3.3,3.3,2.6,5.6c-0.1,0.2-0.1,0.3-0.1,0.5l0,0
	c-0.1,1.3,0.9,2.4,2.2,2.4c0.8,0,1.5-0.3,2-0.9l0,0c0.1-0.1,0.2-0.3,0.3-0.4c0.9-2.1,3.3-3.3,5.6-2.6c0.2,0.1,0.3,0.1,0.5,0.1l0,0
	c1.3,0.1,2.4-0.9,2.4-2.2c0-0.8-0.3-1.5-0.9-2l0,0C760.1,68.3,759.9,68.2,759.8,68.2z"/>
<circle class="st15" cx="907.3" cy="314.5" r="7.5"/>
<circle class="st15" cx="325.4" cy="746.7" r="7.5"/>
<circle class="st15" cx="830" cy="477.2" r="7.5"/>
<circle class="st13" cx="181.8" cy="96.3" r="7.5"/>
<circle class="st16" cx="102.2" cy="301.8" r="7.5"/>
</svg>
