<svg width="231" height="170" viewBox="0 0 231 170" fill="none" xmlns="http://www.w3.org/2000/svg">
<g clip-path="url(#clip0)">
<path opacity="0.1" d="M97.7921 11.4063C90.2337 8.34703 82.2486 5.77404 74.1009 6.0982C62.1131 6.56417 50.6333 13.7564 44.9848 24.2915C40.21 33.2261 39.6207 43.7004 37.5483 53.6277C35.0085 65.8444 30.1524 77.4532 24.9712 88.819C22.1876 94.9172 19.2414 101.157 18.7944 107.843C18.1646 117.122 22.6143 126.381 29.5835 132.56C36.5527 138.739 45.8381 142.001 55.1439 142.71C60.1016 143.095 65.2625 142.73 69.6715 140.441C74.3244 138.01 77.7176 133.613 82.3908 131.223C86.7186 128.994 91.7779 128.69 96.634 128.974C102.994 129.359 109.272 130.676 115.246 132.925C122.032 135.477 128.351 139.144 135.137 141.738C141.924 144.331 149.482 145.749 156.41 143.601C162.912 141.576 168.053 136.673 172.706 131.689C180.325 123.524 187.254 114.772 193.471 105.493C197.657 99.2528 201.558 92.6481 203.407 85.3748C206.942 71.4563 202.066 55.7347 191.277 46.2329C182.337 38.3518 170.329 34.9279 158.585 32.8614C147.877 30.9772 135.483 30.8557 125.628 25.9123C116.221 21.212 107.667 15.4177 97.7921 11.4063Z" fill="#E8004C"/>
<path d="M177.013 24.3725C174.108 24.4941 173.966 31.9497 174.148 32.2739C174.331 32.598 173.498 35.9814 173.498 35.9814C173.498 35.9814 172.178 41.0869 172.34 42.0391C172.503 42.9913 171.629 43.6194 171.629 43.6194C170.349 44.1259 168.723 45.7669 168.297 46.2126L168.195 46.3342C168.195 46.3342 166.956 47.1446 166.732 47.4687C166.509 47.7929 165.919 47.5295 165.919 47.5295C165.919 47.5295 164.233 47.3674 164.01 47.4282C163.867 47.4687 163.623 47.2054 163.481 47.023C163.42 46.942 163.38 46.8812 163.38 46.8812L163.319 45.382C163.258 45.3414 163.197 45.3009 163.116 45.2604C163.156 45.0983 163.197 44.916 163.237 44.7337C163.989 44.369 164.639 43.8017 165.086 43.0723C165.127 42.9913 165.188 42.9103 165.229 42.8292C165.351 42.9103 165.472 42.9508 165.615 42.9305C165.676 42.9305 165.737 42.9305 165.798 42.9103C165.98 42.8495 166.163 42.7684 166.326 42.6469C166.753 42.3633 167.078 41.9783 167.301 41.5123C167.342 41.4313 167.362 41.33 167.403 41.249C167.362 41.3097 167.342 41.3503 167.301 41.3908C167.464 40.9653 167.423 40.4791 167.2 40.0739C167.037 39.8105 166.793 39.6079 166.692 39.3243C166.529 38.838 166.854 38.3316 167.037 37.8453C167.22 37.4199 167.301 36.9336 167.22 36.4677C167.139 36.0017 166.874 35.5762 166.468 35.2926C165.676 34.7658 164.578 35.0697 163.664 34.8063C163.339 34.705 163.014 34.5632 162.689 34.4214C162.222 34.2188 161.714 34.0567 161.206 33.9554C160.698 33.8541 160.088 33.8541 159.783 34.2391C159.702 34.3606 159.621 34.5024 159.56 34.624C159.357 34.9482 159.032 35.1913 158.645 35.2723C158.463 35.3128 158.28 35.3331 158.077 35.3331C158.097 35.2521 158.097 35.171 158.077 35.1102C157.833 34.3404 158.524 33.7731 159.397 33.4287C160.271 33.0843 163.623 30.4707 164.01 29.8427C164.396 29.2146 167.118 27.2697 167.118 27.2697C167.118 27.2697 171.182 26.1149 172.523 21.9414C173.864 17.7679 166.143 24.8588 165.371 25.0614C164.599 25.264 163.481 26.0744 163.481 26.0744L158.544 28.931C157.609 29.4578 156.715 30.0656 155.882 30.7746C154.683 31.8079 153.932 33.5502 153.932 33.5502C153.932 33.5502 153.464 34.3201 152.773 35.4344C152.387 36.0625 151.879 36.6095 151.27 37.0349L151.29 36.9944C151.229 37.0552 149.543 39.2027 149.38 40.1347C149.218 41.0666 148.527 44.8755 148.527 44.8755C148.527 44.8755 147.917 47.8739 147.491 48.4615C147.491 48.4615 147.145 50.1835 146.942 50.4064C146.739 50.6293 145.926 53.0807 146.068 53.3238C146.068 53.3238 145.296 55.0054 145.418 55.6537L144.016 58.9966C144.016 58.9966 143.265 60.6579 143.305 61.6101C143.325 62.076 143.346 62.6231 143.366 63.0688C143.366 63.1498 143.366 63.2106 143.366 63.2714C143.366 63.3524 143.366 63.4132 143.366 63.474C143.285 63.5955 143.102 63.9197 142.899 64.3046C142.614 64.8719 142.31 65.581 142.33 66.0064C142.371 66.7763 142.371 68.62 142.005 69.3088L141.903 69.2683C141.781 69.4709 141.7 69.6937 141.7 69.9369L141.72 69.9571C141.72 70.0179 141.7 70.0787 141.7 70.1395C141.619 70.9093 141.741 72.0033 141.537 72.2262C141.273 72.5504 141.395 79.8236 141.395 79.8236C141.395 79.8236 140.948 84.3821 141.842 87.259L141.781 89.5078C141.781 89.5078 141.741 91.6351 141.842 91.939C141.944 92.2429 141.984 94.3904 141.984 94.3904L142.492 97.9967C142.492 97.9967 141.822 103.568 142.391 104.946C142.716 105.695 142.939 106.506 143 107.336C143.285 107.499 143.61 107.62 143.935 107.701V107.904L143.793 111.287V111.469C143.793 111.469 143.772 111.55 143.772 111.713C143.772 111.733 143.772 111.773 143.772 111.794V111.814C143.772 111.834 143.772 111.854 143.772 111.875C143.772 111.895 143.772 111.915 143.772 111.935C143.772 111.956 143.772 111.976 143.772 111.976V112.016C143.772 112.098 143.772 112.179 143.772 112.28C143.772 112.32 143.772 112.361 143.772 112.401C143.772 112.442 143.772 112.422 143.772 112.442V112.503C143.772 112.523 143.772 112.543 143.772 112.563V112.604C143.772 112.645 143.772 112.665 143.793 112.705V112.726C143.793 112.766 143.813 112.807 143.813 112.827C143.813 112.867 143.833 112.908 143.833 112.928C143.833 112.928 143.833 112.928 143.833 112.948C143.833 112.969 143.833 112.989 143.854 113.009V113.029C143.854 113.05 143.874 113.07 143.874 113.09V113.11C143.894 113.171 143.915 113.232 143.935 113.273V113.293C143.935 113.313 143.955 113.333 143.955 113.354L143.976 113.374L143.996 113.435L144.016 113.475L144.037 113.536L144.057 113.576C144.057 113.597 144.077 113.617 144.077 113.617C144.077 113.617 144.098 113.637 144.098 113.658L144.138 113.698L144.159 113.739L144.199 113.779L144.219 113.82L144.26 113.86L144.28 113.88L144.321 113.921L144.341 113.941L144.402 114.002L144.423 114.022C144.443 114.042 144.463 114.063 144.484 114.063L144.524 114.083L144.565 114.123L144.606 114.144L144.646 114.184L144.687 114.205L144.727 114.225L144.768 114.245L144.809 114.265L144.849 114.286L144.91 114.306L144.971 114.326L145.032 114.346L145.093 114.367L145.154 114.387L145.215 114.407L145.276 114.427L145.378 114.448L145.459 114.468L145.52 114.488L145.581 114.508H145.642H145.703H145.764H145.825H145.906H145.987H146.068H146.394H146.495H146.576H146.678H146.739L146.922 114.488C146.922 114.488 149.218 114.833 149.299 113.921C149.299 113.88 149.299 113.82 149.299 113.779V113.658C149.299 113.637 149.299 113.637 149.299 113.617C149.299 113.576 149.299 113.516 149.299 113.475V113.455C149.299 113.394 149.299 113.354 149.299 113.293V113.192C149.299 113.11 149.299 113.009 149.299 112.928C149.299 112.888 149.299 112.867 149.299 112.827C149.299 112.726 149.299 112.645 149.299 112.543V112.645C149.299 112.624 149.299 112.604 149.299 112.584C149.279 112.138 149.258 111.713 149.238 111.49C149.238 111.368 149.218 111.287 149.218 111.287C149.218 111.287 148.425 110.112 148.568 109.666C148.71 109.221 148.669 107.721 148.669 107.721C148.669 107.721 148.364 107.012 148.161 106.364C148.141 106.323 148.121 106.263 148.121 106.222C148.283 106.02 148.446 105.817 148.608 105.614C148.893 104.054 148.69 102.434 148.039 100.995C147.958 100.934 147.917 100.853 147.917 100.752V100.732L148.303 95.9504L148.06 93.1748C148.06 93.1748 147.897 91.2704 148.263 90.46L149.015 83.2475L150.071 79.0538C150.071 79.0538 150.417 78.8917 150.681 79.6818C150.945 80.4719 151.615 84.0377 151.615 84.0377L153.241 89.9333C153.241 89.9333 153.505 92.0403 153.749 92.3239C153.993 92.6076 153.993 93.9245 153.993 93.9245C153.993 93.9245 154.501 94.978 154.44 95.4237C154.379 95.8694 154.44 97.1255 154.602 97.551C154.765 97.9764 154.846 100.995 154.846 100.995C154.643 101.988 154.683 103.001 154.907 103.973C155.313 105.473 155.069 107.377 155.069 107.377C155.11 107.438 155.151 107.499 155.212 107.559C155.191 107.6 155.171 107.64 155.151 107.681C155.049 107.944 154.968 108.147 154.968 108.147C154.968 108.147 154.948 109.646 155.069 110.092C155.191 110.538 154.419 111.713 154.419 111.713C154.419 111.713 154.419 111.794 154.399 111.915C154.379 112.158 154.358 112.563 154.338 113.009C154.338 113.029 154.338 113.05 154.338 113.07V113.09V113.354C154.338 113.394 154.338 113.414 154.338 113.455C154.338 113.556 154.338 113.637 154.338 113.718C154.338 113.739 154.338 113.759 154.338 113.779C154.338 113.799 154.338 113.799 154.338 113.82V113.84C154.338 113.901 154.338 113.941 154.338 114.002V114.022C154.338 114.063 154.338 114.123 154.338 114.164C154.338 114.184 154.338 114.184 154.338 114.205C154.338 114.245 154.338 114.286 154.338 114.326C154.338 114.367 154.338 114.427 154.338 114.468C154.419 115.38 156.715 115.035 156.715 115.035L156.898 115.055H156.959H157.061H157.142H157.244H157.569H157.65H157.731H157.812H157.873H157.934L157.995 115.035H158.056L158.117 115.015L158.178 114.995L158.259 114.974L158.361 114.954L158.422 114.934L158.483 114.914C158.503 114.914 158.524 114.893 158.544 114.893L158.605 114.873L158.666 114.853L158.727 114.833L158.788 114.812L158.828 114.792L158.869 114.772L158.91 114.752L158.95 114.731L158.991 114.711L159.032 114.671C159.052 114.671 159.052 114.65 159.072 114.65C159.093 114.63 159.113 114.63 159.113 114.61L159.153 114.589L159.214 114.549L159.235 114.529L159.296 114.468L159.316 114.448L159.357 114.407L159.377 114.367C159.397 114.346 159.397 114.346 159.418 114.326L159.438 114.286L159.479 114.245L159.499 114.205L159.54 114.164C159.54 114.144 159.56 114.144 159.56 114.123C159.56 114.103 159.58 114.083 159.58 114.083L159.6 114.042C159.6 114.022 159.621 114.002 159.621 113.982C159.621 113.982 159.641 113.961 159.641 113.941C159.641 113.921 159.661 113.901 159.661 113.88L159.682 113.86C159.682 113.84 159.702 113.82 159.702 113.799V113.779C159.722 113.718 159.743 113.658 159.763 113.617V113.597C159.763 113.576 159.783 113.556 159.783 113.536V113.516C159.783 113.495 159.783 113.475 159.804 113.455C159.804 113.455 159.804 113.455 159.804 113.435C159.804 113.394 159.824 113.354 159.824 113.333C159.824 113.293 159.844 113.252 159.844 113.232V113.212C159.844 113.171 159.865 113.151 159.865 113.11C159.865 113.07 159.865 113.09 159.865 113.07C159.865 113.05 159.865 113.029 159.865 113.009C159.865 112.989 159.865 112.969 159.865 112.948C159.865 112.928 159.865 112.928 159.865 112.908C159.865 112.888 159.865 112.827 159.865 112.786C159.865 112.685 159.865 112.604 159.865 112.523V112.442C159.865 112.422 159.865 112.401 159.865 112.381C159.865 112.361 159.865 112.341 159.865 112.32V112.3C159.865 112.28 159.865 112.239 159.865 112.219C159.844 112.077 159.844 111.976 159.844 111.976V111.794L159.722 108.512V108.309C159.905 108.208 160.108 108.086 160.312 107.944C160.312 107.944 160.271 106.08 160.82 105.331C161.368 104.581 160.555 102.616 160.555 102.616L160.21 95.5655L160.352 92.3239C160.088 91.8377 159.946 91.3109 159.946 90.7437C159.885 90.0346 159.702 89.3457 159.397 88.7177C159.397 88.7177 159.052 87.6034 159.458 87.2792C159.865 86.9551 159.011 79.7831 159.011 79.7831C159.011 79.7831 159.214 74.5358 158.828 71.4361V71.3753L158.93 71.3348C158.889 71.0917 158.869 70.8485 158.828 70.6257L158.706 70.6662C158.666 70.3826 158.585 70.1192 158.503 69.8558L157.955 67.3841C157.955 67.3841 157.934 67.2626 157.934 67.06C157.914 66.8371 157.894 66.5332 157.894 66.2698C157.894 66.1483 157.914 66.047 157.934 65.9457L157.914 65.9254C157.914 65.8646 157.934 65.8038 157.934 65.7431L157.812 65.6418C157.812 65.6418 157.792 65.5405 157.792 65.3581C157.772 64.9732 157.751 64.3249 157.934 63.9602C158.198 63.4132 160.982 61.367 160.982 61.367L162.547 58.2672C162.547 58.2672 164.091 56.0791 165.29 55.6537C166.488 55.2282 170.146 52.7971 170.146 52.7971C170.146 52.7971 171.426 51.4802 171.527 51.1763L171.568 51.1155H171.588V51.0547L175.042 45.8885C176.424 44.7742 176.465 42.4038 176.465 42.4038L176.83 36.9741L176.708 33.7731L176.871 31.9497C176.871 31.9497 179.919 24.251 177.013 24.3725ZM157.223 38.4126C156.857 39.0609 156.654 39.8105 156.654 40.5601C156.654 40.6007 156.654 40.6412 156.654 40.6614C156.654 40.6817 156.654 40.7222 156.654 40.7425C156.654 41.411 156.817 42.0796 157.122 42.6874C156.959 42.8495 156.857 43.0521 156.776 43.2749C156.614 43.0521 156.106 42.4038 156.085 41.9783C156.045 41.4516 155.537 41.0869 155.537 41.0869C155.537 41.0869 155.435 40.0942 155.577 39.9321L155.598 39.9118C155.598 39.9118 155.618 39.8916 155.638 39.851C155.781 39.6282 156.268 38.8988 156.776 38.0682C156.857 38.1087 156.939 38.129 157.04 38.1492L157.345 38.2303L157.223 38.4126Z" fill="url(#paint0_linear)"/>
<path d="M167.078 37.8656C167.118 37.8048 167.139 37.7238 167.159 37.6427C167.078 37.8048 167.017 37.9669 166.956 38.129C166.996 38.0479 167.037 37.9466 167.078 37.8656Z" fill="url(#paint1_linear)"/>
<path d="M158.138 42.6874C158.138 42.6874 157.508 45.7061 156.329 46.0911C155.151 46.476 157.752 49.9404 157.752 49.9404L163.136 49.6365L163.237 48.5222C163.237 48.5222 162.222 46.2734 163.928 43.5586C165.635 40.8438 158.138 42.6874 158.138 42.6874Z" fill="#F6BAC2"/>
<path d="M149.685 114.042C149.604 114.954 147.389 114.61 147.389 114.61C143.691 115.116 144.301 111.51 144.301 111.51V111.328L144.423 107.964L144.463 107.033C144.463 107.033 148.527 105.189 148.425 105.574C148.385 105.716 148.466 106.08 148.588 106.445C148.791 107.073 149.076 107.782 149.076 107.782C149.076 107.782 149.096 109.261 148.974 109.707C148.852 110.153 149.604 111.307 149.604 111.307C149.604 111.307 149.604 111.388 149.624 111.51C149.705 112.361 149.726 113.212 149.685 114.042Z" fill="#B77983"/>
<path d="M156.817 115.015C156.817 115.015 154.582 115.359 154.521 114.448C154.48 113.597 154.501 112.766 154.561 111.915C154.561 111.794 154.561 111.713 154.561 111.713C154.561 111.713 155.313 110.537 155.191 110.112C155.069 109.687 155.09 108.187 155.09 108.187C155.09 108.187 155.171 108.005 155.273 107.721C155.496 107.154 155.821 106.222 155.74 105.959C155.638 105.574 159.702 107.417 159.702 107.417L159.743 108.471L159.865 111.713V111.895C159.885 111.915 160.494 115.542 156.817 115.015Z" fill="#B77983"/>
<path d="M172.056 22.6707C170.755 26.8037 166.834 27.9585 166.834 27.9585C166.834 27.9585 164.213 29.9035 163.827 30.5113C163.441 31.1191 160.23 33.7326 159.377 34.077C158.524 34.4214 157.873 34.9887 158.097 35.7585C158.3 36.4676 156.085 39.9321 155.74 40.4386L155.699 40.4993L154.988 41.2287L152.611 42.424L150.681 41.796L150.437 39.4661L151.473 37.6427C152.062 37.2173 152.57 36.6905 152.936 36.0624C153.607 34.9482 154.054 34.1985 154.054 34.1985C154.054 34.1985 154.785 32.4562 155.943 31.4432C156.736 30.7544 157.609 30.1466 158.524 29.6198L163.298 26.7835C163.298 26.7835 164.375 25.9933 165.127 25.7705C165.899 25.5476 173.356 18.5377 172.056 22.6707Z" fill="#F6BAC2"/>
<path opacity="0.05" d="M152.652 40.9248L155.821 40.2967C155.781 40.3373 155.76 40.3778 155.76 40.4183L155.72 40.4791L155.009 41.2084L152.631 42.4038L150.701 41.7757L150.457 39.4458L151.493 37.6224C150.518 39.6484 151.473 41.0869 151.473 41.0869L152.652 40.9248Z" fill="black"/>
<path opacity="0.05" d="M171.243 51.3991C171.243 51.4194 171.223 51.4397 171.223 51.4599C171.202 51.541 171.162 51.6017 171.101 51.6625L169.821 52.2906L167.87 52.4932L166.854 50.0417L167.525 47.3472L167.89 46.8407L167.992 46.7191C168.033 47.2054 168.236 49.7378 168.215 50.5077C168.195 51.3586 168.825 51.4194 168.825 51.4194L171.243 51.3991Z" fill="black"/>
<path d="M171.141 51.5815C171.141 51.6017 171.121 51.622 171.121 51.6422C171.019 51.9461 169.78 53.2428 169.78 53.2428C169.78 53.2428 166.224 55.6739 165.086 56.0791C163.949 56.4843 162.445 58.6724 162.445 58.6724L160.942 61.7519C160.942 61.7519 158.259 63.7779 157.995 64.3249C157.812 64.6895 157.833 65.3379 157.853 65.7228C157.853 65.8849 157.873 66.0064 157.873 66.0064L157.081 66.8371L156.451 67.4854L155.557 68.4174L154.115 68.2148L149.604 67.5057L148.73 67.0194L143.915 64.3249C143.915 64.3249 143.915 64.1628 143.894 63.8994C143.894 63.7779 143.894 63.6563 143.874 63.5145C143.854 63.0688 143.833 62.5217 143.813 62.076C143.773 61.1238 144.504 59.4828 144.504 59.4828L145.886 56.1197C145.764 55.4916 146.495 53.81 146.495 53.81C146.373 53.5669 147.145 51.156 147.349 50.9129C147.552 50.6698 147.877 48.9882 147.877 48.9882C148.283 48.4007 148.872 45.4225 148.872 45.4225C148.872 45.4225 149.543 41.6542 149.685 40.7019C149.827 39.7497 151.473 37.6427 151.534 37.5819C150.356 39.7295 151.392 41.2895 151.392 41.2895L152.57 41.0869L155.74 40.4588C155.598 40.5601 155.699 41.6339 155.699 41.6339C155.984 41.8568 156.167 42.1607 156.228 42.5051C156.268 42.9913 156.837 43.7207 156.939 43.8422L156.959 43.8625C157.04 43.3965 157.325 43.0116 157.731 42.7684L158.463 43.7409L158.706 44.916C158.706 44.916 158.646 45.0781 158.219 45.4022C157.792 45.7264 158.402 46.5773 158.402 46.5773C158.605 46.9217 158.666 48.1778 158.666 48.1778C159.214 47.7118 160.048 47.7118 160.048 47.7118C160.393 47.3674 160.677 46.9622 160.881 46.5165C160.942 46.2531 161.206 46.0911 161.47 46.1518C161.51 46.1518 161.551 46.1721 161.571 46.1924C161.815 45.9898 162.079 45.7872 162.364 45.6453C162.75 45.4427 163.217 45.8479 163.217 45.8479L163.258 47.3472C163.258 47.3472 163.298 47.4079 163.359 47.489C163.481 47.6713 163.725 47.9347 163.867 47.8942C164.071 47.8334 165.716 47.9955 165.716 47.9955C165.716 47.9955 166.285 48.2386 166.488 47.9347C166.692 47.6308 167.911 46.8204 167.911 46.8204C167.911 46.8204 168.134 49.8391 168.134 50.69C168.134 51.5409 168.744 51.6017 168.744 51.6017L171.141 51.5815Z" fill="#E9004C"/>
<path d="M157.812 49.8796C157.97 49.8796 158.097 49.7526 158.097 49.596C158.097 49.4393 157.97 49.3123 157.812 49.3123C157.655 49.3123 157.528 49.4393 157.528 49.596C157.528 49.7526 157.655 49.8796 157.812 49.8796Z" fill="#4B4442"/>
<path d="M155.659 54.1342C155.816 54.1342 155.943 54.0072 155.943 53.8506C155.943 53.6939 155.816 53.5669 155.659 53.5669C155.502 53.5669 155.374 53.6939 155.374 53.8506C155.374 54.0072 155.502 54.1342 155.659 54.1342Z" fill="#4B4442"/>
<path d="M151.473 63.2106C151.63 63.2106 151.758 63.0836 151.758 62.9269C151.758 62.7703 151.63 62.6433 151.473 62.6433C151.316 62.6433 151.189 62.7703 151.189 62.9269C151.189 63.0836 151.316 63.2106 151.473 63.2106Z" fill="#4B4442"/>
<path d="M153.444 58.6319C153.601 58.6319 153.728 58.5049 153.728 58.3482C153.728 58.1916 153.601 58.0646 153.444 58.0646C153.287 58.0646 153.16 58.1916 153.16 58.3482C153.16 58.5049 153.287 58.6319 153.444 58.6319Z" fill="#4B4442"/>
<path opacity="0.05" d="M148.629 106.445C147.105 108.248 145.459 108.228 144.463 107.964L144.504 107.033C144.504 107.033 148.568 105.189 148.466 105.574C148.425 105.716 148.486 106.06 148.629 106.445Z" fill="black"/>
<path opacity="0.05" d="M159.763 108.491C157.162 109.99 155.638 108.228 155.293 107.742C155.517 107.174 155.842 106.242 155.76 105.979C155.659 105.594 159.722 107.438 159.722 107.438L159.763 108.491Z" fill="black"/>
<path d="M160.799 105.331C160.271 106.08 160.312 107.924 160.312 107.924C156.959 110.335 155.191 107.397 155.191 107.397C155.191 107.397 155.415 105.513 155.029 104.014C154.805 103.041 154.785 102.028 154.968 101.056C154.968 101.056 154.907 98.0574 154.744 97.6522C154.582 97.2471 154.521 95.9909 154.582 95.5452C154.643 95.0995 154.155 94.046 154.155 94.046C154.155 94.046 154.155 92.7494 153.932 92.4455C153.708 92.1416 153.444 90.0751 153.444 90.0751L151.88 84.22C151.88 84.22 151.229 80.6745 150.965 79.9047C150.701 79.1348 150.376 79.2969 150.376 79.2969L149.441 83.4907L148.73 90.6424C148.364 91.4527 148.527 93.3369 148.527 93.3369L148.75 96.0922L148.364 100.833V100.853C148.364 100.955 148.405 101.036 148.486 101.096C149.137 102.535 149.319 104.135 149.035 105.675C146.556 109.261 143.549 107.397 143.549 107.397C143.488 106.587 143.285 105.776 142.96 105.027C142.411 103.669 143.061 98.1385 143.061 98.1385L142.574 94.5728C142.574 94.5728 142.533 92.4252 142.452 92.1416C142.371 91.8579 142.391 89.7307 142.391 89.7307L142.452 87.4818C141.598 84.6252 142.025 80.1073 142.025 80.1073C142.025 80.1073 141.903 72.8948 142.167 72.5706C142.35 72.3275 142.228 71.274 142.31 70.4839C142.31 70.2407 142.391 70.0179 142.492 69.8153L142.533 69.7748C142.96 69.248 142.96 67.1815 142.919 66.3509C142.899 65.9254 143.204 65.2163 143.488 64.6693C143.691 64.2844 143.874 63.9602 143.955 63.8386L143.976 63.7981C143.976 63.7981 145.825 64.2641 150.762 66.594C151.636 67.0194 152.591 67.3233 153.566 67.4652C154.054 67.5259 154.541 67.5462 155.029 67.4854C155.781 67.4044 156.492 67.1815 157.122 66.7966C157.467 66.594 157.772 66.3509 158.036 66.0672C157.975 66.2698 158.016 66.9587 158.036 67.3841C158.056 67.5665 158.056 67.7083 158.056 67.7083L158.605 70.1192C158.686 70.4028 158.767 70.7067 158.808 70.9904C158.849 71.2132 158.869 71.4361 158.91 71.6792C159.296 74.7587 159.092 79.9654 159.092 79.9654C159.092 79.9654 159.905 87.0766 159.519 87.4008C159.133 87.7249 159.458 88.8392 159.458 88.8392C159.763 89.4673 159.926 90.1561 159.987 90.845C159.987 91.392 160.129 91.9187 160.373 92.405L160.23 95.6263L160.576 102.596C160.535 102.636 161.328 104.581 160.799 105.331Z" fill="#F5556B"/>
<path opacity="0.05" d="M156.979 93.58C156.979 93.58 159.458 92.1618 159.987 92.7899C160.515 93.4179 156.979 93.58 156.979 93.58Z" fill="black"/>
<path opacity="0.05" d="M158.463 94.3499C158.463 94.3499 158.056 94.5525 158.95 94.8159C159.844 95.0793 158.463 94.3499 158.463 94.3499Z" fill="black"/>
<path opacity="0.05" d="M143.549 90.46C143.468 90.4803 145.601 91.8985 147.531 90.7234C147.511 90.7234 144.016 90.298 143.549 90.46Z" fill="black"/>
<path opacity="0.05" d="M147.43 93.1545C147.43 93.1545 146.841 94.3094 145.642 94.4714C144.443 94.6335 147.43 93.1545 147.43 93.1545Z" fill="black"/>
<path opacity="0.05" d="M155.273 95.6465C155.273 95.6465 158.077 100.104 157.548 101.157C157.02 102.211 155.273 95.6465 155.273 95.6465Z" fill="black"/>
<path opacity="0.05" d="M150.518 68.62L150.234 77.3519C150.234 77.3519 151.961 77.2709 152.266 74.4143C152.57 71.5576 152.774 69.1872 152.774 69.1872L150.518 68.62Z" fill="black"/>
<path opacity="0.05" d="M150.437 68.4174L150.152 77.1493C150.152 77.1493 151.88 77.0683 152.184 74.1914C152.489 71.3145 152.692 68.9846 152.692 68.9846L150.437 68.4174Z" fill="black"/>
<path opacity="0.05" d="M146.901 68.8023C146.901 68.8023 145.54 72.4693 142.391 70.6865C142.391 70.4434 142.472 70.2205 142.574 70.0179C143.427 70.3826 145.418 70.9093 146.231 68.5187L146.901 68.8023Z" fill="black"/>
<path opacity="0.05" d="M146.82 68.4174C146.82 68.4174 145.459 72.0844 142.31 70.3015C142.31 70.0584 142.391 69.8356 142.492 69.633C143.346 69.9976 145.337 70.5244 146.15 68.1337L146.82 68.4174Z" fill="black"/>
<path d="M146.82 68.6199C146.82 68.6199 145.459 72.287 142.31 70.5041C142.31 70.261 142.391 70.0381 142.492 69.8355C143.346 70.2002 145.337 70.727 146.15 68.3363L146.82 68.6199Z" fill="#F5556B"/>
<path opacity="0.05" d="M158.808 71.9021C155.374 73.5431 154.094 69.6937 154.094 69.6937L154.907 69.714C155.049 72.1654 157.772 71.5171 158.706 71.2132C158.727 71.4361 158.767 71.6589 158.808 71.9021Z" fill="black"/>
<path opacity="0.05" d="M158.991 71.6184C155.557 73.2392 154.277 69.3898 154.277 69.3898L155.09 69.4101C155.232 71.8615 157.955 71.2132 158.889 70.9093C158.93 71.1322 158.971 71.355 158.991 71.6184Z" fill="black"/>
<path d="M158.889 71.6995C155.456 73.3203 154.176 69.4709 154.176 69.4709L154.988 69.4911C155.131 71.9628 157.853 71.2943 158.788 70.9904C158.828 71.2335 158.869 71.4563 158.889 71.6995Z" fill="#F5556B"/>
<path opacity="0.1" d="M146.82 68.6199C146.82 68.6199 145.459 72.287 142.31 70.5041C142.31 70.261 142.391 70.0381 142.492 69.8355C143.346 70.2002 145.337 70.727 146.15 68.3363L146.82 68.6199Z" fill="white"/>
<path opacity="0.1" d="M158.889 71.6995C155.456 73.3203 154.176 69.4709 154.176 69.4709L154.988 69.4911C155.131 71.9628 157.853 71.2943 158.788 70.9904C158.828 71.2335 158.869 71.4563 158.889 71.6995Z" fill="white"/>
<path opacity="0.05" d="M149.726 113.374C149.726 113.617 149.726 113.86 149.705 114.042C149.624 114.954 147.41 114.61 147.41 114.61C145.378 114.893 144.646 113.921 144.402 112.989C144.321 112.685 144.281 112.381 144.301 112.057C144.301 111.875 144.321 111.692 144.341 111.51V111.328C144.788 111.206 145.256 111.287 145.601 111.591C146.516 112.32 147.694 111.753 147.694 111.753C147.694 111.753 148.568 111.834 148.913 112.118C149.096 112.28 149.421 111.895 149.665 111.51C149.685 111.753 149.705 112.199 149.726 112.665C149.705 112.908 149.726 113.151 149.726 113.374Z" fill="black"/>
<path opacity="0.05" d="M146.15 113.313C146.15 113.313 145.54 113.901 144.382 112.989C144.301 112.685 144.26 112.381 144.28 112.057C144.87 112.523 145.947 113.313 146.15 113.313Z" fill="black"/>
<path opacity="0.05" d="M149.726 113.374C149.523 113.536 149.238 113.495 149.076 113.293L149.055 113.273C149.299 113.09 149.502 112.888 149.705 112.665C149.705 112.908 149.726 113.151 149.726 113.374Z" fill="black"/>
<path opacity="0.05" d="M154.48 113.779C154.48 114.022 154.48 114.265 154.501 114.448C154.582 115.359 156.797 115.015 156.797 115.015C158.828 115.299 159.56 114.326 159.804 113.394C159.926 112.908 159.946 112.401 159.885 111.915V111.733C159.438 111.611 158.971 111.692 158.625 111.996C157.711 112.726 156.532 112.158 156.532 112.158C156.532 112.158 155.659 112.239 155.313 112.523C155.131 112.685 154.805 112.3 154.562 111.915C154.541 112.158 154.521 112.604 154.501 113.07C154.48 113.313 154.48 113.556 154.48 113.779Z" fill="black"/>
<path opacity="0.05" d="M158.056 113.739C158.056 113.739 158.666 114.326 159.824 113.414C159.905 113.11 159.946 112.807 159.946 112.503C159.336 112.928 158.239 113.739 158.056 113.739Z" fill="black"/>
<path opacity="0.05" d="M154.48 113.779C154.683 113.941 154.968 113.901 155.13 113.698L155.151 113.678C154.907 113.495 154.704 113.293 154.501 113.07C154.48 113.313 154.48 113.556 154.48 113.779Z" fill="black"/>
<path opacity="0.05" d="M151.798 51.5815C151.798 51.5815 148.669 60.1919 149.868 60.9415C151.067 61.6911 151.798 51.5815 151.798 51.5815Z" fill="black"/>
<path opacity="0.05" d="M154.094 48.9274C154.094 48.9274 153.505 51.7841 153.789 52.0474C154.074 52.3108 154.094 48.9274 154.094 48.9274Z" fill="black"/>
<path opacity="0.05" d="M160.413 55.5726C160.413 55.5726 156.573 59.1384 156.817 59.4423C157.061 59.7462 160.413 55.5726 160.413 55.5726Z" fill="black"/>
<path opacity="0.05" d="M163.339 47.7118C161.876 48.1576 158.483 49.1908 158.442 49.1908L158.625 48.4209C159.174 47.955 160.007 47.955 160.007 47.955C160.352 47.6105 160.637 47.2053 160.84 46.7596C160.901 46.4962 161.165 46.3342 161.429 46.3949C161.47 46.3949 161.51 46.4152 161.531 46.4355C161.775 46.2329 162.039 46.0303 162.323 45.8885C162.709 45.6859 163.177 46.0911 163.177 46.0911L163.217 47.5903C163.237 47.57 163.278 47.6308 163.339 47.7118Z" fill="black"/>
<path d="M163.339 47.5295C161.876 47.9752 158.483 49.0085 158.442 49.0085L158.625 48.2386C159.174 47.7726 160.007 47.7726 160.007 47.7726C160.352 47.4282 160.637 47.023 160.84 46.5773C160.901 46.3139 161.165 46.1518 161.429 46.2126C161.47 46.2126 161.51 46.2329 161.531 46.2531C161.775 46.0505 162.039 45.8479 162.323 45.7061C162.709 45.5035 163.177 45.9087 163.177 45.9087L163.217 47.4079C163.237 47.3877 163.278 47.4282 163.339 47.5295Z" fill="#D39999"/>
<path opacity="0.05" d="M158.28 46.7191C158.483 47.0635 158.544 48.3196 158.544 48.3196L157.975 48.7654L156.898 45.6656L156.858 44.0651L156.837 43.984L156.858 44.0043C156.939 43.5383 157.223 43.1534 157.63 42.9103L158.361 43.8827L158.605 45.0578C158.605 45.0578 158.544 45.2199 158.117 45.544C157.691 45.8682 158.28 46.7191 158.28 46.7191Z" fill="black"/>
<path d="M158.381 46.6178C158.585 46.9622 158.646 48.2183 158.646 48.2183L158.077 48.6843L157 45.5846L156.959 43.984L156.939 43.903L156.959 43.9233C157.04 43.4573 157.325 43.0723 157.731 42.8292L158.463 43.8017L158.706 44.9768C158.706 44.9768 158.646 45.1388 158.219 45.463C157.792 45.7871 158.381 46.6178 158.381 46.6178Z" fill="#D39999"/>
<path opacity="0.05" d="M165.554 41.3097C165.554 43.7409 163.583 45.6859 161.145 45.6859C158.706 45.6859 156.756 43.7207 156.756 41.2895C156.756 38.8583 158.727 36.9134 161.145 36.9134C163.563 36.8931 165.533 38.8178 165.554 41.2287C165.554 41.2692 165.554 41.2895 165.554 41.3097Z" fill="black"/>
<path d="M165.554 41.1274C165.554 43.5586 163.583 45.5238 161.165 45.5238C158.727 45.5238 156.756 43.5586 156.756 41.1477C156.756 38.7165 158.727 36.7513 161.165 36.7513C163.583 36.731 165.554 38.676 165.574 41.0869C165.554 41.0869 165.554 41.1071 165.554 41.1274Z" fill="#F6BAC2"/>
<path opacity="0.05" d="M165.554 41.1274C165.554 41.9378 165.33 42.7279 164.904 43.4167C164.843 43.2952 164.802 43.1736 164.741 43.0521C164.639 42.89 164.436 42.7482 164.274 42.8495C164.213 42.9102 164.152 42.971 164.131 43.0521C164.01 43.3154 163.766 43.5991 163.481 43.5788C163.217 43.5586 162.994 43.356 162.933 43.1128C162.872 42.8697 162.851 42.6063 162.892 42.343C162.933 41.8162 162.953 41.2084 162.547 40.8437C162.303 40.6614 161.998 40.5399 161.693 40.4588C161.388 40.3575 161.084 40.2157 160.962 39.9118C160.881 39.7092 160.901 39.4863 160.82 39.304C160.657 39.0001 160.373 38.7773 160.027 38.7165C159.641 39.0406 159.153 39.2027 158.645 39.1824C158.178 39.1622 157.731 39.1014 157.284 38.9596C158.463 36.8526 161.145 36.0827 163.278 37.2578C164.7 38.0479 165.554 39.5269 165.554 41.1274Z" fill="black"/>
<path d="M160.84 39.1014C160.921 39.304 160.901 39.5269 160.982 39.7092C161.104 39.9929 161.409 40.1549 161.714 40.2562C162.018 40.317 162.303 40.4588 162.567 40.6412C162.953 41.0058 162.953 41.6136 162.912 42.1404C162.872 42.4038 162.892 42.6671 162.953 42.9103C163.014 43.1736 163.237 43.356 163.502 43.3762C163.806 43.3762 164.03 43.1129 164.152 42.8495C164.172 42.7684 164.233 42.7077 164.294 42.6469C164.457 42.5456 164.66 42.6874 164.761 42.8495C164.822 43.0318 164.904 43.1939 165.025 43.3357C165.168 43.4573 165.371 43.4978 165.554 43.4573C165.737 43.4168 165.899 43.3155 166.062 43.1939C166.468 42.9103 166.793 42.5253 166.996 42.0796C167.2 41.6136 167.179 41.1071 166.935 40.6614C166.773 40.398 166.549 40.1954 166.448 39.9118C166.285 39.4256 166.59 38.9191 166.793 38.4531C166.976 38.0276 167.037 37.5414 166.956 37.0754C166.874 36.6095 166.61 36.184 166.224 35.9206C165.452 35.4141 164.416 35.6978 163.522 35.4344C163.197 35.3331 162.892 35.2115 162.587 35.0495C162.14 34.8469 161.653 34.705 161.165 34.6037C160.677 34.5024 160.088 34.5024 159.783 34.8874C159.702 35.0089 159.621 35.1508 159.56 35.2723C159.357 35.5965 159.052 35.8193 158.686 35.9206C158.422 35.9814 158.158 35.9611 157.873 36.0017C157.609 36.0219 157.345 36.1637 157.203 36.3866C157.061 36.6297 157.122 36.9336 157.162 37.197C157.203 37.4604 157.183 37.7845 156.959 37.9669C156.858 38.0479 156.715 38.0884 156.654 38.1897C156.593 38.3315 156.634 38.4734 156.756 38.5747C156.878 38.6557 157 38.7165 157.142 38.7367C157.65 38.8988 158.178 38.9799 158.706 39.0001C159.235 39.0204 159.763 38.8178 160.149 38.4734C160.108 38.5139 159.885 38.4936 159.844 38.4936C160.21 38.5341 160.698 38.7165 160.84 39.1014Z" fill="#7E646B"/>
<g opacity="0.05">
<path opacity="0.05" d="M166.306 42.7077C166.163 42.8292 165.98 42.9103 165.798 42.971C165.615 43.0116 165.412 42.971 165.269 42.8495C165.168 42.7077 165.066 42.5253 165.005 42.3632C164.904 42.2012 164.7 42.0593 164.538 42.1606C164.477 42.2214 164.416 42.2822 164.396 42.3632C164.274 42.6266 164.03 42.9103 163.745 42.89C163.481 42.8697 163.258 42.6671 163.197 42.424C163.136 42.1809 163.116 41.9175 163.156 41.6542C163.197 41.1274 163.217 40.5196 162.811 40.1549C162.567 39.9726 162.262 39.851 161.957 39.77C161.653 39.6687 161.348 39.5269 161.226 39.223C161.145 39.0204 161.165 38.7975 161.084 38.6152C160.962 38.291 160.616 38.1087 160.291 38.0276C159.905 38.3518 159.418 38.5139 158.91 38.4936C158.381 38.4734 157.853 38.3923 157.345 38.2302C157.203 38.21 157.081 38.1492 156.959 38.0682C156.939 38.0479 156.918 38.0276 156.898 37.9871C156.817 38.0276 156.736 38.0884 156.675 38.1695C156.614 38.3113 156.654 38.4531 156.776 38.5544C156.898 38.6354 157.02 38.6962 157.162 38.7165C157.67 38.8786 158.199 38.9596 158.727 38.9799C159.235 39.0001 159.722 38.8178 160.108 38.5139C160.434 38.5949 160.779 38.7773 160.901 39.1014C160.982 39.304 160.962 39.5269 161.043 39.7092C161.165 39.9928 161.47 40.1549 161.775 40.2562C162.079 40.317 162.364 40.4588 162.628 40.6412C163.014 41.0058 163.014 41.6136 162.973 42.1404C162.933 42.4038 162.953 42.6671 163.014 42.9103C163.075 43.1736 163.298 43.356 163.563 43.3762C163.867 43.3762 164.091 43.1129 164.213 42.8495C164.233 42.7684 164.294 42.7077 164.355 42.6469C164.518 42.5456 164.721 42.6874 164.822 42.8495C164.883 43.0318 164.985 43.1939 165.086 43.3357C165.229 43.4573 165.432 43.4978 165.615 43.4573C165.798 43.4168 165.96 43.3155 166.123 43.1939C166.529 42.9103 166.854 42.5253 167.057 42.0796C167.098 41.9986 167.118 41.8973 167.139 41.8162C166.915 42.1606 166.631 42.4645 166.306 42.7077Z" fill="black"/>
<path opacity="0.05" d="M166.712 38.7367C166.753 38.6354 166.793 38.5544 166.834 38.4531C166.874 38.3518 166.895 38.3113 166.915 38.2302C166.834 38.3923 166.753 38.5544 166.712 38.7367Z" fill="black"/>
<path opacity="0.05" d="M157.203 37.4604C157.406 37.278 157.426 36.9741 157.386 36.7108C157.366 36.5487 157.345 36.4069 157.345 36.2448C157.305 36.2853 157.264 36.3258 157.244 36.3866C157.101 36.6297 157.162 36.9336 157.203 37.197C157.203 37.278 157.203 37.3591 157.203 37.4604Z" fill="black"/>
</g>
<path opacity="0.05" d="M157.995 67.607C157.609 67.6272 157.081 67.6677 156.451 67.688C156.004 67.7083 155.517 67.7083 154.988 67.7083C154.521 67.7083 154.033 67.7083 153.525 67.688C151.92 67.6475 150.315 67.4854 148.73 67.2018C146.617 66.7966 144.667 66.0875 143.447 64.9124C143.651 64.5275 143.833 64.2033 143.915 64.0817C143.915 63.9602 143.915 63.8386 143.894 63.6968C146.028 64.7098 152.713 67.5259 157.853 65.9254C157.853 66.0875 157.873 66.209 157.873 66.209L157.995 66.3103C157.934 66.5129 157.975 67.2018 157.995 67.607Z" fill="black"/>
<path d="M157.995 67.4246C157.609 67.4449 157.081 67.4854 156.451 67.5056C156.004 67.5259 155.517 67.5259 154.988 67.5259C154.521 67.5259 154.033 67.5259 153.525 67.5056C151.92 67.4651 150.315 67.303 148.73 67.0194C146.617 66.6142 144.667 65.9051 143.447 64.7301C143.651 64.3451 143.833 64.021 143.915 63.8994C143.915 63.7778 143.915 63.6563 143.894 63.5145C146.028 64.5275 152.713 67.3436 157.853 65.743C157.853 65.9051 157.873 66.0267 157.873 66.0267L157.995 66.128C157.934 66.3103 157.975 66.9991 157.995 67.4246Z" fill="#4B4442"/>
<path d="M56.5866 156.082C56.0989 155.494 55.8754 154.724 55.9567 153.954L64.9171 80.7758L65.6689 74.6979C65.8314 73.3 67.0302 72.2465 68.4322 72.2262L94.7038 72.0439C96.248 72.0439 97.5077 70.7675 97.4874 69.2277C97.4874 69.2075 97.4874 69.1872 97.4874 69.167V68.8833C97.4264 67.3436 98.6455 66.047 100.21 65.9862C100.251 65.9862 100.271 65.9862 100.312 65.9862H127.924C129.468 65.9862 130.728 67.2423 130.728 68.782C130.728 68.9036 130.728 69.0251 130.708 69.167C130.505 70.7067 131.582 72.1046 133.126 72.3072C133.227 72.3275 133.329 72.3275 133.431 72.3275L159.946 72.9961C161.49 73.0366 162.73 74.313 162.689 75.873C162.689 76.0148 162.669 76.1363 162.648 76.2782L149.401 153.468L149.157 154.927C149.096 155.291 148.954 155.656 148.751 155.98L56.5866 156.082Z" fill="#717271"/>
<g opacity="0.5">
<path opacity="0.5" d="M106.021 93.7421L136.377 49.9202L149.807 59.1789L119.451 103.001L106.021 93.7421Z" fill="url(#paint2_linear)"/>
</g>
<path d="M136.602 50.5275L106.656 93.747L119.427 102.545L149.373 59.3255L136.602 50.5275Z" fill="#F9FAFB"/>
<path d="M137.509 52.5735L131.258 61.5399L140.25 67.7731L146.501 58.8066L137.509 52.5735Z" fill="#FFCE00"/>
<path d="M130.461 63.3849L124.225 72.3855L133.251 78.6039L139.488 69.6033L130.461 63.3849Z" fill="#FFD74A"/>
<path d="M122.934 74.2637L116.697 83.2643L125.724 89.4827L131.96 80.4821L122.934 74.2637Z" fill="#FFE17C"/>
<g opacity="0.5">
<path opacity="0.5" d="M103.217 98.2398L118.131 47.3269L133.817 51.8854L118.883 102.818L103.217 98.2398Z" fill="url(#paint3_linear)"/>
</g>
<path d="M118.551 47.8239L103.829 98.0565L118.73 102.398L133.451 52.1656L118.551 47.8239Z" fill="#F9FAFB"/>
<path d="M120.516 49.273L117.439 59.7746L127.97 62.8433L131.048 52.3417L120.516 49.273Z" fill="#FD858E"/>
<path d="M116.788 61.9303L113.711 72.4319L124.243 75.5006L127.32 64.9991L116.788 61.9303Z" fill="#FFAFB2"/>
<path d="M113.077 74.6119L109.999 85.1135L120.531 88.1822L123.609 77.6806L113.077 74.6119Z" fill="#FFD7D7"/>
<g opacity="0.5">
<path opacity="0.5" d="M103.237 101.096L107.504 48.1981L123.779 49.515L119.512 102.393L103.237 101.096Z" fill="url(#paint4_linear)"/>
</g>
<path d="M107.993 48.6072L103.784 100.771L119.257 102.012L123.466 49.8485L107.993 48.6072Z" fill="#F9FAFB"/>
<path d="M110.209 49.6373L109.329 60.5426L120.265 61.42L121.145 50.5147L110.209 49.6373Z" fill="#682666"/>
<path d="M109.129 62.7939L108.249 73.6992L119.186 74.5766L120.066 63.6713L109.129 62.7939Z" fill="#865083"/>
<path d="M108.068 75.9579L107.188 86.8632L118.125 87.7406L119.004 76.8353L108.068 75.9579Z" fill="#A57AA0"/>
<g opacity="0.5">
<path opacity="0.5" d="M100.495 50.3659L116.79 49.6365L119.228 102.636L102.912 103.366L100.495 50.3659Z" fill="url(#paint5_linear)"/>
</g>
<path d="M116.546 50.0021L101.038 50.7069L103.428 102.986L118.936 102.281L116.546 50.0021Z" fill="white"/>
<path d="M114.324 50.9546L103.363 51.4528L103.863 62.3822L114.824 61.884L114.324 50.9546Z" fill="#E8004C"/>
<path d="M115.376 63.6755L104.397 64.2228L104.946 75.1702L115.925 74.6229L115.376 63.6755Z" fill="#F5556B"/>
<path d="M115.522 77.3342L104.561 77.8324L105.061 88.7617L116.022 88.2635L115.522 77.3342Z" fill="#FD858E"/>
<path d="M107.626 119.675L93.83 125.003L73.6742 132.763C72.9022 131.344 71.7846 129.42 70.403 127.13C65.6282 119.249 57.7244 106.972 50.6942 96.1936C42.7701 84.0377 35.9431 73.7862 35.9431 73.7862L40.8805 72.368L81.2123 60.6984L107.626 119.675Z" fill="#E6ECF8"/>
<path opacity="0.1" d="M107.626 119.675L93.8301 125.003C86.1294 126.604 78.2662 127.333 70.403 127.151C65.6282 119.269 57.7244 106.992 50.6942 96.2138L40.9008 72.368L81.2327 60.6984L107.626 119.675Z" fill="black"/>
<path d="M117.887 116.372C117.887 116.372 96.4511 129.014 64.47 126.158L38.9705 64.1628L51.1818 62.076L93.4237 54.8433L117.399 115.177L117.887 116.372Z" fill="#E8004C"/>
<path opacity="0.1" d="M117.399 115.177C112.36 115.42 106.509 115.4 100.637 114.711C94.2771 113.961 87.8971 112.422 82.4112 109.606C77.8395 107.255 73.9181 104.703 70.5046 101.623C61.6255 93.6611 56.1192 82.2548 51.1819 62.076L93.4237 54.8433L117.399 115.177Z" fill="black"/>
<path d="M133.126 111.713C133.126 111.713 117.338 114.792 101.246 112.888C94.8866 112.138 88.5067 110.598 83.0207 107.782C78.4491 105.432 74.5277 102.879 71.1142 99.7998C60.122 89.9333 54.3109 74.8195 48.317 44.2879C48.317 44.2879 74.5683 50.609 100.535 36.7715C100.535 36.7918 109.292 91.2502 133.126 111.713Z" fill="#F9FAFB"/>
<path opacity="0.1" d="M101.246 112.888C94.8866 112.138 88.5066 110.598 83.0207 107.782C78.4491 105.432 74.5276 102.879 71.1141 99.7998C80.4809 99.0502 81.8219 93.9447 81.8219 93.9447C88.7708 104.926 101.246 112.888 101.246 112.888Z" fill="black"/>
<path opacity="0.3" d="M61.91 55.5119C61.91 55.5119 83.2645 54.3165 89.2178 49.7176L90.1321 52.6147C90.1321 52.6147 76.0312 58.8142 61.91 58.8953V55.5119Z" fill="#E8004C"/>
<path opacity="0.3" d="M61.91 69.8153C61.91 69.8153 82.5737 68.6807 98.1985 61.1643L98.7268 62.3597C98.7268 62.3597 86.3326 69.5721 61.91 71.4563V69.8153Z" fill="#E8004C"/>
<path opacity="0.3" d="M63.576 75.3867C63.576 75.3867 84.2398 74.2522 99.8646 66.7358L100.393 67.9311C100.393 67.9311 87.9987 75.1436 63.576 77.0277V75.3867Z" fill="#E8004C"/>
<path opacity="0.3" d="M65.2218 80.9582C65.2218 80.9582 85.8856 79.8236 101.51 72.3073L102.039 73.5026C102.039 73.5026 89.6444 80.7151 65.2218 82.5992V80.9582Z" fill="#E8004C"/>
<path opacity="0.3" d="M66.888 86.5499C66.888 86.5499 87.5517 85.4153 103.177 77.899L103.705 79.0943C103.705 79.0943 91.3106 86.3068 66.888 88.1909V86.5499Z" fill="#E8004C"/>
<path opacity="0.3" d="M68.554 92.1213C68.554 92.1213 89.2178 90.9868 104.843 83.4704L105.371 84.6657C105.371 84.6657 92.9767 91.8782 68.554 93.7624V92.1213Z" fill="#E8004C"/>
<path d="M213.911 161.43C213.911 161.43 205.317 160.924 206.333 166.921C206.333 166.921 206.129 167.974 207.105 168.46C207.105 168.46 207.125 168.015 207.978 168.156C208.283 168.217 208.608 168.217 208.913 168.197C209.34 168.177 209.726 167.994 210.051 167.731C210.051 167.731 212.469 166.738 213.403 162.808C213.403 162.808 214.094 161.957 214.074 161.734L212.631 162.342C212.631 162.342 213.119 163.395 212.733 164.246C212.733 164.246 212.692 162.382 212.408 162.423C212.347 162.423 211.656 162.788 211.656 162.788C211.656 162.788 212.509 164.611 211.859 165.928C211.859 165.928 212.103 163.699 211.392 162.929L210.376 163.517C210.376 163.517 211.372 165.401 210.701 166.921C210.701 166.921 210.864 164.57 210.173 163.659L209.238 164.368C209.238 164.368 210.173 166.211 209.604 167.488C209.604 167.488 209.523 164.753 209.035 164.55C209.035 164.55 208.222 165.259 208.1 165.563C208.1 165.563 208.751 166.9 208.344 167.609C208.344 167.609 208.1 165.786 207.897 165.786C207.897 165.786 207.084 167.002 207.003 167.812C207.003 167.812 207.044 166.576 207.694 165.664C207.227 165.745 206.8 165.968 206.455 166.313C206.455 166.313 206.576 165.462 207.897 165.381C207.897 165.381 208.568 164.469 208.73 164.408C208.73 164.408 207.43 164.307 206.637 164.651C206.637 164.651 207.328 163.841 208.974 164.206L209.888 163.456C209.888 163.456 208.182 163.213 207.45 163.476C207.45 163.476 208.283 162.767 210.132 163.274L211.128 162.686C211.128 162.686 209.665 162.382 208.791 162.484C208.791 162.484 209.706 161.997 211.412 162.524L212.123 162.2C212.123 162.2 211.046 161.997 210.742 161.957C210.437 161.916 210.417 161.835 210.417 161.835C211.087 161.714 211.798 161.795 212.428 162.058C212.428 162.078 213.932 161.531 213.911 161.43Z" fill="#E8004C"/>
<path opacity="0.1" d="M207.999 170.02C211.354 170.02 214.074 169.558 214.074 168.987C214.074 168.416 211.354 167.954 207.999 167.954C204.643 167.954 201.924 168.416 201.924 168.987C201.924 169.558 204.643 170.02 207.999 170.02Z" fill="#E8004C"/>
<path opacity="0.1" d="M165.351 167.022C176.796 167.022 186.075 166.187 186.075 165.158C186.075 164.129 176.796 163.294 165.351 163.294C153.905 163.294 144.626 164.129 144.626 165.158C144.626 166.187 153.905 167.022 165.351 167.022Z" fill="#E8004C"/>
<path d="M217.914 141.616C217.914 141.616 213.078 141.332 213.647 144.716C213.586 145.06 213.769 145.425 214.074 145.587C214.074 145.587 214.094 145.344 214.562 145.425C214.744 145.445 214.907 145.465 215.09 145.445C215.334 145.425 215.557 145.344 215.74 145.182C215.74 145.182 217.101 144.614 217.63 142.406C217.63 142.406 218.016 141.92 217.995 141.798L217.183 142.143C217.183 142.143 217.467 142.73 217.244 143.217C217.244 143.217 217.223 142.163 217.061 142.183C217.02 142.183 216.634 142.386 216.634 142.386C216.634 142.386 217.122 143.399 216.756 144.148C216.756 144.148 216.898 142.892 216.492 142.447L215.923 142.791C215.923 142.791 216.492 143.845 216.106 144.716C216.106 144.716 216.207 143.399 215.801 142.872L215.273 143.277C215.273 143.277 215.801 144.331 215.476 145.04C215.476 145.04 215.435 143.5 215.151 143.379C214.948 143.541 214.785 143.743 214.622 143.946C214.622 143.946 214.988 144.695 214.765 145.101C214.765 145.101 214.622 144.067 214.521 144.067C214.521 144.067 214.074 144.736 214.013 145.222C214.033 144.797 214.175 144.371 214.399 144.007C214.135 144.047 213.891 144.189 213.708 144.371C213.708 144.371 213.769 143.885 214.521 143.845C214.521 143.845 214.887 143.338 214.988 143.298C214.988 143.298 214.257 143.237 213.81 143.439C213.81 143.439 214.196 142.994 215.13 143.196L215.638 142.771C215.638 142.771 214.663 142.629 214.257 142.791C214.257 142.791 214.724 142.386 215.76 142.69L216.329 142.345C215.903 142.244 215.456 142.224 215.009 142.244C215.009 142.244 215.537 141.96 216.492 142.264L216.898 142.082C216.898 142.082 216.289 141.96 216.126 141.94C215.963 141.92 215.943 141.879 215.943 141.879C216.329 141.819 216.715 141.859 217.081 142.001C217.081 141.981 217.914 141.677 217.914 141.616Z" fill="#E8004C"/>
<path opacity="0.1" d="M214.582 146.438C216.478 146.438 218.016 146.184 218.016 145.871C218.016 145.557 216.478 145.303 214.582 145.303C212.685 145.303 211.148 145.557 211.148 145.871C211.148 146.184 212.685 146.438 214.582 146.438Z" fill="#E8004C"/>
<path d="M189.326 144.554C189.326 144.554 183.474 144.209 184.165 148.281C184.084 148.707 184.307 149.132 184.673 149.335C184.673 149.335 184.673 149.031 185.283 149.132C185.486 149.173 185.709 149.173 185.913 149.173C186.197 149.153 186.482 149.051 186.685 148.849C186.685 148.849 188.331 148.18 188.96 145.486C188.96 145.486 189.428 144.898 189.407 144.756L188.412 145.182C188.412 145.182 188.757 145.891 188.473 146.478C188.473 146.478 188.432 145.202 188.249 145.243C188.209 145.243 187.741 145.486 187.741 145.486C187.741 145.486 188.31 146.721 187.884 147.613C187.884 147.613 188.046 146.093 187.558 145.567L186.868 145.972C186.868 145.972 187.538 147.248 187.091 148.302C187.091 148.302 187.213 146.701 186.725 146.073L186.096 146.559C186.096 146.559 186.725 147.816 186.339 148.687C186.339 148.687 186.299 146.823 185.953 146.681C185.953 146.681 185.405 147.167 185.323 147.37C185.323 147.37 185.75 148.281 185.486 148.768C185.486 148.768 185.323 147.532 185.181 147.512C185.181 147.512 184.633 148.342 184.572 148.889C184.592 148.363 184.755 147.856 185.039 147.431C184.714 147.491 184.429 147.633 184.206 147.876C184.206 147.876 184.287 147.289 185.181 147.248C185.181 147.248 185.628 146.62 185.75 146.58C185.75 146.58 184.856 146.499 184.328 146.742C184.328 146.742 184.795 146.195 185.913 146.438L186.543 145.931C186.543 145.931 185.384 145.769 184.876 145.952C184.876 145.952 185.445 145.465 186.705 145.83L187.376 145.425C187.376 145.425 186.38 145.222 185.791 145.283C185.791 145.283 186.421 144.939 187.579 145.303L188.066 145.08C188.066 145.08 187.335 144.939 187.132 144.918C186.929 144.898 186.908 144.837 186.908 144.837C187.376 144.756 187.843 144.817 188.27 144.979C188.31 144.999 189.346 144.614 189.326 144.554Z" fill="#E8004C"/>
<path opacity="0.1" d="M185.303 150.389C187.592 150.389 189.448 150.08 189.448 149.7C189.448 149.319 187.592 149.011 185.303 149.011C183.014 149.011 181.158 149.319 181.158 149.7C181.158 150.08 183.014 150.389 185.303 150.389Z" fill="#E8004C"/>
<path opacity="0.1" d="M11.1141 166.961C14.4693 166.961 17.1893 166.498 17.1893 165.928C17.1893 165.357 14.4693 164.895 11.1141 164.895C7.75889 164.895 5.03894 165.357 5.03894 165.928C5.03894 166.498 7.75889 166.961 11.1141 166.961Z" fill="#E8004C"/>
<path d="M7.03011 161.167C7.03011 161.167 10.5045 161.065 11.5408 160.316C12.577 159.566 16.8845 158.695 17.1283 159.87C17.3721 161.045 22.3298 165.786 18.4287 165.826C14.5276 165.867 9.32608 165.219 8.28984 164.591C7.25361 163.963 7.03011 161.167 7.03011 161.167Z" fill="#A8A8A8"/>
<path opacity="0.2" d="M18.4896 165.421C14.5682 165.462 9.38704 164.814 8.3508 164.185C7.55839 163.699 7.2333 161.977 7.13171 161.167H7.0098C7.0098 161.167 7.2333 163.963 8.26953 164.591C9.30577 165.219 14.5073 165.867 18.4084 165.847C19.5462 165.847 19.9322 165.442 19.9119 164.834C19.7697 165.178 19.343 165.401 18.4896 165.421Z" fill="black"/>
<path d="M160.454 32.8817L171.182 0L230.186 19.1253L219.479 52.0069L160.454 32.8817Z" fill="url(#paint6_linear)"/>
<path d="M171.521 0.357765L160.948 32.7842L219.148 51.6524L229.721 19.2259L171.521 0.357765Z" fill="#F6F7F9"/>
<g opacity="0.2">
<path opacity="0.2" d="M177.765 24.6764C181.289 24.6764 184.145 21.8283 184.145 18.3149C184.145 14.8015 181.289 11.9533 177.765 11.9533C174.241 11.9533 171.385 14.8015 171.385 18.3149C171.385 21.8283 174.241 24.6764 177.765 24.6764Z" fill="#E8004C"/>
</g>
<g opacity="0.2">
<path opacity="0.2" d="M193.555 15.5004L193.014 17.1574L219.409 25.7145L219.95 24.0575L193.555 15.5004Z" fill="#E8004C"/>
</g>
<g opacity="0.2">
<path opacity="0.2" d="M192.179 19.732L191.639 21.389L205.087 25.749L205.627 24.092L192.179 19.732Z" fill="#E8004C"/>
</g>
<g opacity="0.2">
<path opacity="0.2" d="M190.804 23.9446L190.264 25.6016L212.021 32.6552L212.562 30.9983L190.804 23.9446Z" fill="#E8004C"/>
</g>
<g opacity="0.2">
<path opacity="0.2" d="M189.42 28.1776L188.88 29.8345L215.274 38.3916L215.815 36.7346L189.42 28.1776Z" fill="#E8004C"/>
</g>
<g opacity="0.5">
<path opacity="0.5" d="M206.533 40.4603L205.49 43.6586L212.794 46.0265L213.837 42.8282L206.533 40.4603Z" fill="#E8004C"/>
</g>
<path d="M189.976 97.8549C189.976 97.7941 189.976 97.713 189.956 97.6523C189.956 97.5915 189.936 97.5104 189.915 97.4497C189.895 97.3078 189.854 97.166 189.834 97.0445C189.814 96.9837 189.794 96.9229 189.773 96.8621C189.59 96.153 189.225 95.4845 188.757 94.8969C188.737 94.8564 188.696 94.8361 188.676 94.7956C188.656 94.7551 188.574 94.6741 188.513 94.6133C188.453 94.5525 188.412 94.512 188.351 94.4715C188.29 94.4309 188.249 94.3904 188.209 94.3499C188.107 94.2689 188.026 94.2081 187.945 94.1473C187.863 94.0865 187.823 94.0663 187.782 94.046C187.66 93.9852 187.538 93.9245 187.396 93.9245L186.543 93.8434L185.384 93.7219L181.26 92.1213L181.097 92.1821C180.975 91.858 180.874 91.5135 180.793 91.1691C180.914 91.1083 181.036 91.0273 181.118 90.926C181.219 90.845 181.3 90.7437 181.341 90.6424C181.443 90.3992 181.24 89.8927 181.28 89.6091C181.341 89.1431 181.585 88.6974 181.788 88.272C182.215 87.3603 182.52 86.3675 182.459 85.3748C182.398 84.3821 181.951 83.3691 181.097 82.8018C180.65 82.5182 180.142 82.3561 179.695 82.0927C179.35 81.8901 179.025 81.6268 178.7 81.3836C177.013 80.2693 174.86 80.1073 173.031 80.9784C172.178 81.4039 171.446 82.0319 170.633 82.5384C169.821 83.0449 168.866 83.4299 167.931 83.2881C167.911 83.3286 167.911 83.3691 167.911 83.4096H167.829C167.667 83.8553 168.073 84.2808 168.439 84.5847C169.13 85.152 169.922 85.7192 170.837 85.7597C171.182 85.7597 171.568 85.699 171.873 85.8408C171.954 85.8813 172.015 85.9218 172.076 85.9623C171.67 87.6034 172.218 89.3457 173.498 90.46L171.405 89.7104C171.405 89.7104 171.324 89.7509 171.182 89.832L168.256 87.887C168.256 87.887 162.404 85.78 160.779 89.0621C159.153 92.3442 167.829 90.6626 167.829 90.6626L169.678 91.6756C169.617 92.0605 169.678 92.4455 169.882 92.7899L174.941 95.9099C173.925 96.2138 172.238 96.7203 171.934 96.7203C171.507 96.7203 170.308 97.1458 169.556 98.8476C168.805 100.549 166.082 108.836 163.705 110.213C161.328 111.591 155.029 120.85 155.029 120.85L155.049 120.931C154.948 120.971 154.826 120.992 154.724 121.032C153.403 121.498 152.266 122.349 151.453 123.484C151.107 123.949 151.229 124.598 151.697 124.942C151.839 125.044 152.022 125.104 152.184 125.125C154.663 125.428 156.024 124.294 156.675 123.443C156.715 123.382 156.756 123.342 156.797 123.281C157 123.362 157.203 123.382 157.406 123.301L160.434 120.85C160.434 120.85 158.056 123.18 159.458 125.307L159.357 125.449C157.02 128.792 155.293 132.519 154.277 136.47C154.277 136.47 152.977 137.422 152.875 141.251C152.774 145.08 151.473 151.239 151.473 151.239C151.473 151.239 150.599 158.573 151.148 160.802C151.148 160.802 151.209 160.883 151.331 161.025C151.29 161.065 151.25 161.126 151.189 161.187C150.721 161.693 149.868 162.403 148.872 162.2C147.349 161.876 147.349 164.53 149.523 164.753C150.925 164.895 153.668 165.502 155.435 165.928C156.106 166.09 156.776 165.685 156.939 165.036C156.979 164.895 156.979 164.753 156.979 164.611C156.878 163.659 156.675 162.504 156.329 161.693C156.309 161.633 156.289 161.592 156.268 161.552C156.329 161.491 156.39 161.43 156.451 161.369C156.451 161.369 156.451 156.689 157.203 155.413C157.203 155.413 159.255 145.729 159.153 143.298C159.072 141.393 164.497 133.938 166.854 130.797L166.834 130.676C167.443 129.865 167.829 129.379 167.829 129.379L169.658 140.968C169.658 140.968 170.532 143.52 171.609 144.898C171.609 144.898 176.262 153.711 176.81 156.487C177.216 158.573 178.07 159.83 178.456 160.296L178.314 160.437C177.826 160.883 177.095 161.349 176.262 161.167C174.738 160.843 174.738 163.497 176.912 163.719C178.314 163.861 181.057 164.489 182.824 164.895C183.495 165.057 184.165 164.651 184.348 163.983C184.389 163.841 184.389 163.699 184.389 163.557C184.267 162.443 184.023 161.065 183.556 160.255C183.515 160.194 183.475 160.113 183.434 160.052C183.596 159.992 183.739 159.89 183.861 159.749C183.861 159.749 181.036 153.043 181.036 151.239C181.036 151.239 179.838 144.331 175.835 141.778C175.835 141.778 176.221 133.127 177.359 128.326C177.379 128.204 177.42 128.082 177.44 127.981C178.497 127.819 179.553 127.596 180.61 127.333L180.711 124.152L181.26 126.705L187.335 122.977C187.335 122.977 187.274 122.308 187.172 121.275C187.112 120.769 187.051 120.161 186.99 119.492C186.929 118.966 186.868 118.419 186.786 117.851C186.766 117.709 186.746 117.568 186.725 117.426C186.644 116.859 186.563 116.271 186.461 115.704C186.421 115.481 186.38 115.278 186.36 115.076C186.299 114.792 186.258 114.529 186.197 114.265C186.177 114.123 186.136 114.002 186.116 113.88C186.096 113.759 186.055 113.617 186.035 113.495C186.014 113.374 185.974 113.252 185.953 113.131C185.933 113.07 185.913 113.009 185.913 112.948C185.872 112.827 185.852 112.726 185.811 112.604C185.689 112.158 185.608 111.672 185.588 111.206C185.588 111.024 185.588 110.841 185.588 110.639C185.588 110.436 185.608 110.274 185.649 110.072C185.669 109.97 185.669 109.889 185.689 109.788C185.75 109.423 185.852 109.059 185.994 108.694C186.055 108.512 186.136 108.349 186.218 108.167C186.421 107.762 186.624 107.336 186.847 106.87C186.949 106.648 187.071 106.404 187.172 106.161C187.274 105.918 187.396 105.675 187.498 105.432C188.554 103.082 189.59 100.468 189.875 98.7665C189.895 98.5842 189.936 98.4221 189.936 98.26C189.976 98.1385 189.976 97.9967 189.976 97.8549Z" fill="url(#paint7_linear)"/>
<path d="M171.873 91.4933L168.297 89.0823C168.297 89.0823 162.628 86.9753 161.043 90.2371C159.458 93.499 167.87 91.8174 167.87 91.8174L171.446 93.8029L171.873 91.4933Z" fill="#AE6E79"/>
<path d="M151.586 82.8045L133.104 111.47L177.867 140.165L196.349 111.5L151.586 82.8045Z" fill="#F9FAFB"/>
<path d="M144.923 101.348L139.736 109.487L141.657 110.704L146.844 102.565L144.923 101.348Z" fill="#B7B6CC"/>
<path d="M157.256 93.2685L145.869 111.137L147.636 112.256L159.023 94.3876L157.256 93.2685Z" fill="#B7B6CC"/>
<path d="M161.008 95.6473L149.62 113.516L151.387 114.635L162.774 96.7664L161.008 95.6473Z" fill="#B7B6CC"/>
<path d="M164.772 98.0378L153.385 115.907L155.152 117.026L166.539 99.1569L164.772 98.0378Z" fill="#B7B6CC"/>
<path d="M168.769 101.545L157.298 119.338L159.058 120.466L170.53 102.674L168.769 101.545Z" fill="#B7B6CC"/>
<path d="M172.3 102.789L160.913 120.658L162.679 121.777L174.066 103.908L172.3 102.789Z" fill="white"/>
<path d="M176.068 105.179L164.681 123.048L166.447 124.167L177.834 106.298L176.068 105.179Z" fill="white"/>
<path d="M183.435 108.261L180.482 112.895L185.13 115.84L188.083 111.206L183.435 108.261Z" fill="#B7B6CC"/>
<path d="M182.438 164.955C180.711 164.53 178.05 163.922 176.709 163.78C174.616 163.578 174.616 160.944 176.079 161.268C176.871 161.43 177.582 160.984 178.07 160.559C178.212 160.417 178.354 160.275 178.476 160.113C178.659 159.911 178.883 159.749 179.147 159.708C179.939 159.546 181.585 159.283 182.58 159.809C182.804 159.951 183.007 160.154 183.129 160.397C183.576 161.207 183.82 162.565 183.942 163.638C184.023 164.307 183.535 164.915 182.865 164.976C182.723 164.996 182.58 164.996 182.438 164.955Z" fill="#717271"/>
<path d="M155.862 166.009C154.135 165.583 151.473 164.976 150.132 164.834C148.039 164.631 148.039 161.997 149.502 162.322C150.457 162.524 151.29 161.835 151.758 161.329C151.819 161.268 151.859 161.207 151.9 161.146C152.083 160.944 152.306 160.802 152.57 160.741C153.363 160.579 155.009 160.316 156.004 160.843C156.309 161.005 156.532 161.349 156.715 161.795C157.061 162.605 157.244 163.74 157.345 164.672C157.406 165.34 156.918 165.928 156.248 165.989C156.126 166.049 155.984 166.029 155.862 166.009Z" fill="#717271"/>
<path opacity="0.1" d="M156.715 161.815C154.216 164.388 152.062 161.774 151.737 161.329C151.798 161.268 151.839 161.207 151.88 161.146C152.062 160.944 152.286 160.802 152.55 160.741C153.342 160.579 154.988 160.316 155.984 160.843C156.309 161.025 156.553 161.369 156.715 161.815Z" fill="black"/>
<path opacity="0.1" d="M183.129 160.397C182.052 161.147 178.375 160.964 178.375 160.964C178.253 160.843 178.151 160.701 178.049 160.559C178.192 160.417 178.334 160.275 178.456 160.113C178.639 159.911 178.862 159.749 179.126 159.708C179.919 159.546 181.565 159.283 182.56 159.809C182.824 159.951 183.007 160.154 183.129 160.397Z" fill="black"/>
<path d="M183.332 159.911C182.601 160.863 178.395 160.64 178.395 160.64C178.395 160.64 177.135 159.384 176.607 156.649C176.079 153.914 171.568 145.222 171.568 145.222C170.511 143.865 169.678 141.353 169.678 141.353L167.89 129.926C167.89 129.926 159.275 141.251 159.377 143.662C159.479 146.073 157.487 155.616 157.487 155.616C156.756 156.872 156.756 161.491 156.756 161.491C154.033 164.327 151.717 160.964 151.717 160.964C151.189 158.756 152.022 151.543 152.022 151.543C152.022 151.543 153.281 145.465 153.383 141.697C153.485 137.929 154.744 136.977 154.744 136.977C155.72 133.087 157.406 129.399 159.682 126.097C160.312 125.185 160.738 124.699 160.738 124.699L177.765 126.685C177.44 127.414 177.196 128.163 177.034 128.933C175.916 133.674 175.55 142.204 175.55 142.204C179.431 144.716 180.589 151.523 180.589 151.523C180.589 153.306 183.332 159.911 183.332 159.911Z" fill="#3E1151"/>
<g opacity="0.05">
<path opacity="0.05" d="M166.935 131.344L166.712 129.946C166.712 129.946 158.097 141.272 158.199 143.683C158.3 146.093 156.309 155.636 156.309 155.636C155.577 156.892 155.577 161.511 155.577 161.511C155.13 161.997 154.562 162.362 153.932 162.565C154.765 162.788 155.76 162.625 156.837 161.511C156.837 161.511 156.837 156.892 157.569 155.636C157.569 155.636 159.56 146.093 159.458 143.683C159.397 141.778 164.66 134.444 166.935 131.344Z" fill="black"/>
<path opacity="0.05" d="M180.691 151.523C180.691 151.523 179.533 144.716 175.652 142.204C175.652 142.204 176.018 133.694 177.135 128.933C177.298 128.163 177.542 127.414 177.867 126.685L160.84 124.699C160.84 124.699 160.799 124.74 160.718 124.841L176.587 126.705C176.261 127.434 176.018 128.184 175.855 128.954C174.738 133.694 174.372 142.224 174.372 142.224C178.253 144.736 179.411 151.543 179.411 151.543C179.411 153.326 182.154 159.931 182.154 159.931C181.727 160.478 180.081 160.64 178.801 160.68C179.817 160.701 182.804 160.721 183.413 159.931C183.434 159.911 180.691 153.306 180.691 151.523Z" fill="black"/>
</g>
<path d="M157.589 123.24C157.467 123.544 157.305 123.848 157.081 124.112C156.451 124.962 155.13 126.077 152.733 125.773C152.164 125.692 151.758 125.185 151.839 124.618C151.859 124.456 151.92 124.294 152.022 124.152C152.794 123.038 153.911 122.187 155.191 121.721C155.618 121.579 156.085 121.478 156.532 121.457L157.589 123.24Z" fill="#AE6E79"/>
<path d="M179.777 93.9244L171.345 90.8449C171.345 90.8449 168.927 92.101 169.882 93.8839L178.09 99.0299L179.777 93.9244Z" fill="#42383C"/>
<path d="M179.817 93.965L171.385 90.8855C171.385 90.8855 168.967 92.1416 169.922 93.9244L178.11 99.0502L179.817 93.965Z" fill="#682666"/>
<path d="M180.061 88.8594C180.061 88.8594 179.959 93.7826 182.154 95.4642C184.348 97.1457 175.754 98.0777 175.754 98.0777C175.754 98.0777 177.115 93.0532 175.754 90.4195C174.392 87.7857 180.061 88.8594 180.061 88.8594Z" fill="#AE6E79"/>
<path opacity="0.1" d="M177.765 126.705C177.44 127.434 177.196 128.184 177.034 128.954C166.874 130.493 159.804 126.279 159.804 126.279C159.763 126.219 159.722 126.158 159.702 126.097C160.332 125.185 160.759 124.699 160.759 124.699L177.765 126.705Z" fill="black"/>
<path opacity="0.1" d="M157.589 123.24C157.467 123.544 157.305 123.848 157.081 124.112C156.106 123.949 155.334 122.086 155.191 121.741C155.618 121.599 156.085 121.498 156.532 121.478L157.589 123.24Z" fill="black"/>
<path d="M180.914 93.2761L177.135 94.6335L175.55 96.7406C175.55 96.7406 172.299 97.7941 171.873 97.7941C171.446 97.7941 170.288 98.2195 169.556 99.8808C168.825 101.542 166.204 109.727 163.888 111.085C161.571 112.442 155.476 121.559 155.476 121.559C155.476 121.559 156.532 124.395 157.792 123.97L160.738 121.559C160.738 121.559 158.422 123.868 159.783 125.955C159.783 125.955 168.398 131.081 180.285 127.941L180.386 124.8L180.914 127.313L186.807 123.646C186.807 123.646 186.278 116.879 185.323 113.435C184.937 111.996 185.08 110.456 185.73 109.099C187.254 105.918 189.611 100.63 189.326 98.7058C188.981 96.4367 187.701 95.4439 187.213 95.14C187.091 95.0792 186.969 95.0387 186.847 95.0185L184.917 94.8361L180.914 93.2761Z" fill="#682666"/>
<path opacity="0.05" d="M174.453 103.791C174.453 103.791 172.36 113.536 170.044 115.116C167.728 116.696 161.531 121.721 161.328 122.552" fill="black"/>
<path opacity="0.1" d="M175.489 96.6798C175.489 96.6798 182.743 94.2689 184.836 94.8969L175.489 96.6798Z" fill="black"/>
<g opacity="0.05">
<path opacity="0.05" d="M185.73 109.119C187.254 105.939 189.611 100.651 189.326 98.726C188.981 96.4569 187.701 95.4642 187.213 95.1603C187.091 95.0995 186.969 95.059 186.847 95.0387L186.035 94.9577C186.116 94.978 186.197 95.0185 186.278 95.059C186.766 95.3629 188.067 96.3556 188.392 98.6247C188.676 100.549 186.319 105.857 184.795 109.018C184.145 110.375 184.003 111.915 184.389 113.354C185.344 116.798 185.872 123.565 185.872 123.565L180.813 126.725L180.935 127.333L186.827 123.666C186.827 123.666 186.299 116.899 185.344 113.455C184.937 111.996 185.08 110.456 185.73 109.119Z" fill="black"/>
<path opacity="0.05" d="M183.962 94.7348L184.876 94.8159L180.914 93.2761L180.549 93.3977L183.962 94.7348Z" fill="black"/>
</g>
<path opacity="0.05" d="M173.498 113.657C173.498 113.657 176.749 111.875 177.806 112.3C178.862 112.726 182.743 112.199 182.743 112.199" fill="black"/>
<path opacity="0.05" d="M179.716 90.1764C179.594 89.1229 180.081 89.2849 180.081 89.2849C180.081 89.2849 174.413 88.2314 175.774 90.8652C176.119 91.5946 176.323 92.3644 176.343 93.1748H176.404C177.968 93.1546 178.903 91.4122 179.716 90.1764Z" fill="black"/>
<path d="M176.383 92.7291C178.875 92.7291 180.894 90.7155 180.894 88.2314C180.894 85.7474 178.875 83.7338 176.383 83.7338C173.892 83.7338 171.873 85.7474 171.873 88.2314C171.873 90.7155 173.892 92.7291 176.383 92.7291Z" fill="#AE6E79"/>
<path opacity="0.1" d="M181.341 89.5686C181.748 88.6772 182.052 87.7047 182.012 86.712C181.971 85.7192 181.524 84.7265 180.691 84.1795C180.264 83.8958 179.777 83.754 179.33 83.4906C178.984 83.288 178.679 83.0247 178.354 82.8018C176.729 81.6875 174.636 81.5457 172.848 82.3966C172.015 82.8018 171.304 83.4299 170.532 83.9364C169.76 84.4428 168.825 84.8075 167.911 84.6657C167.748 85.0912 168.134 85.5369 168.5 85.8408C169.17 86.4081 169.943 86.9753 170.816 86.9956C171.162 86.9956 171.527 86.9348 171.832 87.0766C172.035 87.1982 172.218 87.3603 172.34 87.5629C172.767 88.1301 173.133 88.7379 173.417 89.3863C173.498 89.6699 173.681 89.913 173.905 90.0953C174.311 90.3587 174.839 90.1359 175.327 90.1156C176.079 90.0953 176.749 90.5613 177.298 91.0476C177.846 91.5338 178.375 92.1213 179.086 92.3847C179.614 92.5873 180.65 92.567 180.914 91.9592C181.016 91.7161 180.813 91.2299 180.854 90.926C180.955 90.4195 181.118 89.9738 181.341 89.5686Z" fill="black"/>
<path d="M181.422 89.4673C181.829 88.5759 182.134 87.6034 182.093 86.6107C182.052 85.6179 181.605 84.6252 180.772 84.0782C180.346 83.7945 179.858 83.6325 179.411 83.3894C179.066 83.1868 178.761 82.9234 178.436 82.7005C176.81 81.5862 174.717 81.4444 172.929 82.2953C172.096 82.7005 171.385 83.3286 170.613 83.8148C169.841 84.301 168.906 84.686 167.992 84.5442C167.829 84.9899 168.216 85.4153 168.581 85.7192C169.252 86.2865 170.024 86.8538 170.898 86.874C171.243 86.874 171.609 86.8133 171.913 86.9551C172.117 87.0766 172.3 87.2387 172.421 87.4413C172.848 88.0086 173.214 88.6164 173.498 89.2444C173.58 89.5281 173.762 89.7712 173.986 89.9535C174.392 90.2169 174.921 89.994 175.408 89.9738C176.16 89.9535 176.83 90.4195 177.379 90.926C177.928 91.4325 178.456 91.9998 179.167 92.2631C179.695 92.4657 180.732 92.4455 180.996 91.8377C181.097 91.5946 180.894 91.1083 180.935 90.8044C181.036 90.3182 181.199 89.8725 181.422 89.4673Z" fill="#42383C"/>
<path opacity="0.1" d="M148.71 156C148.324 156.304 147.857 156.487 147.369 156.466L56.5866 156.082C56.0989 155.494 55.8754 154.724 55.9567 153.954L64.9171 80.7758L70.5453 80.715C71.5206 80.715 72.3739 81.3431 72.6177 82.2751L73.6743 86.1447C73.9384 87.0766 74.7918 87.7249 75.7671 87.7047L98.2188 87.1577C99.377 87.1374 100.291 86.1852 100.291 85.0304V82.4777C100.291 81.3228 101.226 80.3706 102.384 80.3504L133.491 80.0262C134.528 80.0262 135.401 80.7353 135.605 81.7483L149.36 153.468L149.441 153.934C149.604 154.724 149.319 155.514 148.71 156Z" fill="black"/>
<path d="M132.496 81.0797L101.388 81.4039C100.23 81.4241 99.2957 82.3561 99.2957 83.5312V86.0839C99.2957 87.2387 98.3813 88.1707 97.2232 88.1909L74.7714 88.7379C73.7962 88.7582 72.9225 88.1099 72.6583 87.1779L71.6018 83.3083C71.3579 82.3764 70.5046 81.728 69.5293 81.7483L39.5598 82.0725C38.3813 82.0927 37.4467 83.0449 37.467 84.22C37.467 84.3416 37.4873 84.4428 37.4873 84.5441L49.5564 155.332C49.7392 156.345 50.6129 157.095 51.6492 157.095L146.353 157.5C147.531 157.5 148.486 156.568 148.486 155.393C148.486 155.251 148.466 155.129 148.446 154.987L134.609 82.8018C134.406 81.7888 133.512 81.0595 132.496 81.0797Z" fill="#E7E1E6"/>
<path d="M176.302 32.598L176.14 34.4011L176.262 37.5819L175.916 42.971C175.916 42.971 175.875 45.3212 174.534 46.4355L171.121 51.6625H171.101L169.821 52.2905L167.87 52.4931L166.854 50.0417L167.525 47.3471L167.89 46.8407L167.992 46.7191C168.398 46.2734 169.963 44.6526 171.202 44.1461C171.202 44.1461 172.035 43.5383 171.893 42.5861C171.751 41.6339 173.011 36.5689 173.011 36.5689C173.011 36.5689 173.823 33.2261 173.64 32.9019C173.458 32.5777 173.6 25.1627 176.404 25.0614C179.208 24.9601 176.302 32.598 176.302 32.598Z" fill="#F6BAC2"/>
<path opacity="0.1" d="M30.7619 142.447C32.5798 142.447 34.0535 142.247 34.0535 142.001C34.0535 141.755 32.5798 141.555 30.7619 141.555C28.9441 141.555 27.4704 141.755 27.4704 142.001C27.4704 142.247 28.9441 142.447 30.7619 142.447Z" fill="#E8004C"/>
<path opacity="0.1" d="M18.1443 143.723C19.9622 143.723 21.4358 143.523 21.4358 143.277C21.4358 143.031 19.9622 142.832 18.1443 142.832C16.3264 142.832 14.8527 143.031 14.8527 143.277C14.8527 143.523 16.3264 143.723 18.1443 143.723Z" fill="#E8004C"/>
<path opacity="0.1" d="M3.29157 142.001C5.10945 142.001 6.58314 141.801 6.58314 141.555C6.58314 141.309 5.10945 141.11 3.29157 141.11C1.47369 141.11 0 141.309 0 141.555C0 141.801 1.47369 142.001 3.29157 142.001Z" fill="#E8004C"/>
<path opacity="0.1" d="M23.2035 147.228C24.494 147.228 25.5401 147.083 25.5401 146.904C25.5401 146.725 24.494 146.58 23.2035 146.58C21.913 146.58 20.8669 146.725 20.8669 146.904C20.8669 147.083 21.913 147.228 23.2035 147.228Z" fill="#E8004C"/>
<path opacity="0.1" d="M10.1185 146.904C11.409 146.904 12.4551 146.759 12.4551 146.58C12.4551 146.401 11.409 146.256 10.1185 146.256C8.82806 146.256 7.78192 146.401 7.78192 146.58C7.78192 146.759 8.82806 146.904 10.1185 146.904Z" fill="#E8004C"/>
<path d="M18.0833 143.176C18.0833 143.176 22.6956 128.082 17.3518 122.025C13.3491 117.507 8.81815 118.034 6.78632 118.601C5.72976 118.885 4.83576 119.614 4.36844 120.607C3.65729 122.126 3.7792 124.618 8.79783 127.515C17.1893 132.357 17.7176 139.002 17.7176 139.002L18.0833 143.176Z" fill="#E8004C"/>
<path d="M7.51776 120.748C7.51776 120.748 21.131 125.003 18.0833 143.176" stroke="#565987" stroke-miterlimit="10"/>
<path d="M15.4623 122.268C15.4623 122.268 13.593 123.524 14.1822 125.428" stroke="#565987" stroke-miterlimit="10"/>
<path d="M8.8791 123.382C8.8791 123.382 10.0169 122.227 11.4189 122.855" stroke="#565987" stroke-miterlimit="10"/>
<path d="M14.2635 129.237C14.2635 129.237 16.275 128.224 16.8033 129.501" stroke="#565987" stroke-miterlimit="10"/>
<path d="M19.2414 131.365C19.2414 131.365 17.7379 131.243 17.6973 131.972" stroke="#565987" stroke-miterlimit="10"/>
<path d="M18.2662 143.298C18.2662 143.298 12.8615 132.317 11.3782 132.56C10.6671 132.681 10.342 133.37 10.1998 134.059C10.0169 134.951 10.1185 135.883 10.4842 136.733C11.2563 138.496 13.3085 141.819 18.2662 143.298Z" fill="#E8004C"/>
<path d="M11.4189 134.647C11.4189 134.647 17.0877 142.852 18.1849 143.217" stroke="#565987" stroke-miterlimit="10"/>
<path d="M10.8907 135.923H12.2113" stroke="#565987" stroke-miterlimit="10"/>
<path d="M12.4754 138.921L14.5479 139.023" stroke="#565987" stroke-miterlimit="10"/>
<path d="M13.7352 136.531L13.5117 137.605" stroke="#565987" stroke-miterlimit="10"/>
<path d="M15.9499 139.813L15.9093 140.785" stroke="#565987" stroke-miterlimit="10"/>
<path d="M18.1036 143.298C18.1036 143.298 23.5083 132.317 24.9915 132.56C25.7026 132.681 26.0277 133.37 26.17 134.059C26.3528 134.951 26.2512 135.883 25.8652 136.733C25.1134 138.496 23.0613 141.819 18.1036 143.298Z" fill="#E8004C"/>
<path d="M24.9712 134.647C24.9712 134.647 19.2821 142.852 18.2052 143.217" stroke="#565987" stroke-miterlimit="10"/>
<path d="M25.4792 135.923H24.1586" stroke="#565987" stroke-miterlimit="10"/>
<path d="M23.8944 138.921L21.8219 139.023" stroke="#565987" stroke-miterlimit="10"/>
<path d="M22.6346 136.531L22.8581 137.605" stroke="#565987" stroke-miterlimit="10"/>
<path d="M20.4199 139.813L20.4605 140.785" stroke="#565987" stroke-miterlimit="10"/>
<path d="M8.81821 145.85C8.67598 145.729 8.55407 145.567 8.51343 145.384C8.45248 145.202 8.55407 144.999 8.73693 144.918C8.94012 144.837 9.1433 144.979 9.30585 145.121C9.46839 145.263 9.65126 145.405 9.85444 145.384C9.63094 145.182 9.52935 144.878 9.59031 144.594C9.59031 144.533 9.63094 144.473 9.65126 144.432C9.75285 144.311 9.95604 144.371 10.0983 144.452C10.5046 144.736 10.6265 145.303 10.6265 145.83C10.6469 145.648 10.6469 145.445 10.6265 145.263C10.6062 145.08 10.7078 144.878 10.85 144.777C10.9516 144.716 11.0532 144.696 11.1751 144.696C11.358 144.675 11.5612 144.716 11.7034 144.837C11.8456 145.04 11.8456 145.303 11.6831 145.486C11.5205 145.668 11.3377 145.81 11.1345 145.911C10.972 146.012 10.85 146.134 10.7485 146.276C10.7281 146.296 10.7281 146.316 10.7281 146.337H9.54967C9.28553 146.215 9.04171 146.053 8.81821 145.85Z" fill="#E8004C"/>
<path d="M29.4413 141.434C29.299 141.312 29.1771 141.15 29.1365 140.968C29.0755 140.785 29.1771 140.583 29.36 140.502C29.5632 140.421 29.7663 140.563 29.9289 140.704C30.0914 140.846 30.2743 141.008 30.4775 140.968C30.254 140.765 30.1524 140.482 30.2133 140.178C30.2133 140.117 30.254 140.056 30.2946 140.016C30.3962 139.894 30.5994 139.955 30.7416 140.036C31.1683 140.34 31.2699 140.887 31.2699 141.413C31.2902 141.231 31.2902 141.029 31.2699 140.846C31.2496 140.664 31.3309 140.461 31.4731 140.34C31.5747 140.279 31.6763 140.259 31.7982 140.259C31.981 140.238 32.1842 140.279 32.3265 140.4C32.4687 140.603 32.4687 140.866 32.3061 141.049C32.1436 141.231 31.9607 141.373 31.7575 141.474C31.595 141.576 31.4731 141.697 31.3715 141.839C31.3512 141.859 31.3512 141.879 31.3512 141.9H30.193C29.8883 141.798 29.6444 141.636 29.4413 141.434Z" fill="#E8004C"/>
<path d="M22.5533 145.85C22.4111 145.729 22.2892 145.567 22.2486 145.384C22.1876 145.202 22.2892 144.999 22.4721 144.918C22.6752 144.837 22.8784 144.979 23.041 145.121C23.2035 145.263 23.3864 145.425 23.5896 145.384C23.3661 145.182 23.2645 144.878 23.3254 144.594C23.3254 144.533 23.3661 144.473 23.4067 144.432C23.5083 144.311 23.7115 144.371 23.8537 144.452C24.2804 144.736 24.382 145.303 24.382 145.83C24.4023 145.648 24.4023 145.445 24.382 145.263C24.3617 145.08 24.4429 144.878 24.6055 144.756C24.7071 144.696 24.8087 144.675 24.9306 144.675C25.1134 144.655 25.3166 144.696 25.4589 144.817C25.6011 145.02 25.6011 145.283 25.4385 145.465C25.276 145.648 25.0931 145.79 24.8899 145.891C24.7274 145.992 24.6055 146.114 24.5039 146.256C24.4836 146.276 24.4836 146.296 24.4836 146.316H23.3051C23.0207 146.215 22.7768 146.053 22.5533 145.85Z" fill="#E8004C"/>
<path d="M3.06808 136.916C3.06808 136.916 2.62108 137.483 3.27126 138.354C3.92145 139.225 4.44973 139.955 4.22622 140.502C4.22622 140.502 3.25094 138.881 2.45853 138.861C1.66611 138.84 2.21471 137.888 3.06808 136.916Z" fill="#E8004C"/>
<path opacity="0.1" d="M3.06802 136.916C3.02738 136.976 3.00706 137.037 2.98674 137.098C2.21465 138.01 1.80828 138.84 2.53974 138.881C3.23057 138.901 4.06362 140.137 4.2668 140.441C4.2668 140.461 4.24648 140.481 4.24648 140.502C4.24648 140.502 3.2712 138.881 2.47879 138.861C1.68637 138.84 2.21465 137.888 3.06802 136.916Z" fill="black"/>
<path d="M2.25533 137.645C2.25533 137.848 2.27564 138.01 2.31628 138.01C2.35692 138.01 2.37724 137.848 2.37724 137.645C2.37724 137.443 2.35692 137.544 2.31628 137.544C2.27564 137.544 2.25533 137.443 2.25533 137.645Z" fill="#FFD037"/>
<path d="M1.97086 137.888C2.15373 137.99 2.29596 138.05 2.31628 138.01C2.3366 137.969 2.19437 137.888 2.0115 137.787C1.82864 137.686 1.90991 137.767 1.88959 137.787C1.86927 137.807 1.788 137.807 1.97086 137.888Z" fill="#FFD037"/>
<path d="M5.4047 136.916C5.4047 136.916 5.8517 137.483 5.20151 138.354C4.55133 139.225 4.02305 139.955 4.24655 140.502C4.24655 140.502 5.22183 138.881 6.01425 138.861C6.80666 138.84 6.27839 137.888 5.4047 136.916Z" fill="#E8004C"/>
<path opacity="0.1" d="M5.40466 136.916C5.4453 136.976 5.46562 137.037 5.50625 137.098C6.27835 138.01 6.68472 138.84 5.95326 138.881C5.26243 138.901 4.42938 140.137 4.2262 140.441C4.2262 140.461 4.24651 140.481 4.24651 140.502C4.24651 140.502 5.2218 138.881 6.01421 138.861C6.80663 138.84 6.27835 137.888 5.40466 136.916Z" fill="black"/>
<path d="M6.23769 137.645C6.23769 137.848 6.21738 138.01 6.17674 138.01C6.1361 138.01 6.11578 137.848 6.11578 137.645C6.11578 137.443 6.1361 137.544 6.17674 137.544C6.21738 137.544 6.23769 137.443 6.23769 137.645Z" fill="#FFD037"/>
<path d="M6.50184 137.888C6.31898 137.99 6.15643 138.05 6.15643 138.01C6.15643 137.969 6.27834 137.888 6.46121 137.787C6.64407 137.686 6.5628 137.767 6.58312 137.787C6.60344 137.807 6.68471 137.807 6.50184 137.888Z" fill="#FFD037"/>
<path d="M6.09553 140.441C6.09553 140.441 4.85612 140.4 4.49039 140.137C4.12466 139.874 2.60078 139.55 2.49919 139.975C2.3976 140.4 0.650224 142.082 2.03187 142.102C3.41352 142.123 5.26248 141.879 5.64853 141.657C6.03458 141.434 6.09553 140.441 6.09553 140.441Z" fill="#A8A8A8"/>
<path opacity="0.2" d="M2.0115 141.94C3.41347 141.96 5.24212 141.717 5.62817 141.494C5.91262 141.332 6.01421 140.704 6.05485 140.421H6.09549C6.09549 140.421 6.01421 141.413 5.64848 141.636C5.28275 141.859 3.43379 142.082 2.03182 142.082C1.62545 142.082 1.48323 141.94 1.50354 141.717C1.54418 141.859 1.72705 141.94 2.0115 141.94Z" fill="black"/>
<path opacity="0.1" d="M6.8879 30.0453C9.31175 30.0453 11.2767 28.086 11.2767 25.6692C11.2767 23.2523 9.31175 21.2931 6.8879 21.2931C4.46406 21.2931 2.49915 23.2523 2.49915 25.6692C2.49915 28.086 4.46406 30.0453 6.8879 30.0453Z" fill="#E8004C"/>
<path opacity="0.1" d="M218.219 65.0745C220.643 65.0745 222.608 63.1152 222.608 60.6984C222.608 58.2815 220.643 56.3223 218.219 56.3223C215.795 56.3223 213.83 58.2815 213.83 60.6984C213.83 63.1152 215.795 65.0745 218.219 65.0745Z" fill="#E8004C"/>
<path opacity="0.1" d="M139.221 16.1268C141.645 16.1268 143.61 14.1676 143.61 11.7507C143.61 9.33383 141.645 7.37457 139.221 7.37457C136.797 7.37457 134.832 9.33383 134.832 11.7507C134.832 14.1676 136.797 16.1268 139.221 16.1268Z" fill="#E8004C"/>
<path opacity="0.1" d="M15.6857 57.1732C19.7479 57.1732 23.041 53.8896 23.041 49.8391C23.041 45.7886 19.7479 42.5051 15.6857 42.5051C11.6236 42.5051 8.33051 45.7886 8.33051 49.8391C8.33051 53.8896 11.6236 57.1732 15.6857 57.1732Z" fill="#E8004C"/>
<path d="M87.4095 119.249L87.1453 118.986C87.0234 118.885 87.0234 118.702 87.125 118.601C87.125 118.601 87.125 118.601 87.1453 118.581L89.421 116.312C89.5226 116.19 89.7054 116.19 89.807 116.291C89.807 116.291 89.807 116.291 89.8273 116.312L92.103 118.581C92.2249 118.682 92.2249 118.864 92.103 118.986L91.8389 119.249C91.7373 119.371 91.5544 119.371 91.4325 119.249L90.0915 117.831V121.194C90.0915 121.356 89.9696 121.478 89.807 121.478H89.421C89.2584 121.478 89.1365 121.356 89.1365 121.194V117.831L87.7955 119.249C87.7142 119.371 87.5314 119.371 87.4095 119.249C87.4095 119.269 87.4095 119.269 87.4095 119.249Z" fill="#F6F7F9"/>
<path d="M89.6241 114.245C92.1842 114.245 94.2567 116.312 94.2567 118.864C94.2567 121.417 92.1842 123.484 89.6241 123.484C87.064 123.484 84.9915 121.417 84.9915 118.864C85.0119 116.312 87.064 114.245 89.6241 114.245ZM89.6241 113.637C86.7389 113.637 84.382 115.967 84.382 118.864C84.382 121.741 86.7186 124.091 89.6241 124.091C92.5093 124.091 94.8663 121.761 94.8663 118.864C94.8663 115.987 92.5297 113.637 89.6241 113.637Z" fill="#F6F7F9"/>
</g>
<defs>
<linearGradient id="paint0_linear" x1="159.77" y1="115.129" x2="159.77" y2="20.643" gradientUnits="userSpaceOnUse">
<stop stop-color="#808080" stop-opacity="0.25"/>
<stop offset="0.54" stop-color="#808080" stop-opacity="0.12"/>
<stop offset="1" stop-color="#808080" stop-opacity="0.1"/>
</linearGradient>
<linearGradient id="paint1_linear" x1="167.045" y1="38.1412" x2="167.045" y2="37.6449" gradientUnits="userSpaceOnUse">
<stop stop-color="#808080" stop-opacity="0.25"/>
<stop offset="0.54" stop-color="#808080" stop-opacity="0.12"/>
<stop offset="1" stop-color="#808080" stop-opacity="0.1"/>
</linearGradient>
<linearGradient id="paint2_linear" x1="112.73" y1="98.3643" x2="142.966" y2="54.4749" gradientUnits="userSpaceOnUse">
<stop stop-color="#808080" stop-opacity="0.25"/>
<stop offset="0.54" stop-color="#808080" stop-opacity="0.12"/>
<stop offset="1" stop-color="#808080" stop-opacity="0.1"/>
</linearGradient>
<linearGradient id="paint3_linear" x1="111.055" y1="100.526" x2="125.899" y2="49.5802" gradientUnits="userSpaceOnUse">
<stop stop-color="#808080" stop-opacity="0.25"/>
<stop offset="0.54" stop-color="#808080" stop-opacity="0.12"/>
<stop offset="1" stop-color="#808080" stop-opacity="0.1"/>
</linearGradient>
<linearGradient id="paint4_linear" x1="111.382" y1="101.739" x2="115.624" y2="48.8564" gradientUnits="userSpaceOnUse">
<stop stop-color="#808080" stop-opacity="0.25"/>
<stop offset="0.54" stop-color="#808080" stop-opacity="0.12"/>
<stop offset="1" stop-color="#808080" stop-opacity="0.1"/>
</linearGradient>
<linearGradient id="paint5_linear" x1="111.067" y1="102.997" x2="108.658" y2="49.9989" gradientUnits="userSpaceOnUse">
<stop stop-color="#808080" stop-opacity="0.25"/>
<stop offset="0.54" stop-color="#808080" stop-opacity="0.12"/>
<stop offset="1" stop-color="#808080" stop-opacity="0.1"/>
</linearGradient>
<linearGradient id="paint6_linear" x1="189.965" y1="42.4523" x2="200.631" y2="9.55106" gradientUnits="userSpaceOnUse">
<stop stop-color="#808080" stop-opacity="0.25"/>
<stop offset="0.54" stop-color="#808080" stop-opacity="0.12"/>
<stop offset="1" stop-color="#808080" stop-opacity="0.1"/>
</linearGradient>
<linearGradient id="paint7_linear" x1="168.904" y1="165.952" x2="168.904" y2="80.4194" gradientUnits="userSpaceOnUse">
<stop stop-color="#808080" stop-opacity="0.25"/>
<stop offset="0.54" stop-color="#808080" stop-opacity="0.12"/>
<stop offset="1" stop-color="#808080" stop-opacity="0.1"/>
</linearGradient>
<clipPath id="clip0">
<rect width="230.186" height="170" fill="white"/>
</clipPath>
</defs>
</svg>
