<svg width="100" height="100" viewBox="0 0 100 100" fill="none" xmlns="http://www.w3.org/2000/svg">
<g clip-path="url(#clip0)">
<path d="M75.3442 90.1838L75.35 90.1801C88.665 81.758 97.5 66.9031 97.5 50C97.5 23.7624 76.2376 2.5 50 2.5C23.7624 2.5 2.5 23.7624 2.5 50V50.0001V50.0002V50.0003V50.0003V50.0004V50.0005V50.0006V50.0007V50.0008V50.0009V50.001V50.001V50.0011V50.0012V50.0013V50.0014V50.0015V50.0016V50.0016V50.0017V50.0018V50.0019V50.002V50.0021V50.0022V50.0023V50.0023V50.0024V50.0025V50.0026V50.0027V50.0028V50.0029V50.0029V50.003V50.0031V50.0032V50.0033V50.0034V50.0035V50.0036V50.0036V50.0037V50.0038V50.0039V50.004V50.0041V50.0042V50.0042V50.0043V50.0044V50.0045V50.0046V50.0047V50.0048V50.0049V50.0049V50.005V50.0051V50.0052V50.0053V50.0054V50.0055V50.0055V50.0056V50.0057V50.0058V50.0059V50.006V50.0061V50.0062V50.0062V50.0063V50.0064V50.0065V50.0066V50.0067V50.0068V50.0068V50.0069V50.007V50.0071V50.0072V50.0073V50.0074V50.0075V50.0075V50.0076V50.0077V50.0078V50.0079V50.008V50.0081V50.0081V50.0082V50.0083V50.0084V50.0085V50.0086V50.0087V50.0088V50.0088V50.0089V50.009V50.0091V50.0092V50.0093V50.0094V50.0094V50.0095V50.0096V50.0097V50.0098V50.0099V50.01V50.0101V50.0101V50.0102V50.0103V50.0104V50.0105V50.0106V50.0107V50.0107V50.0108V50.0109V50.011V50.0111V50.0112V50.0113V50.0114V50.0114V50.0115V50.0116V50.0117V50.0118V50.0119V50.012V50.012V50.0121V50.0122V50.0123V50.0124V50.0125V50.0126V50.0127V50.0127V50.0128V50.0129V50.013V50.0131V50.0132V50.0133V50.0133V50.0134V50.0135V50.0136V50.0137V50.0138V50.0139V50.014V50.014V50.0141V50.0142V50.0143V50.0144V50.0145V50.0146V50.0146V50.0147V50.0148V50.0149V50.015V50.0151V50.0152V50.0153V50.0153V50.0154V50.0155V50.0156V50.0157V50.0158V50.0159V50.0159V50.016V50.0161V50.0162V50.0163V50.0164V50.0165V50.0166V50.0166V50.0167V50.0168V50.0169V50.017V50.0171V50.0172V50.0173V50.0173V50.0174V50.0175V50.0176V50.0177V50.0178V50.0179V50.0179V50.018V50.0181V50.0182V50.0183V50.0184V50.0185V50.0186V50.0186V50.0187V50.0188V50.0189V50.019V50.0191V50.0192V50.0192V50.0193V50.0194V50.0195V50.0196V50.0197V50.0198V50.0198V50.0199V50.02V50.0201V50.0202V50.0203V50.0204V50.0205V50.0205V50.0206V50.0207V50.0208V50.0209V50.021V50.0211V50.0211V50.0212V50.0213V50.0214V50.0215V50.0216V50.0217V50.0218V50.0218V50.0219V50.022V50.0221V50.0222V50.0223V50.0224V50.0224V50.0225V50.0226V50.0227V50.0228V50.0229V50.023V50.0231V50.0231V50.0232V50.0233V50.0234V50.0235V50.0236V50.0237V50.0238V50.0238V50.0239V50.024V50.0241V50.0242V50.0243V50.0244V50.0244V50.0245V50.0246V50.0247V50.0248V50.0249V50.025V50.0251V50.0251V50.0252V50.0253V50.0254V50.0255V50.0256V50.0257V50.0257V50.0258V50.0259V50.026V50.0261V50.0262V50.0263V50.0263V50.0264V50.0265V50.0266V50.0267V50.0268V50.0269V50.027V50.027V50.0271V50.0272V50.0273V50.0274V50.0275V50.0276V50.0276V50.0277V50.0278V50.0279V50.028V50.0281V50.0282V50.0283V50.0283V50.0284V50.0285V50.0286V50.0287V50.0288V50.0289V50.0289V50.029V50.0291V50.0292V50.0293V50.0294V50.0295V50.0296V50.0296V50.0297V50.0298V50.0299V50.03V50.0301V50.0302V50.0303V50.0303V50.0304V50.0305V50.0306V50.0307V50.0308V50.0309V50.0309V50.031V50.0311V50.0312V50.0313V50.0314V50.0315V50.0316V50.0316V50.0317V50.0318V50.0319V50.032V50.0321V50.0322V50.0322V50.0323V50.0324V50.0325V50.0326V50.0327V50.0328V50.0328V50.0329V50.033V50.0331V50.0332V50.0333V50.0334V50.0335V50.0335V50.0336V50.0337V50.0338V50.0339V50.034V50.0341V50.0341V50.0342V50.0343V50.0344V50.0345V50.0346V50.0347V50.0348V50.0348V50.0349V50.035V50.0351V50.0352V50.0353V50.0354V50.0354V50.0355V50.0356V50.0357V50.0358V50.0359V50.036V50.0361V50.0361V50.0362V50.0363V50.0364V50.0365V50.0366V50.0367V50.0368V50.0368V50.0369V50.037V50.0371V50.0372V50.0373V50.0374V50.0374V50.0375V50.0376V50.0377V50.0378V50.0379V50.038V50.0381V50.0381V50.0382V50.0383V50.0384V50.0385V50.0386V50.0387V50.0387V50.0388V50.0389V50.039V50.0391V50.0392V50.0393V50.0393V50.0394V50.0395V50.0396V50.0397V50.0398V50.0399V50.04V50.04V50.0401V50.0402V50.0403V50.0404V50.0405V50.0406V50.0406V50.0407V50.0408V50.0409V50.041V50.0411V50.0412V50.0413V50.0413V50.0414V50.0415V50.0416V50.0417V50.0418V50.0419V50.042V50.042V50.0421V50.0422V50.0423V50.0424V50.0425V50.0426V50.0426V50.0427V50.0428V50.0429V50.043V50.0431V50.0432V50.0433V50.0433V50.0434V50.0435V50.0436V50.0437V50.0438V50.0439V50.0439V50.0439V50.044V50.0441V50.0442V50.0443L75.3442 90.1838ZM75.3442 90.1838C74.1159 90.9654 72.8269 91.6942 71.5203 92.3546L71.5041 92.3628M75.3442 90.1838L71.5041 92.3628M71.5041 92.3628L71.4879 92.3712M71.5041 92.3628L71.4879 92.3712M71.4879 92.3712C71.3691 92.4334 71.242 92.4957 71.0775 92.5761C70.9303 92.648 70.7486 92.7365 70.5648 92.8323C70.4239 92.9023 70.302 92.9586 70.1541 93.0268C70.068 93.0665 69.9733 93.1102 69.8609 93.1631C67.2624 94.364 64.562 95.3166 61.7714 96.0333C61.6362 96.0653 61.5104 96.0994 61.4285 96.1215C61.3406 96.1451 61.2897 96.1586 61.249 96.1685M71.4879 92.3712L61.249 96.1685M61.249 96.1685C61.1501 96.1895 61.0613 96.2117 60.9992 96.2278H60.994L60.8081 96.2743C60.7644 96.2841 60.7243 96.2943 60.6882 96.3043C60.4663 96.3595 60.2353 96.4064 59.9421 96.465C59.82 96.4878 59.7033 96.5134 59.6316 96.529C59.538 96.5493 59.4958 96.5582 59.464 96.564L59.3428 96.586L59.2855 96.6024L59.2805 96.6032L59.247 96.608L59.152 96.6215L59.0583 96.6424L59.0571 96.6426C59.0549 96.6431 59.0498 96.6441 59.0402 96.6459C59.032 96.6475 59.0234 96.6491 59.0121 96.6511C59.0019 96.6529 58.9897 96.6551 58.9738 96.6579L58.9642 96.6596C58.9099 96.6691 58.8134 96.6861 58.7045 96.7096L58.5252 96.7454L58.0869 96.8251C57.9525 96.8464 57.8221 96.8676 57.6966 96.8879L57.6916 96.8887C57.56 96.9101 57.4338 96.9305 57.3054 96.9509C57.2038 96.9654 57.1063 96.9799 57.0149 96.9934L57.0078 96.9945C56.9145 97.0083 56.8274 97.0212 56.7387 97.0339L56.4059 97.0755L56.0508 97.1199L55.901 97.1386L55.8792 97.1441C55.8735 97.1449 55.8676 97.1457 55.8618 97.1465C55.8418 97.1494 55.8175 97.153 55.7896 97.1577C55.7482 97.1615 55.6735 97.1689 55.585 97.1816C55.3623 97.2076 55.1266 97.2339 54.8823 97.261C54.8139 97.2672 54.7419 97.2734 54.6651 97.2801C54.5897 97.2867 54.5096 97.2936 54.4311 97.3007C54.2864 97.311 54.1531 97.3248 54.0596 97.3345L54.0475 97.3358C53.9404 97.3468 53.8787 97.353 53.8233 97.3569C53.6561 97.3665 53.4953 97.38 53.3723 97.3903C53.2333 97.4019 53.1347 97.4099 53.0418 97.4151L53.0073 97.417L52.9729 97.4199C52.9412 97.4225 52.9047 97.4244 52.8131 97.4284L52.8019 97.4289C52.7269 97.4321 52.609 97.4372 52.4792 97.4475C52.0963 97.4726 51.7138 97.4852 51.3314 97.4852C51.1718 97.4852 51.0193 97.4905 50.9153 97.494C50.7974 97.4979 50.7281 97.5 50.6657 97.5H50.6644H50.6631H50.6618H50.6605H50.6592H50.6579H50.6566H50.6553H50.654H50.6527H50.6514H50.6501H50.6488H50.6475H50.6462H50.6449H50.6436H50.6423H50.641H50.6397H50.6384H50.6371H50.6358H50.6345H50.6332H50.6319H50.6306H50.6293H50.628H50.6267H50.6254H50.6241H50.6228H50.6215H50.6202H50.6189H50.6176H50.6163H50.615H50.6137H50.6124H50.6111H50.6098H50.6085H50.6072H50.6059H50.6046H50.6033H50.602H50.6007H50.5994H50.5981H50.5968H50.5955H50.5942H50.5929H50.5916H50.5903H50.589H50.5877H50.5864H50.5851H50.5838H50.5825H50.5812H50.5799H50.5786H50.5773H50.576H50.5747H50.5734H50.5721H50.5708H50.5695H50.5682H50.5669H50.5656H50.5643H50.563H50.5617H50.5604H50.5591H50.5578H50.5565H50.5552H50.5539H50.5526H50.5513H50.55H50.5487H50.5474H50.5461H50.5448H50.5435H50.5422H50.5409H50.5396H50.5383H50.537H50.5357H50.5344H50.5331H50.5318H50.5305H50.5292H50.5279H50.5266H50.5253H50.524H50.5227H50.5214H50.5201H50.5188H50.5175H50.5162H50.5149H50.5136H50.5123H50.511H50.5097H50.5084H50.5071H50.5058H50.5045H50.5032H50.5019H50.5006H50.4993H50.498H50.4967H50.4954H50.4941H50.4928H50.4915H50.4902H50.4889H50.4876H50.4863H50.485H50.4837H50.4824H50.4811H50.4798H50.4785H50.4772H50.4759H50.4746H50.4733H50.472H50.4707H50.4694H50.4681H50.4668H50.4655H50.4642H50.4629H50.4616H50.4603H50.459H50.4577H50.4564H50.4551H50.4538H50.4525H50.4512H50.4499H50.4486H50.4473H50.446H50.4447H50.4434H50.4421H50.4408H50.4395H50.4382H50.4369H50.4356H50.4343H50.433H50.4317H50.4304H50.4291H50.4277H50.4265H50.4252H50.4239H50.4226H50.4212H50.4199H50.4187H50.4174H50.416H50.4147H50.4134H50.4122H50.4109H50.4095H50.4082H50.4069H50.4056H50.4044H50.403H50.4017H50.4004H50.3991H50.3978H50.3965H50.3952H50.3939H50.3926H50.3913H50.39H50.3887H50.3874H50.3861H50.3848H50.3835H50.3822H50.3809H50.3796H50.3783H50.377H50.3757H50.3744H50.3731H50.3718H50.3705H50.3692H50.3679H50.3666H50.3653H50.364H50.3627H50.3614H50.3601H50.3588H50.3575H50.3562H50.3549H50.3536H50.3523H50.351H50.3497H50.3484H50.3471H50.3458H50.3445H50.3432H50.3419H50.3406H50.3393H50.338H50.3367H50.3354H50.3341H50.3328H50.3315H50.3302H50.3289H50.3276H50.3263H50.325H50.3237H50.3224H50.3211H50.3198H50.3185H50.3172H50.3159H50.3146H50.3133H50.312H50.3107H50.3094H50.3081H50.3068H50.3055H50.3042H50.3029H50.3016H50.3003H50.299H50.2977H50.2964H50.2951H50.2938H50.2925H50.2912H50.2899H50.2886H50.2873H50.286H50.2847H50.2834H50.2821H50.2808H50.2795H50.2782H50.2769H50.2756H50.2743H50.273H50.2717H50.2704H50.2691H50.2678H50.2665H50.2652H50.2639H50.2626H50.2613H50.26H50.2587H50.2574H50.2561H50.2548H50.2535H50.2522H50.2509H50.2496H50.2483H50.247H50.2457H50.2444H50.2431H50.2418H50.2405H50.2392H50.2379H50.2366H50.2353H50.234H50.2327H50.2314H50.2301H50.2288H50.2275H50.2262H50.2249H50.2236H50.2223H50.221H50.2197H50.2184H50.2171H50.2158H50.2145H50.2132H50.2119H50.2106H50.2093H50.208H50.2067H50.2054H50.2041H50.2028H50.2015H50.2002H50.1989H50.1976H50.1963H50.195H50.1937H50.1924H50.1911H50.1898H50.1885H50.1872H50.1859H50.1846H50.1833H50.182H50.1807H50.1794H50.1781H50.1768H50.1755H50.1742H50.1729H50.1716H50.1703H50.169H50.1677H50.1664H50.1651H50.1638H50.1625H50.1612H50.1599H50.1586H50.1573H50.156H50.1547H50.1534H50.1521H50.1508H50.1495H50.1482H50.1469H50.1456H50.1443H50.143H50.1417H50.1404H50.1391H50.1378H50.1365H50.1352H50.1339H50.1326H50.1313H50.13H50.1287H50.1274H50.1261H50.1248H50.1235H50.1222H50.1209H50.1196H50.1183H50.117H50.1157H50.1144H50.1131H50.1118H50.1105H50.1092H50.1079H50.1066H50.1053H50.104H50.1027H50.1014H50.1001H50.0988H50.0975H50.0962H50.0949H50.0936H50.0923H50.091H50.0897H50.0884H50.0871H50.0858H50.0845H50.0832H50.0819H50.0806H50.0793H50.078H50.0767H50.0754H50.0741H50.0728H50.0715H50.0702H50.0689H50.0676H50.0663H50.065H50.0637H50.0624H50.0611H50.0598H50.0585H50.0572H50.0559H50.0546H50.0533H50.052H50.0507H50.0494H50.0481H50.0468H50.0455H50.0442H50.0429H50.0416H50.0403H50.039H50.0377H50.0364H50.0351H50.0338H50.0325H50.0312H50.0299H50.0286H50.0273H50.026H50.0247H50.0234H50.0221H50.0208H50.0195H50.0182H50.0169H50.0156H50.0143H50.013H50.0117H50.0104H50.0091H50.0078H50.0065H50.0052H50.0039H50.0026H50.0013H50H49.9987C23.7769 97.5141 2.51478 76.2672 2.5 50.0444L61.249 96.1685Z" fill="#FFCE00" stroke="#E6E2E7" stroke-width="5"/>
<path opacity="0.2" d="M81.6716 30.503C79.0976 32.3817 76.8639 34.9112 74.8965 37.8846C69.3195 46.3462 66.0207 58.4467 64.0681 69.7633C63.5651 72.6479 63.1657 75.4882 62.8255 78.2101C61.6716 87.5296 61.3757 95.3698 61.287 98.7278C60.9911 98.8018 60.6953 98.861 60.3994 98.9201C60.4438 96.361 60.6361 90.8136 61.287 83.8905C61.3757 83.003 61.4645 82.0858 61.5681 81.1391C61.6864 80.0888 61.8047 79.0089 61.9379 77.9142C62.2189 75.6509 62.5444 73.284 62.9438 70.9024C63.003 70.5325 63.0621 70.1479 63.1361 69.7781C65.6065 55.3106 69.3935 44.3343 74.4231 36.9527C76.4645 33.9793 78.6982 31.5828 81.1391 29.7929L81.6716 30.503Z" fill="black"/>
<path opacity="0.2" d="M81.1243 69.8965C77.2781 72.7219 75.1183 78.9349 73.9201 85C73.3136 88.1657 72.8846 91.361 72.6479 94.5858C72.3373 94.7485 72.0118 94.8965 71.7012 95.0592C71.9379 91.3905 72.426 87.7515 73.1657 84.1568C74.4379 78.1509 76.6716 72.071 80.6065 69.1864L81.1243 69.8965Z" fill="black"/>
<path opacity="0.2" d="M86.642 30.4882C89.1011 30.4882 91.0947 28.4946 91.0947 26.0355C91.0947 23.5764 89.1011 21.5828 86.642 21.5828C84.1829 21.5828 82.1893 23.5764 82.1893 26.0355C82.1893 28.4946 84.1829 30.4882 86.642 30.4882Z" fill="black"/>
<path opacity="0.2" d="M85.2071 68.8018C87.6663 68.8018 89.6598 66.8082 89.6598 64.3491C89.6598 61.89 87.6663 59.8964 85.2071 59.8964C82.748 59.8964 80.7545 61.89 80.7545 64.3491C80.7545 66.8082 82.748 68.8018 85.2071 68.8018Z" fill="black"/>
<path opacity="0.2" d="M68.9793 33.5059C69.926 38.8313 67.8402 43.6538 67.8402 43.6538C67.8402 43.6538 64.2308 39.8373 63.284 34.5118C62.3373 29.1864 64.4231 24.3639 64.4231 24.3639C64.4231 24.3639 68.0325 28.1805 68.9793 33.5059Z" fill="black"/>
<path opacity="0.2" d="M83.7722 46.1538C78.6982 48.0178 73.5947 46.8195 73.5947 46.8195C73.5947 46.8195 76.7308 42.6183 81.8047 40.7544C86.8787 38.8905 91.9823 40.0888 91.9823 40.0888C91.9823 40.0888 88.8462 44.2899 83.7722 46.1538Z" fill="black"/>
<path opacity="0.2" d="M84.6302 80.0739C81.0651 81.3757 77.4852 80.5325 77.4852 80.5325C77.4852 80.5325 79.6746 77.574 83.2397 76.2722C86.8048 74.9704 90.3846 75.8136 90.3846 75.8136C90.3846 75.8136 88.1953 78.7722 84.6302 80.0739Z" fill="black"/>
<path d="M26.9083 26.6568C34.142 14.4379 48.4468 13.8757 48.4468 13.8757C48.4468 13.8757 62.3817 12.1006 71.3314 30.6953C79.6598 48.0325 91.1687 64.7781 73.1805 68.8461L69.9261 58.7426L67.9142 69.6006C65.3551 69.7781 62.7811 69.8225 60.2219 69.7337C40.9616 69.1124 22.6184 69.9112 23.2101 63.0029C23.9793 53.8018 19.9409 38.4024 26.9083 26.6568Z" fill="#3D1152"/>
<path d="M49.8373 60.0296C59.9353 60.0296 68.1213 51.8436 68.1213 41.7456C68.1213 31.6476 59.9353 23.4615 49.8373 23.4615C39.7393 23.4615 31.5533 31.6476 31.5533 41.7456C31.5533 51.8436 39.7393 60.0296 49.8373 60.0296Z" fill="#E7E1E6"/>
<path d="M58.6538 51.8935C58.6538 51.8935 51.1982 73.5651 60.0148 79.6598C68.8314 85.7544 45.784 89.8225 39.6893 85.7544C33.5947 81.6864 28.8461 74.926 28.8461 74.926C28.8461 74.926 44.4231 59.3491 41.0355 50.5473L58.6538 51.8935Z" fill="#E7E1E6"/>
<path d="M72.1893 84.4083L70.9024 95.429C68.1509 96.7012 65.2958 97.7071 62.3521 98.4615C62.1597 98.5059 61.9674 98.5651 61.7751 98.6095C61.6272 98.6391 61.4941 98.6834 61.3461 98.713C61.3313 98.713 61.3166 98.7278 61.287 98.7278C60.9911 98.8018 60.6952 98.861 60.3994 98.9201C60.2367 98.9497 60.0592 98.9941 59.8964 99.0237C59.7929 99.0533 59.6893 99.0681 59.5858 99.0828C59.4526 99.1124 59.3343 99.1272 59.2012 99.1568C59.1272 99.1716 59.0532 99.1864 58.9793 99.2012C58.8166 99.2308 58.6538 99.2604 58.4911 99.29C58.21 99.3343 57.9438 99.3787 57.6627 99.4231C57.4556 99.4527 57.2633 99.4823 57.0562 99.5118C56.8195 99.5414 56.5828 99.571 56.3461 99.6006C56.287 99.6154 56.213 99.6154 56.1538 99.6302C56.0651 99.645 55.9911 99.645 55.9023 99.6598C55.6509 99.6894 55.3846 99.7189 55.1183 99.7485C54.9556 99.7633 54.7781 99.7781 54.6154 99.7929C54.3935 99.8077 54.1864 99.8373 53.9645 99.8521C53.6982 99.8669 53.4319 99.8965 53.1657 99.9113C52.9881 99.926 52.8254 99.926 52.6479 99.9408C52.2041 99.9704 51.7603 99.9852 51.3166 99.9852C51.0947 99.9852 50.8728 100 50.6509 100C50.429 100 50.2071 100 49.9852 100C31.8491 100 15.1479 90.1775 6.30176 74.3491C8.53549 72.8255 10.858 71.4349 13.2544 70.1923C14.0237 69.8077 15.0592 69.571 16.2426 69.4527C18.9201 69.1716 22.3816 69.4823 25.3994 70.0592C28.1361 70.5769 30.5029 71.3018 31.5532 71.997C34.2603 73.787 45.1035 79.6894 45.1035 79.6894C45.1035 79.6894 54.5858 81.0503 58.4171 78.2249C59.3195 77.5592 60.5621 77.5592 61.9379 77.929C62.2337 78.003 62.5296 78.1065 62.8254 78.2249C63.6686 78.5503 64.4822 78.9349 65.2663 79.3787C65.2811 79.3935 65.2958 79.3935 65.3254 79.4083C65.6065 79.5562 65.8728 79.7337 66.1538 79.8965C69.3639 81.8491 72.1893 84.4083 72.1893 84.4083Z" fill="#3D1152"/>
<path d="M17.5 87.9882C17.0562 79.8521 16.568 73.1953 16.2574 69.4379C18.9349 69.1568 22.3964 69.4675 25.4142 70.0444C27.8698 74.9556 33.3876 86.2722 38.4615 98.6538C30.71 96.8195 23.5207 93.1657 17.5 87.9882Z" fill="#3D1152"/>
<path d="M65.0887 79.3343L65.2663 79.4231C65.2515 79.6154 65.2071 79.7338 65.0887 79.3343Z" fill="#2F2E41"/>
<path d="M65.3254 79.3935C65.3254 79.4083 65.3254 79.4378 65.3254 79.4526L65.2662 79.4231C65.2662 79.4083 65.2662 79.3787 65.2662 79.3639C65.281 79.0976 65.2662 78.8018 65.3254 79.3935Z" fill="#2F2E41"/>
<path d="M76.6864 92.2929C75.3846 93.1213 74.0236 93.8905 72.6479 94.5858C72.3372 94.7485 72.0118 94.8964 71.7012 95.0592C71.4349 95.1923 71.1686 95.3106 70.9171 95.429C68.1656 96.7012 65.3106 97.7071 62.3668 98.4615C64.497 91.5828 65.8432 84.7781 65.3402 79.4527L66.1538 79.8669L70.1035 81.8935C71.2426 82.4704 72.2781 83.2396 73.1657 84.142C73.4319 84.4083 73.6982 84.6893 73.9349 84.9852C75.6065 87.0118 76.568 89.5266 76.7012 92.145C76.6864 92.2041 76.6864 92.2485 76.6864 92.2929Z" fill="#3D1152"/>
<path d="M32.1302 25.4734L46.2574 18.0769L55.1184 19.4526C61.5385 20.4438 66.716 25.2663 68.1509 31.6124L69.8077 38.9349L59.7633 38.5503L56.9527 31.997V38.4467L52.3077 38.2692L49.6154 27.8402L47.929 38.9497L31.4349 38.6095L32.1302 25.4734Z" fill="#3D1152"/>
</g>
<defs>
<clipPath id="clip0">
<rect width="100" height="100" fill="white"/>
</clipPath>
</defs>
</svg>
