<svg width="242" height="170" viewBox="0 0 242 170" fill="none" xmlns="http://www.w3.org/2000/svg">
<g clip-path="url(#clip0)">
<path opacity="0.1" d="M148.926 20.6075C138.539 27.8807 125.1 27.4093 113.299 23.6156C101.498 19.8218 90.684 13.1098 79.1746 8.32835C69.5947 4.33258 59.5212 1.70614 49.201 0.516391C34.5507 -1.16722 18.1953 0.875561 8.0096 12.6384C-3.36513 25.7257 -2.49015 49.3187 9.80443 61.3509C16.0639 67.4568 24.2528 70.4649 31.3873 75.2239C38.5217 79.9829 45.1402 87.9071 44.5344 97.1109C43.9735 105.641 37.4224 112.174 30.6469 116.282C25.4195 119.447 18.9581 122.926 18.3299 129.481C17.7241 135.834 23.131 140.817 28.3136 143.646C45.2075 152.895 66.0051 152.805 82.8316 143.421C88.8218 140.054 94.3409 135.609 100.623 133.005C117.158 126.159 135.353 133.05 152.852 135.565C167.727 137.697 182.871 136.597 197.274 132.332C205.935 129.773 214.639 125.867 220.719 118.571C225.117 113.318 227.854 106.651 230.412 100.074C233.149 93.0702 235.774 85.999 238.309 78.9054C239.834 74.6403 241.315 70.2853 241.719 65.7283C242.437 57.4449 239.431 49.2738 235.37 42.2924C225.7 25.7032 209.434 14.0526 191.8 11.0895C174.166 8.12632 155.522 13.9179 141.859 26.5563" fill="#E8004C"/>
<g opacity="0.1">
<path opacity="0.1" d="M121.286 23.2114L120.433 72.8219C120.433 72.8219 151.371 72.8219 177.711 81.3746L178.227 31.2478C178.227 31.2478 136.003 21.1686 121.286 23.2114Z" fill="black"/>
</g>
<path d="M120.613 22.3135L119.76 71.924C119.76 71.924 150.699 71.924 177.038 80.4767L177.554 30.3499C177.554 30.3499 135.33 20.2707 120.613 22.3135Z" fill="#F7F7FD"/>
<g opacity="0.1">
<path opacity="0.1" d="M105.76 24.6257L106.613 74.2361C106.613 74.2361 75.6745 74.2361 49.3353 82.7889L48.8193 32.6621C48.8418 32.6845 91.0652 22.5829 105.76 24.6257Z" fill="black"/>
</g>
<path d="M106.433 23.5032L107.286 73.1137C107.286 73.1137 76.3475 73.1137 50.0083 81.6665L49.4923 31.5397C49.5147 31.5621 91.7381 21.4605 106.433 23.5032Z" fill="#F7F7FD"/>
<g opacity="0.2">
<path opacity="0.2" d="M92.5459 29.2948L92.9946 55.8959C92.9946 55.8959 76.3924 55.8959 62.2806 60.4754L62.0114 33.6049C62.0114 33.6049 84.6487 28.1949 92.5459 29.2948Z" fill="#E8004C"/>
</g>
<g opacity="0.1">
<path opacity="0.1" d="M196.467 41.4618V90.5559C196.467 90.5559 206.562 89.3662 227.741 115.541L229.626 66.4466C229.626 66.4241 207.572 42.6515 196.467 41.4618Z" fill="black"/>
</g>
<path d="M196.018 40.7883V89.8825C196.018 89.8825 206.114 88.6927 227.293 114.867L229.177 65.7731C229.177 65.7507 207.123 41.9781 196.018 40.7883Z" fill="#F7F7FD"/>
<g opacity="0.1">
<path opacity="0.1" d="M33.2717 41.6862V90.7804C33.2717 90.7804 23.1758 89.5906 1.99675 115.765L0.112183 66.6486C0.112183 66.6486 22.1662 42.876 33.2717 41.6862Z" fill="black"/>
</g>
<path d="M33.9446 40.7883V89.8825C33.9446 89.8825 23.8487 88.6927 2.66973 114.867L0.785156 65.7507C0.785156 65.7507 22.8391 41.9781 33.9446 40.7883Z" fill="#F7F7FD"/>
<g opacity="0.2">
<path opacity="0.2" d="M128.891 32.6396L149.846 36.3885V39.4414L128.891 35.4232V32.6396Z" fill="#E8004C"/>
</g>
<path d="M88.5076 62.159L67.553 65.9078V68.9608L88.5076 64.9426V62.159Z" fill="white"/>
<path d="M129.16 38.319L167.48 46.2432V49.2962L129.16 41.1026V38.319Z" fill="white"/>
<path d="M129.16 44.0209L167.48 51.9451V54.998L129.16 46.8044V44.0209Z" fill="white"/>
<g opacity="0.2">
<path opacity="0.2" d="M204.947 56.6367V59.3305L213.159 66.0201L213.54 63.7079L204.947 56.6367Z" fill="#E8004C"/>
</g>
<path d="M204.947 82.6766V85.3704L213.159 92.0599L213.54 89.7478L204.947 82.6766Z" fill="white"/>
<path d="M205.082 61.261L204.947 63.9548L220.473 78.6135L220.226 75.5156L205.082 61.261Z" fill="white"/>
<path d="M204.947 66.267V68.8485L220.473 83.7541V80.4093L204.947 66.267Z" fill="white"/>
<g opacity="0.2">
<path opacity="0.2" d="M24.8808 57.2204L25.0154 59.9141L9.49011 74.5728L9.7369 71.475L24.8808 57.2204Z" fill="#E8004C"/>
</g>
<g opacity="0.2">
<path opacity="0.2" d="M25.0154 62.2263V64.8079L9.49011 79.7134V76.3687L25.0154 62.2263Z" fill="#E8004C"/>
</g>
<path opacity="0.1" d="M45.9028 141.917C52.9655 141.917 58.691 140.882 58.691 139.605C58.691 138.328 52.9655 137.293 45.9028 137.293C38.8401 137.293 33.1146 138.328 33.1146 139.605C33.1146 140.882 38.8401 141.917 45.9028 141.917Z" fill="#E8004C"/>
<path d="M15.5701 126.944C15.5701 126.944 16.8041 128.561 15.0092 130.985C13.2144 133.409 11.7112 135.475 12.317 137.001C12.317 137.001 15.0317 132.489 17.2528 132.422C19.4739 132.354 18.0156 129.661 15.5701 126.944Z" fill="#E8004C"/>
<path opacity="0.1" d="M15.5701 126.944C15.6822 127.102 15.772 127.259 15.8169 127.461C17.9707 129.997 19.1373 132.354 17.0508 132.422C15.1214 132.467 12.7881 135.946 12.2496 136.799C12.2721 136.866 12.2945 136.934 12.3169 137.001C12.3169 137.001 15.0316 132.489 17.2527 132.422C19.4738 132.354 18.0155 129.661 15.5701 126.944Z" fill="black"/>
<path d="M17.8586 128.987C17.8586 129.548 17.7913 130.02 17.724 130.02C17.6567 130.02 17.5894 129.571 17.5894 128.987C17.5894 128.404 17.6791 128.695 17.7464 128.695C17.8137 128.695 17.8586 128.426 17.8586 128.987Z" fill="#FFD037"/>
<path d="M18.6439 129.661C18.1504 129.93 17.7017 130.087 17.6792 130.02C17.6568 129.952 18.0157 129.683 18.5093 129.391C19.0029 129.099 18.801 129.324 18.8459 129.391C18.8907 129.459 19.16 129.391 18.6439 129.661Z" fill="#FFD037"/>
<path d="M9.06388 126.944C9.06388 126.944 7.82993 128.561 9.62476 130.985C11.4196 133.409 12.9228 135.475 12.317 137.001C12.317 137.001 9.60233 132.489 7.38122 132.422C5.16012 132.354 6.64086 129.661 9.06388 126.944Z" fill="#E8004C"/>
<path opacity="0.1" d="M9.06388 126.944C8.9517 127.102 8.86196 127.281 8.81709 127.461C6.66329 129.997 5.49665 132.354 7.58314 132.422C9.51258 132.467 11.8459 135.946 12.3843 136.799C12.3619 136.866 12.3394 136.934 12.317 137.001C12.317 137.001 9.60233 132.489 7.38122 132.422C5.16012 132.354 6.64086 129.661 9.06388 126.944Z" fill="black"/>
<path d="M6.77539 128.987C6.77539 129.548 6.8427 130.02 6.91 130.02C6.97731 130.02 7.04461 129.571 7.04461 128.987C7.04461 128.404 6.95487 128.695 6.88757 128.695C6.82026 128.695 6.77539 128.426 6.77539 128.987Z" fill="#FFD037"/>
<path d="M5.99023 129.661C6.48381 129.93 6.93252 130.087 6.95495 130.02C6.97739 129.952 6.61842 129.683 6.12484 129.391C5.63127 129.099 5.83318 129.324 5.78831 129.391C5.74344 129.459 5.49665 129.391 5.99023 129.661Z" fill="#FFD037"/>
<path d="M7.15698 136.777C7.15698 136.777 10.612 136.664 11.6441 135.924C12.6761 135.183 16.9388 134.307 17.208 135.497C17.4773 136.687 22.3906 141.401 18.4869 141.423C14.5831 141.446 9.44539 140.817 8.41336 140.189C7.38134 139.56 7.15698 136.777 7.15698 136.777Z" fill="#A8A8A8"/>
<path opacity="0.2" d="M18.5765 141.019C14.6952 141.042 9.53504 140.413 8.50301 139.785C7.71777 139.313 7.40368 137.585 7.2915 136.777H7.17932C7.17932 136.777 7.40367 139.56 8.4357 140.189C9.46773 140.817 14.6279 141.468 18.5092 141.424C19.631 141.424 20.0124 141.019 19.9899 140.413C19.8329 140.795 19.4066 141.019 18.5765 141.019Z" fill="black"/>
<path opacity="0.1" d="M134.724 109.278C146.372 109.278 155.814 107.66 155.814 105.664C155.814 103.667 146.372 102.049 134.724 102.049C123.077 102.049 113.635 103.667 113.635 105.664C113.635 107.66 123.077 109.278 134.724 109.278Z" fill="#E8004C"/>
<path d="M130.462 56.8837C130.35 57.1081 130.282 57.3326 130.237 57.5796C130.215 57.6469 130.215 57.6918 130.193 57.7591C130.058 58.455 129.968 59.3081 129.923 59.8019C129.901 60.0489 129.878 60.206 129.878 60.206C129.878 60.206 125.01 59.8693 125.863 59.0611C126.087 58.8367 126.244 58.5673 126.311 58.253C126.334 58.1632 126.356 58.0734 126.379 57.9836C126.423 57.7816 126.446 57.5796 126.446 57.3551C126.446 57.3102 126.446 57.2428 126.446 57.1979C126.446 56.8612 126.446 56.5245 126.401 56.1878C126.401 56.1878 127.971 56.1878 129.183 56.3225C129.991 56.4572 130.619 56.6143 130.462 56.8837Z" fill="#D38884"/>
<path d="M122.026 80.0502C120.366 80.0053 121.6 76.5483 121.779 76.0768C121.959 75.6054 121.487 74.483 121.487 74.483C121.487 74.483 120.927 71.1831 120.927 70.9811C120.904 70.5321 120.837 70.0832 120.747 69.6567C120.68 69.2077 120.77 68.7587 120.971 68.3547C121.151 68.0628 121.128 66.8506 121.128 66.8506V65.3017L121.51 64.8079L122.452 65.7058L122.721 65.9527L123.193 67.6812L123.036 70.173L122.946 72.5974L123.507 75.9422C123.507 75.9197 123.709 80.1175 122.026 80.0502Z" fill="#D38884"/>
<path opacity="0.1" d="M122.565 66.1098L121.151 65.5262V65.3017L121.51 64.8079L122.452 65.7058L122.565 66.1098Z" fill="black"/>
<path d="M121.914 62.563C121.735 63.012 121.6 63.4834 121.51 63.9548C121.443 64.4038 121.308 64.8528 121.129 65.2793L122.699 65.9303L121.914 62.563Z" fill="#4C4981"/>
<path d="M121.914 62.563C121.735 63.012 121.6 63.4834 121.51 63.9548C121.443 64.4038 121.308 64.8528 121.129 65.2793L122.699 65.9303L121.914 62.563Z" fill="#3E1151"/>
<path d="M134.41 96.9088L134.276 97.1781C134.276 97.1781 134.141 98.0985 134.141 98.121C134.141 98.1434 133.737 98.7495 133.737 98.7495L132.705 98.974L132.279 98.9291C132.257 98.6822 132.212 98.4128 132.167 98.1659C132.144 98.0985 132.144 98.0312 132.122 97.9414C131.965 97.3577 131.718 96.819 131.404 96.3251C131.404 96.3251 130.641 94.4395 130.372 94.1925C130.103 93.9456 129.071 91.4763 129.183 90.8702C129.25 90.5335 129.183 89.4335 129.138 88.5356C129.093 87.7948 129.048 87.1662 129.048 87.1662L131.628 85.6398L131.92 86.1112L132.1 86.403C132.1 86.403 132.1 86.4479 132.1 86.5377V86.5601C132.077 86.9418 131.987 87.3234 131.875 87.6826C131.875 87.6826 131.673 89.0743 131.875 89.3213C132.077 89.5682 132.683 92.8456 132.817 94.3497C132.817 94.3946 132.817 94.4395 132.817 94.4844C132.862 95.1802 133.311 95.8088 133.737 96.2578C133.76 96.2802 133.805 96.3251 133.827 96.3476C134.007 96.572 134.208 96.7516 134.41 96.9088Z" fill="#D38884"/>
<path opacity="0.1" d="M132.279 98.9515L132.705 98.9964L133.737 98.772L134.141 98.1434L134.276 97.2006L134.41 96.9312L134.433 96.9087C134.186 96.7291 133.939 96.5496 133.737 96.3251C133.715 96.3026 133.692 96.2802 133.67 96.2577C133.648 96.2353 133.827 97.1557 133.042 97.5597C132.66 97.7618 132.346 97.8965 132.144 98.0087L132.279 98.9515Z" fill="black"/>
<path d="M134.59 97.0435L134.433 97.3577C134.433 97.3577 134.298 98.2781 134.298 98.3006C134.298 98.323 133.894 98.9291 133.894 98.9291L132.862 99.1536L132.279 99.0863C132.279 98.974 132.257 98.7944 132.234 98.5924C132.212 98.4802 132.189 98.323 132.167 98.1883C132.391 98.0761 132.728 97.9189 133.176 97.6945C133.962 97.2904 133.805 96.3925 133.805 96.3925C133.984 96.572 134.164 96.7292 134.343 96.8639C134.455 96.9537 134.545 97.021 134.59 97.0435Z" fill="#FFCE00"/>
<path opacity="0.1" d="M134.59 97.0434L134.433 97.3577C134.433 97.3577 134.298 98.2781 134.298 98.3005C134.298 98.323 133.894 98.9291 133.894 98.9291L132.862 99.1536L132.279 99.0862C132.279 98.974 132.257 98.7944 132.234 98.5924C132.369 98.5924 132.481 98.6148 132.616 98.6373C132.616 98.6373 134.007 98.9291 134.074 97.8291C134.119 97.2006 134.253 96.9537 134.343 96.8639C134.455 96.9537 134.545 97.021 134.59 97.0434Z" fill="black"/>
<path d="M134.5 96.9761C134.5 96.9761 134.164 96.9088 134.074 98.0087C133.984 99.1087 132.616 98.8168 132.616 98.8168C132.616 98.8168 131.92 98.6373 131.92 98.9291C131.943 99.1985 132.01 99.4454 132.1 99.6923C132.1 99.6923 132.145 100.343 132.279 100.5C132.414 100.658 132.324 101.241 132.324 101.241C132.324 101.241 132.369 101.668 133.468 101.241C133.468 101.241 134.433 101.039 135.241 99.8495C135.263 99.8046 135.151 99.6923 135.846 99.4454C136.542 99.1985 138.539 97.5822 138.404 96.7965C138.382 96.5271 138.18 96.3027 137.933 96.2353C137.731 96.168 137.507 96.2129 137.305 96.3251C137.125 96.4373 136.923 96.5271 136.721 96.5945C136.452 96.7067 136.183 96.7741 135.891 96.7965C135.667 96.819 135.465 96.8639 135.241 96.9088C134.971 96.9761 134.725 97.021 134.5 96.9761Z" fill="#CC8294"/>
<path d="M126.58 89.3437C126.423 89.4784 126.289 89.6131 126.177 89.7927C125.773 90.3988 125.548 91.2518 125.279 91.611C124.943 92.0824 124.831 93.0028 124.831 93.0028C124.741 93.6089 123.462 96.819 123.125 97.3802C122.789 97.9414 122.295 99.5127 122.295 99.5127C122.004 99.8719 122.026 100.433 122.049 100.68C122.049 100.725 122.049 100.77 122.071 100.792C122.093 100.815 122.071 100.837 122.071 100.837V100.86L121.6 101.668L120.097 101.466L119.311 100.949C119.379 100.837 119.424 100.747 119.491 100.635C119.895 99.7148 120.209 98.0536 120.209 98.0536C120.209 98.0536 120.635 96.168 120.59 95.719C120.59 95.1129 120.635 94.5292 120.702 93.9231C120.702 93.9231 121.891 90.3314 122.25 89.7478C122.407 89.5233 122.497 89.2539 122.542 88.9621C122.542 88.9172 122.542 88.8499 122.542 88.7825L123.058 88.2662C123.058 88.2662 127.231 88.8274 126.58 89.3437Z" fill="#D38884"/>
<path opacity="0.1" d="M122.071 100.68C122.071 100.68 122.071 100.725 122.071 100.792V100.86L121.6 101.668L120.097 101.466L119.311 100.949C119.379 100.837 119.424 100.747 119.491 100.635C119.872 100.523 120.725 100.837 120.725 100.837C120.725 100.837 121.667 100.972 122.071 100.68Z" fill="black"/>
<path d="M121.712 102.813L120.186 103.172L118.795 102.139L118.863 101.556C118.952 101.488 119.042 101.421 119.11 101.331C119.222 101.219 119.289 101.062 119.311 100.905C119.401 100.478 120.725 100.949 120.725 100.949C120.725 100.949 121.69 101.129 122.071 100.837C122.049 101.129 122.071 101.398 122.138 101.668C122.183 101.802 122.25 101.915 122.363 102.004C122.766 102.274 121.712 102.813 121.712 102.813Z" fill="#FFCE00"/>
<path opacity="0.1" d="M121.712 102.813L120.186 103.172L118.795 102.139L118.863 101.556C118.952 101.488 119.042 101.421 119.11 101.331C119.222 101.331 119.311 101.331 119.424 101.331C119.648 101.354 120.209 102.341 120.209 102.341C121.577 102.431 122.004 101.982 122.138 101.645C122.183 101.78 122.25 101.892 122.363 101.982C122.766 102.274 121.712 102.813 121.712 102.813Z" fill="black"/>
<path d="M120.209 102.521C120.209 102.521 119.648 101.511 119.423 101.511C119.221 101.511 119.02 101.511 118.84 101.511C118.84 101.511 118.234 102.97 118.01 103.082C117.786 103.194 117.449 103.89 117.449 103.89C117.449 103.89 119.064 105.462 120.635 105.147C121.128 105.147 121.622 105.282 122.071 105.506C122.789 105.888 125.817 105.596 126.176 104.945C126.446 104.451 126.558 104.092 126.311 103.823C126.154 103.666 125.952 103.598 125.75 103.621C125.369 103.666 124.516 103.666 123.776 102.745C123.776 102.745 122.407 101.488 122.295 101.488C122.183 101.488 122.362 102.678 120.209 102.521Z" fill="#CC8294"/>
<path opacity="0.1" d="M132.1 86.5826C131.987 86.6948 131.337 87.4356 131.135 87.4805C130.798 87.6152 130.484 87.7499 130.148 87.907C130.148 87.907 129.744 88.4458 129.407 88.4682C129.318 88.4907 129.205 88.5131 129.116 88.5356C129.071 87.7948 129.026 87.1662 129.026 87.1662L131.606 85.6398L131.898 86.1112C131.987 86.3357 132.055 86.5153 132.1 86.5826Z" fill="black"/>
<path d="M122.699 76.0768C122.699 76.0768 121.69 77.3788 122.699 79.1298C123.238 80.1175 123.933 80.993 124.763 81.7338L128.196 88.8274C128.196 88.8274 129.093 88.3335 129.43 88.3111C129.766 88.2886 130.17 87.7499 130.17 87.7499C130.484 87.5928 130.821 87.4356 131.157 87.3234C131.382 87.2785 132.122 86.4255 132.122 86.4255C132.122 86.4255 131.741 85.6173 131.83 85.3928C131.92 85.1684 131.584 84.6296 131.584 84.6296C131.471 84.3602 131.404 84.0684 131.359 83.7766C131.359 83.5521 131 83.0358 131 83.0358C131 83.0358 130.641 82.497 130.641 82.1827C130.641 81.8685 130.103 80.7012 130.103 80.7012L129.968 75.5381L122.699 76.0768Z" fill="#FFCE00"/>
<path opacity="0.05" d="M132.099 86.4255C132.099 86.4255 131.337 87.2785 131.135 87.3234C130.798 87.4581 130.484 87.5928 130.148 87.7499C130.148 87.7499 129.744 88.2887 129.407 88.3111C129.183 88.356 128.936 88.4458 128.734 88.5581C128.442 88.6927 128.173 88.8274 128.173 88.8274L124.741 81.7338C124.449 81.4644 124.157 81.195 123.911 80.8808C123.439 80.342 123.036 79.7359 122.677 79.1298C122.273 78.5013 122.138 77.738 122.295 77.0197C122.362 76.683 122.497 76.3687 122.677 76.0993L125.122 75.9197L129.968 75.583L130.013 77.1095L130.103 80.7461C130.103 80.7461 130.17 80.9257 130.282 81.1726C130.439 81.5093 130.551 81.8685 130.619 82.2277C130.619 82.5195 130.978 83.0807 130.978 83.0807C130.978 83.0807 131.337 83.597 131.337 83.8215C131.382 84.1133 131.449 84.3827 131.561 84.6745C131.561 84.6745 131.898 85.2133 131.808 85.4378C131.718 85.6622 132.099 86.4255 132.099 86.4255Z" fill="black"/>
<path opacity="0.1" d="M126.58 89.3437C126.423 89.4784 126.289 89.6131 126.177 89.7927C124.696 89.9049 122.968 89.1192 122.542 88.9172C122.542 88.8723 122.542 88.805 122.542 88.7376L123.058 88.2213C123.036 88.2438 127.231 88.8274 126.58 89.3437Z" fill="black"/>
<path d="M130.933 77.6931C130.933 77.6931 130.709 78.4564 130.641 78.7706C130.574 79.0849 130.395 80.7012 130.395 80.7012L130.305 81.1501L128.757 88.558L128.42 90.1743C127.814 90.511 126.334 89.6355 126.334 89.6355C124.584 89.8376 122.452 88.7152 122.452 88.7152C122.452 88.7152 122.811 87.5703 122.722 87.0091C122.632 86.4479 123.215 85.9765 123.215 85.9765C123.081 85.4602 123.574 83.1929 123.574 83.1929C123.574 83.1929 123.686 82.3399 124.09 82.1379C124.494 81.9358 124.045 81.5991 123.933 81.3971C123.888 81.2399 123.911 81.0603 123.978 80.9032C124.023 80.7685 124.045 80.6563 124.113 80.544C123.081 79.5114 122.924 77.8952 122.924 76.9748C122.924 76.7503 122.924 76.5258 122.946 76.3238L125.19 75.9197L130.08 75.0667L130.574 76.6156L130.709 76.9972L130.933 77.6931Z" fill="#FFCE00"/>
<path opacity="0.1" d="M130.462 56.8836C130.35 57.1081 130.282 57.3326 130.237 57.5795C130.215 57.6469 130.215 57.6918 130.193 57.7591C129.721 58.0734 129.43 58.0734 128.824 58.0734C128.622 58.0734 128.488 57.6693 128.308 57.6244C128.308 57.6244 128.016 56.5469 127.927 57.4449C127.366 57.3326 126.872 57.7816 126.468 57.3775C126.468 57.3326 126.468 57.2653 126.468 57.2204C126.468 56.8836 126.468 56.5469 126.423 56.2102C126.423 56.2102 127.994 56.2102 129.205 56.3449C129.991 56.4571 130.619 56.6143 130.462 56.8836Z" fill="black"/>
<path d="M131.584 55.0654C131.584 56.749 130.215 58.0959 128.555 58.0959C128.353 58.0959 128.151 58.0734 127.949 58.0285C126.311 57.6918 125.257 56.098 125.593 54.4593C125.93 52.8206 127.523 51.7655 129.161 52.1022C130.013 52.2818 130.753 52.8206 131.18 53.5838C131.471 54.0328 131.584 54.5266 131.584 55.0654Z" fill="#D38884"/>
<path opacity="0.1" d="M129.923 59.8244C129.901 60.0713 129.878 60.2284 129.878 60.2284C129.878 60.2284 125.01 59.8917 125.863 59.0836C126.087 58.8591 126.244 58.5897 126.311 58.2755L128.42 58.6122C128.42 58.6122 129.026 59.0836 129.475 59.5101C129.632 59.6448 129.766 59.7346 129.923 59.8244Z" fill="black"/>
<path opacity="0.1" d="M130.664 77.1319C130.439 77.1544 130.237 77.1544 130.036 77.087C129.946 77.0646 129.856 77.0197 129.766 76.9748C129.362 76.7279 127.994 77.0421 127.994 77.0421C127.994 77.0421 124.292 77.2891 124.135 77.0421C124.045 76.9075 123.395 76.9299 122.856 76.9523C122.632 76.9748 122.452 76.9972 122.295 76.9972C122.363 76.6605 122.497 76.3462 122.677 76.0769L125.122 75.8973L130.013 75.0443L130.507 76.5932C130.574 76.7728 130.619 76.9524 130.664 77.1319Z" fill="black"/>
<path d="M128.42 58.7917L125.773 58.3652C125.683 58.5673 125.504 58.7469 125.279 58.7917C124.92 58.8815 123.35 59.6897 122.632 60.6774L121.914 61.6651C121.914 61.6651 121.353 62.361 121.532 62.9447C121.712 63.5283 121.936 65.4364 121.936 65.4364L122.206 67.5914C122.206 67.5914 122.722 69.1404 122.565 69.8138C122.407 70.4872 122.654 73.3606 122.654 73.3606L122.116 76.9074C122.116 76.9074 123.956 76.6605 124.135 76.9074C124.314 77.1543 127.994 76.9074 127.994 76.9074C127.994 76.9074 129.34 76.6156 129.766 76.8401C130.036 76.9972 130.35 77.0421 130.664 76.9972C130.664 76.9972 130.327 75.8748 130.529 75.2463C130.731 74.6177 130.664 73.4728 130.664 73.4728C130.664 73.4728 130.933 71.8117 130.798 71.5199C130.664 71.228 131.09 70.1281 131.09 70.1281L132.526 62.5406C132.526 62.5406 132.346 61.1713 131.584 60.7223C130.821 60.2733 129.946 60.1162 129.475 59.6897C129.003 59.2632 128.42 58.7917 128.42 58.7917Z" fill="#3E1151"/>
<path d="M129.654 66.267V67.1649L130.484 69.4322L130.776 71.5199C130.776 71.5199 131.314 73.0239 131.314 73.5402C131.314 74.0565 132.638 76.5707 132.638 76.5707C132.638 76.5707 132.997 77.4238 132.817 77.5809C132.638 77.738 131.067 81.3297 133.042 81.2175C135.016 81.1053 134.41 77.3564 134.41 77.3564L134.141 75.7177C134.141 75.7177 133.76 71.6321 133.76 71.3403C133.76 71.3403 133.266 69.5893 133.221 69.2077C133.176 68.8261 132.817 66.8956 132.817 66.8956L132.526 65.6385L129.654 66.267Z" fill="#D38884"/>
<path opacity="0.1" d="M128.712 69.0955L125.75 70.8015L124.83 72.1709L126.064 70.9362L128.712 69.0955Z" fill="black"/>
<path opacity="0.1" d="M127.814 72.3505C127.814 72.3505 126.468 73.2259 125.84 73.2259C125.212 73.2259 123.731 74.73 123.731 74.73C123.731 74.73 125.818 73.3831 125.975 73.428C126.132 73.4729 127.814 72.3505 127.814 72.3505Z" fill="black"/>
<path opacity="0.1" d="M124.359 72.8219C124.359 72.8219 123.103 73.9667 123.417 74.079C123.731 74.1912 125.436 72.8219 125.436 72.8219H124.359Z" fill="black"/>
<path opacity="0.1" d="M129.946 68.7363C129.946 68.7363 128.959 70.0607 129.228 70.0383C129.497 70.0158 130.237 69.2526 130.237 69.2526L129.946 68.7363Z" fill="black"/>
<path opacity="0.1" d="M130.103 70.0383C130.103 70.0383 129.048 71.2505 129.093 71.5423C129.138 71.8342 130.103 70.0383 130.103 70.0383Z" fill="black"/>
<path opacity="0.1" d="M130.372 70.6444C130.372 70.6444 129.654 71.9239 129.968 72.1933C130.282 72.4627 130.372 70.6444 130.372 70.6444Z" fill="black"/>
<path opacity="0.1" d="M129.43 67.367C129.43 67.367 128.891 68.2649 129.295 68.3322C129.699 68.3996 129.722 68.3322 129.722 68.3322L129.43 67.367Z" fill="black"/>
<path opacity="0.1" d="M129.587 64.0895C129.452 64.6283 129.273 65.1671 129.048 65.6834C128.959 65.414 128.891 65.1446 128.846 64.8752C129.048 64.5834 129.318 64.314 129.587 64.0895Z" fill="black"/>
<path opacity="0.1" d="M131.202 53.5613C131.157 53.6736 131.09 53.7858 131 53.8756C130.866 54.0103 130.731 54.145 130.641 54.3021C130.551 54.5266 130.507 54.7735 130.507 55.0205C130.462 55.2674 130.305 55.5368 130.058 55.5368C129.923 55.5368 129.811 55.4919 129.699 55.4245C129.587 55.3572 129.452 55.3796 129.34 55.4245C129.273 55.4919 129.228 55.5817 129.228 55.6939C129.205 55.8959 129.183 56.1204 129.183 56.3225C129.183 56.4122 129.183 56.502 129.205 56.5694C129.273 56.8388 129.25 57.1081 129.161 57.3775C129.048 57.5571 128.869 57.7142 128.667 57.7816C128.443 57.8714 128.196 57.9387 127.971 57.9836C127.5 58.051 127.052 58.051 126.58 58.0285C126.536 58.0285 126.491 58.0285 126.446 58.0061C126.423 58.0061 126.401 57.9836 126.401 57.9836C126.446 57.7367 126.491 57.4673 126.491 57.1979C125.302 56.0306 125.257 54.1225 126.423 52.9103C127.59 51.7206 129.497 51.6757 130.709 52.843C130.888 53.0899 131.068 53.3144 131.202 53.5613Z" fill="black"/>
<path d="M129.946 51.0022C129.677 50.9798 129.407 51.1145 129.138 51.1818C128.577 51.2941 127.994 51.0471 127.411 51.0471C126.917 51.0696 126.423 51.2267 125.997 51.4737C125.638 51.6308 125.324 51.8553 125.055 52.1247C124.786 52.394 124.629 52.7757 124.606 53.1573C124.651 53.3818 124.629 53.6062 124.584 53.8307C124.516 53.943 124.449 54.0552 124.382 54.145C124.247 54.3695 124.202 54.6613 124.292 54.9307C124.404 55.1776 124.561 55.4245 124.763 55.6266C125.145 56.098 125.369 56.6816 125.705 57.1755C125.84 57.4 126.02 57.602 126.199 57.804C126.221 57.8489 126.266 57.8714 126.311 57.8938C126.356 57.9163 126.401 57.9163 126.423 57.9163C127.141 57.9387 127.859 57.9612 128.51 57.6694C128.712 57.602 128.891 57.4449 129.003 57.2653C129.093 56.9959 129.116 56.7265 129.048 56.4572C129.026 56.1653 129.026 55.8511 129.071 55.5592C129.071 55.4694 129.116 55.3572 129.183 55.2899C129.295 55.2225 129.43 55.2225 129.542 55.2899C129.654 55.3572 129.766 55.3796 129.901 55.4021C130.148 55.4021 130.305 55.1327 130.35 54.8858C130.305 54.4368 130.484 54.0103 130.843 53.7409C131.18 53.3144 131.292 52.7308 131.157 52.2145C131 51.6981 130.507 51.0696 129.946 51.0022Z" fill="#1E1637"/>
<path opacity="0.1" d="M132.84 63.8875C132.772 64.2691 132.772 64.6283 132.84 65.0099C132.817 65.3017 132.84 66.9629 132.84 66.9629C131.942 66.6935 129.654 67.2323 129.654 67.2323L129.385 66.4241C129.228 66.2221 129.115 65.9976 129.048 65.7507C128.958 65.4813 128.891 65.2119 128.846 64.9426C128.734 64.3814 128.644 63.7977 128.577 63.2365C128.465 62.361 129.744 61.4407 130.731 60.9243C131.718 60.408 132.548 62.608 132.548 62.608C132.548 62.608 132.952 63.461 132.84 63.8875Z" fill="black"/>
<path d="M132.84 63.7304C132.772 64.112 132.772 64.4712 132.84 64.8528C132.817 65.1446 132.84 66.8058 132.84 66.8058C131.942 66.5364 129.654 67.0751 129.654 67.0751L129.385 66.267C129.228 66.065 129.115 65.8405 129.048 65.5936C128.958 65.3242 128.891 65.0548 128.846 64.7854C128.734 64.2242 128.644 63.6406 128.577 63.0794C128.465 62.2039 129.744 61.2835 130.731 60.7672C131.718 60.2509 132.548 62.4508 132.548 62.4508C132.548 62.4508 132.952 63.3038 132.84 63.7304Z" fill="#3E1151"/>
<path opacity="0.2" d="M131.112 52.192C131.068 52.0349 131 51.9002 130.91 51.743C130.933 51.7879 130.933 51.8104 130.955 51.8553C131.112 52.394 130.978 52.9552 130.641 53.3818C130.282 53.6511 130.08 54.0776 130.148 54.5266C130.103 54.7735 129.946 55.0429 129.699 55.0429C129.564 55.0429 129.452 54.998 129.34 54.9307C129.228 54.8633 129.093 54.8858 128.981 54.9307C128.914 54.998 128.869 55.0878 128.869 55.2001C128.824 55.4919 128.824 55.8062 128.846 56.098C128.869 56.3674 128.914 56.6592 128.802 56.9061C128.689 57.0857 128.51 57.2428 128.308 57.3102C127.657 57.5796 126.917 57.5796 126.222 57.5571C126.177 57.5571 126.132 57.5571 126.109 57.5347C126.064 57.5122 126.042 57.4898 125.997 57.4449C125.818 57.2428 125.661 57.0408 125.504 56.8163C125.167 56.3 124.943 55.7388 124.561 55.2674C124.449 55.1327 124.337 55.0205 124.247 54.8633V54.8858C124.359 55.1327 124.516 55.3796 124.718 55.5817C125.1 56.0531 125.324 56.6367 125.661 57.1306C125.818 57.3551 125.975 57.5571 126.154 57.7591C126.177 57.804 126.222 57.8265 126.266 57.8489C126.311 57.8714 126.356 57.8714 126.379 57.8714C127.096 57.8938 127.814 57.9163 128.465 57.6245C128.667 57.5571 128.846 57.4 128.959 57.2204C129.048 56.951 129.071 56.6816 129.003 56.4123C128.981 56.1204 128.981 55.8062 129.026 55.5143C129.026 55.4245 129.071 55.3123 129.138 55.245C129.25 55.1776 129.385 55.1776 129.497 55.245C129.609 55.3123 129.721 55.3347 129.856 55.3572C130.103 55.3572 130.26 55.0878 130.305 54.8409C130.305 54.594 130.35 54.347 130.439 54.1225C130.552 53.9654 130.664 53.8307 130.798 53.696C131.157 53.292 131.269 52.7308 131.112 52.192Z" fill="black"/>
<path d="M152.987 52.7757L151.057 56.9061C151.057 56.9061 150.766 57.6918 150.586 57.8265C150.407 57.9612 149.577 60.408 149.577 60.408L147.49 63.6181L147.355 63.8426L146.548 63.6181L145.987 61.4855L146.032 60.857V60.7672C146.032 60.7672 147.311 59.4203 147.602 59.3081C147.602 59.3081 147.827 59.3305 148.253 58.2979C148.679 57.2653 149.061 57.0408 149.061 57.0408L149.285 56.2776L151.685 52.4389C151.685 52.4389 153.705 49.5431 154.266 50.8227C154.826 52.1022 152.987 52.7757 152.987 52.7757Z" fill="#FFD2C6"/>
<path d="M144.955 82.0705C144.955 82.1379 144.933 82.2052 144.888 82.2726C144.663 82.6093 143.407 89.2764 143.407 89.2764C143.519 89.7253 143.228 90.6233 143.048 91.0273C142.869 91.4314 142.465 93.564 142.465 93.564C142.465 93.564 142.353 98.1434 142.106 98.8393C141.859 99.5352 142.196 101.084 142.196 101.084C142.173 101.78 142.599 102.543 142.846 102.902L142.891 102.97C142.981 103.082 143.026 103.149 143.026 103.149C143.093 103.284 143.183 103.396 143.317 103.509L143.385 103.553C143.721 103.778 144.125 103.957 144.529 104.047H144.574C144.731 104.092 144.843 104.092 144.843 104.092L144.955 104.653L143.878 104.878L141.814 105.013C141.814 105.013 139.391 105.192 139.93 104.115C139.974 104.047 139.997 103.957 140.019 103.89C140.042 103.845 140.064 103.778 140.087 103.733C140.423 102.7 140.199 101.421 140.199 101.421L139.728 97.7393C138.942 94.3048 140.333 90.4886 140.333 90.4886C140.333 90.4886 140.221 90.1743 140.49 89.4111C140.76 88.6478 140.49 86.9418 140.49 86.9418C140.49 86.9418 140.356 84.7643 140.154 83.6868C140.087 83.2378 140.064 82.7664 140.087 82.3175C140.087 82.0481 140.109 81.7787 140.154 81.5093L144.798 80.8808C144.731 80.8808 145 81.6216 144.955 82.0705Z" fill="#FFD2C6"/>
<path opacity="0.1" d="M144.888 104.631L143.811 104.855L141.747 104.99C141.747 104.99 139.324 105.17 139.862 104.092C139.907 104.025 139.929 103.935 139.952 103.868C139.974 103.823 139.997 103.755 140.019 103.711C140.445 103.733 140.849 103.8 141.253 103.957C141.949 104.227 142.465 103.531 142.465 103.531L142.801 102.88L142.846 102.79C142.936 102.902 142.981 102.97 142.981 102.97C143.07 103.127 143.183 103.262 143.317 103.374L143.25 103.486L142.913 104.182C142.913 104.182 143.34 104.227 143.901 104.317C144.125 104.384 144.372 104.249 144.439 104.025H144.484C144.641 104.07 144.753 104.07 144.753 104.07L144.888 104.631Z" fill="black"/>
<path d="M145.875 105.147C145.785 105.506 143.519 105.619 143.519 105.619C143.519 105.619 142.263 105.506 141.904 105.798C141.545 106.09 140.513 106.023 140.468 106.023C140.423 106.023 139.885 106 139.66 105.013C139.436 104.025 139.952 103.89 139.952 103.868C140.401 103.868 140.827 103.957 141.231 104.115C141.926 104.384 142.442 103.688 142.442 103.688L142.824 102.947C142.913 103.06 142.958 103.127 142.958 103.127C143.048 103.284 143.16 103.419 143.295 103.531L142.913 104.339C142.913 104.339 143.34 104.384 143.901 104.474C144.147 104.541 144.417 104.362 144.461 104.115C144.461 104.092 144.461 104.047 144.484 104.025C144.484 104.002 144.484 103.98 144.484 103.957C144.484 103.957 144.843 104.07 145.269 104.182C145.718 104.317 145.965 104.721 145.875 105.147Z" fill="#682666"/>
<path d="M150.16 86.9193C150.115 87.256 150.048 88.0866 150.048 88.0866C150.227 88.7825 149.756 90.4661 149.756 90.4661L149.509 91.4314C149.621 92.666 148.836 95.6516 148.836 95.6516C148.836 95.6516 148.32 98.4352 148.051 99.625C147.894 100.298 147.939 100.994 148.186 101.623L148.208 101.668C148.208 101.69 148.208 101.713 148.23 101.735C148.23 101.758 148.253 101.802 148.253 101.825C148.32 101.982 148.41 102.139 148.522 102.274C148.567 102.319 148.612 102.386 148.679 102.431C148.926 102.655 149.218 102.835 149.554 102.97L149.689 103.015C149.823 103.06 149.98 103.104 150.115 103.149H150.16L150.048 103.8L148.612 103.419L146.682 102.79L145.74 102.274C145.74 102.274 145.74 102.229 145.763 102.117V102.094C145.763 102.049 145.785 102.004 145.785 101.937C145.942 101.084 146.301 98.7495 146.121 96.9985C145.897 94.8435 146.795 91.8804 146.996 91.1845C147.131 90.7804 147.176 90.3539 147.154 89.9274C146.795 89.4111 146.727 87.3458 146.727 87.3458C146.727 87.3458 146.077 86.0214 145.538 84.6071C145.359 84.1357 145.224 83.6643 145.157 83.1705C145.089 82.8337 145.067 82.4746 145.089 82.1378C145.089 82.1378 149.464 78.1421 149.958 82.0032C149.98 82.1378 149.98 82.2501 150.003 82.3848C150.407 85.954 150.205 86.605 150.16 86.9193Z" fill="#FFD2C6"/>
<path opacity="0.1" d="M150.16 103.172L150.048 103.823L148.612 103.441L146.683 102.813L145.74 102.274C145.74 102.274 145.74 102.229 145.763 102.117V102.094C145.763 102.049 145.785 102.004 145.785 101.937H145.92C146.189 101.915 146.481 101.937 146.727 102.049C147.041 102.162 147.445 102.296 147.535 102.251C147.67 102.184 147.849 102.162 148.006 102.162L148.208 101.713L148.231 101.645C148.298 101.802 148.388 101.96 148.5 102.094C148.545 102.162 148.59 102.207 148.657 102.251V102.409V102.633C148.881 102.768 149.106 102.88 149.352 102.947C149.42 102.97 149.487 102.97 149.554 102.947L149.689 102.992C149.823 103.037 149.981 103.082 150.115 103.127L150.16 103.172Z" fill="black"/>
<path d="M149.442 104.564C149.038 104.451 148.074 104.272 147.916 104.406C147.759 104.541 146.413 104.406 146.413 104.406C146.122 104.406 145.875 104.249 145.718 104.002C145.426 103.576 145.673 102.162 145.673 102.162H145.763L145.92 102.139C146.189 102.117 146.481 102.139 146.727 102.251C147.042 102.364 147.445 102.498 147.535 102.453C147.67 102.386 147.849 102.364 148.006 102.364L148.231 101.847C148.298 102.004 148.388 102.162 148.5 102.296C148.545 102.364 148.59 102.409 148.657 102.453L148.634 102.835C148.859 102.97 149.083 103.082 149.33 103.149C149.442 103.194 149.599 103.149 149.666 103.037C149.666 103.015 149.689 102.992 149.689 102.97C149.868 103.06 150.07 103.127 150.25 103.149C150.766 103.104 151.259 103.441 151.372 103.957C151.596 104.608 149.846 104.676 149.442 104.564Z" fill="#682666"/>
<path opacity="0.1" d="M144.955 82.0705L144.708 82.1379C144.506 82.2052 144.304 82.2501 144.102 82.2726C142.823 82.4521 140.692 82.3399 140.019 82.295C140.019 82.0256 140.041 81.7563 140.086 81.4869L144.73 80.8583C144.73 80.8808 145 81.6216 144.955 82.0705Z" fill="black"/>
<path d="M148.993 80.9257C148.993 80.9257 147.288 81.1951 145.897 81.4869C145.426 81.5991 145 81.6889 144.686 81.8012C144.484 81.8685 144.282 81.9134 144.08 81.9358C142.532 82.1603 139.795 81.9583 139.795 81.9583C139.032 79.5114 140.715 76.436 140.715 76.436C140.67 76.1891 141.051 75.4483 141.051 75.4483V75.4259L141.298 74.5504H147.647L147.715 74.932L147.872 75.6952L148.859 80.4318L148.993 80.9257Z" fill="#682666"/>
<path opacity="0.1" d="M149.98 82.4072L149.936 82.4297L149.195 82.7664C148.387 83.1256 145.987 83.2154 145.157 83.2154C145.089 82.8786 145.067 82.5195 145.089 82.1828C145.089 82.1828 149.464 78.187 149.958 82.0481C149.958 82.1603 149.958 82.295 149.98 82.4072Z" fill="black"/>
<path d="M150.093 82.0481L149.936 82.1154L149.195 82.4521C148.388 82.8337 145.897 82.9011 145.112 82.9011H144.91C144.551 82.9011 144.17 82.5419 144.17 82.4521C144.17 82.4072 144.125 82.1603 144.102 81.9583C144.08 81.8011 144.058 81.644 144.058 81.644C143.205 81.2848 142.375 80.8583 141.59 80.3644C140.961 79.9379 141.119 76.9299 141.253 75.4034C141.298 74.8871 141.343 74.5279 141.343 74.5279L147.759 74.9095L148.657 74.9544L149.173 75.0667L149.307 75.0891C149.307 75.0891 149.689 77.7829 149.868 78.0074C150.048 78.2319 149.936 78.9951 149.913 79.4216C149.913 79.6012 149.891 79.7808 149.846 79.9828C149.846 79.9828 150.115 80.7461 150.048 81.1501C149.981 81.442 150.003 81.7562 150.093 82.0481Z" fill="#682666"/>
<path d="M143.227 59.6672C144.677 59.6672 145.852 58.4913 145.852 57.0408C145.852 55.5903 144.677 54.4144 143.227 54.4144C141.778 54.4144 140.603 55.5903 140.603 57.0408C140.603 58.4913 141.778 59.6672 143.227 59.6672Z" fill="#FFD2C6"/>
<path d="M141.949 58.1408C141.949 58.1408 142.128 60.6325 141.612 61.1937C141.029 61.7774 140.423 62.3386 139.772 62.8549L140.176 64.5385L142.487 64.8079L145.179 61.9345L144.574 61.1937C144.574 61.1937 144.103 59.5999 144.484 58.8142C144.865 58.0285 141.949 58.1408 141.949 58.1408Z" fill="#FFD2C6"/>
<path opacity="0.1" d="M147.513 63.6181L147.378 63.8426L146.57 63.6181L146.01 61.4855L146.054 60.857L146.234 60.61C146.234 60.61 147.131 60.6325 147.086 61.4406C146.997 62.1814 147.423 63.3487 147.513 63.6181Z" fill="black"/>
<path opacity="0.1" d="M149.285 75.4259C149.285 75.4259 148.634 75.5606 147.894 75.6728C147.154 75.7851 146.301 75.8299 145.942 75.6055C145.359 75.2463 142.151 75.3585 141.231 75.381H141.074L141.321 74.5055H147.67L147.737 74.8871L148.634 74.932L149.15 75.0443C149.24 75.2912 149.285 75.4259 149.285 75.4259Z" fill="black"/>
<path d="M146.032 60.7896C146.032 60.7896 146.929 60.8121 146.885 61.6202C146.84 62.4284 147.378 63.8426 147.378 63.8426L147.176 64.314C147.176 64.314 146.885 65.4589 147.109 65.7507C147.333 66.0425 148.141 66.0425 147.67 68.3771C147.67 68.3771 147.558 70.1281 147.804 70.7117C148.051 71.2954 148.051 72.6423 148.41 73.2259C148.747 73.832 149.038 74.4606 149.263 75.134C149.263 75.134 146.615 75.7177 145.92 75.3136C145.224 74.9095 140.962 75.1116 140.962 75.1116C140.962 75.1116 140.984 74.3932 140.962 74.3259C140.917 74.1463 140.962 73.9667 141.074 73.8096C141.208 73.6075 141.433 73.2933 141.321 73.0014C141.208 72.7096 141.635 72.3056 141.41 71.8566C141.186 71.4076 140.917 71.3178 140.962 71.0934C140.984 70.8015 140.894 70.5321 140.715 70.3301C140.558 70.1281 139.458 67.9731 139.458 67.9731L139.279 66.9629C139.279 66.9629 137.866 65.9303 137.888 65.4364C137.91 64.9426 138.426 64.2691 138.426 64.2691L139.795 62.9222C139.795 62.9222 140.558 63.7304 141.276 63.461C141.994 63.1916 143.587 61.7325 143.587 61.7325C143.587 61.7325 144.147 61.4182 144.192 61.1937C144.237 60.9692 144.574 61.1713 144.574 61.1713C144.574 61.1713 145.09 60.8794 145.179 60.9917C145.359 61.0815 145.538 61.1488 145.74 61.1713L146.032 60.7896Z" fill="#FFD7D7"/>
<path d="M138.314 65.0323L137.888 65.3691C137.551 66.065 137.372 66.8282 137.349 67.5914C137.237 68.7587 137.058 69.9036 136.788 71.026L135.936 72.5525C135.936 72.5525 134.523 75.5156 134.343 76.3013C134.164 77.087 133.333 78.4114 133.333 78.4114C133.333 78.4114 130.507 80.9705 132.481 81.4195C134.455 81.8685 134.523 79.3992 134.523 79.3992C134.523 79.3992 134.971 78.8829 135.061 78.5461C135.151 78.2094 137.641 73.7647 137.641 73.7647C137.641 73.7647 138.516 72.5749 138.337 71.9464C138.337 71.9464 139.481 69.2526 139.481 68.5792C139.458 68.018 139.391 67.4567 139.301 66.8955L139.481 65.4813L138.314 65.0323Z" fill="#FFD2C6"/>
<path opacity="0.1" d="M144.192 70.6444C144.192 70.6444 142.195 71.6995 141.814 71.7444C141.433 71.7893 143.497 71.5199 143.497 71.5199L144.192 70.6444Z" fill="black"/>
<path opacity="0.1" d="M145.808 71.475C145.808 71.475 143.16 72.3729 141.994 72.2158C141.994 72.1933 144.91 72.7545 145.808 71.475Z" fill="black"/>
<path opacity="0.1" d="M145.987 71.7668C145.987 71.7668 143.609 73.2708 142.195 73.0239C142.195 73.0239 145.471 73.6749 145.987 73.3382L144.529 72.9341C144.506 72.9117 146.144 72.0586 145.987 71.7668Z" fill="black"/>
<path opacity="0.1" d="M143.227 52.4165C142.532 52.2369 141.792 52.394 141.208 52.7981C140.804 53.1124 140.535 53.6062 140.064 53.8532C139.817 53.9654 139.57 54.0552 139.324 54.1225C138.404 54.5042 137.865 55.447 138.022 56.4347C138.09 56.8388 138.292 57.2204 138.381 57.602C138.538 58.3203 138.404 59.0611 138.224 59.757C137.731 61.7325 136.968 63.6181 135.958 65.3691C135.869 65.4813 135.846 65.616 135.846 65.7507C135.869 65.8405 135.913 65.9303 135.981 65.9976C136.923 67.0976 138.449 67.4567 139.907 67.5016C140.445 67.5465 140.984 67.4567 141.455 67.2547C141.747 67.0751 142.016 66.8506 142.218 66.5588C142.711 65.8629 142.958 65.0323 142.913 64.1793C142.868 63.5059 142.644 62.81 142.824 62.1365C142.846 62.0467 142.891 61.9569 142.936 61.8896C143.093 61.7325 143.34 61.7774 143.564 61.7549C144.17 61.6876 144.551 61.059 144.618 60.4529C144.686 59.8468 144.551 59.2407 144.529 58.6571C144.529 57.8714 144.775 57.0857 145.247 56.4347C145.449 56.1653 145.695 55.8959 145.763 55.5368C145.852 55.1102 145.606 54.796 145.381 54.4593C145.045 53.9205 144.888 53.3144 144.372 52.9103C144.035 52.6858 143.654 52.5063 143.227 52.4165Z" fill="black"/>
<path d="M143.07 52.2593C142.375 52.0797 141.657 52.2369 141.074 52.641C140.67 52.9552 140.401 53.4491 139.93 53.696C139.683 53.8083 139.436 53.8756 139.189 53.9654C138.269 54.347 137.731 55.2898 137.888 56.2776C137.955 56.6816 138.157 57.0632 138.247 57.4449C138.404 58.1632 138.269 58.904 138.09 59.5999C137.596 61.5529 136.833 63.461 135.824 65.2119C135.734 65.3242 135.712 65.4589 135.712 65.5935C135.734 65.6833 135.779 65.7731 135.846 65.8405C136.789 66.9404 138.314 67.2996 139.772 67.3445C140.311 67.3894 140.849 67.2996 141.321 67.0976C141.612 66.918 141.881 66.6935 142.083 66.4017C142.577 65.7058 142.824 64.8752 142.779 64.0222C142.734 63.3487 142.51 62.6528 142.689 61.9794C142.712 61.8896 142.756 61.7998 142.801 61.7325C142.958 61.5753 143.205 61.6202 143.429 61.5978C144.035 61.5304 144.417 60.9019 144.484 60.2958C144.551 59.6897 144.417 59.0836 144.394 58.4999C144.394 57.7142 144.641 56.9286 145.112 56.2776C145.314 56.0082 145.561 55.7388 145.628 55.3796C145.718 54.9531 145.471 54.6388 145.247 54.3021C144.91 53.7634 144.753 53.1573 144.237 52.7532C143.878 52.5063 143.497 52.3267 143.07 52.2593Z" fill="#985C7E"/>
<path opacity="0.1" d="M142.195 77.7605C142.195 77.7605 142.711 80.2073 143.586 80.8808L142.195 77.7605Z" fill="black"/>
<g opacity="0.1">
<path opacity="0.1" d="M138.023 56.8163C138 56.7265 137.955 56.6143 137.933 56.5245C137.955 56.6367 137.978 56.7041 138.023 56.8163Z" fill="black"/>
<path opacity="0.1" d="M145.449 54.6837C145.449 54.7511 145.449 54.8409 145.449 54.9082C145.381 55.245 145.135 55.5143 144.933 55.8062C144.462 56.4572 144.215 57.2204 144.215 58.0285C144.215 58.6346 144.372 59.2407 144.305 59.8244C144.237 60.408 143.856 61.059 143.25 61.1264C143.026 61.1488 142.779 61.1039 142.622 61.2611C142.555 61.3284 142.51 61.4182 142.51 61.508C142.33 62.1814 142.577 62.8549 142.599 63.5508C142.644 64.4038 142.398 65.2344 141.882 65.9078C141.68 66.1997 141.433 66.4241 141.119 66.6037C140.625 66.8282 140.109 66.918 139.571 66.8506C138.157 66.8058 136.654 66.4466 135.712 65.3915C135.689 65.4589 135.689 65.5262 135.689 65.5936C135.712 65.6834 135.757 65.7731 135.824 65.8405C136.766 66.9404 138.292 67.2996 139.75 67.3445C140.289 67.3894 140.827 67.2996 141.298 67.0976C141.59 66.918 141.859 66.6935 142.061 66.4017C142.555 65.7058 142.801 64.8752 142.756 64.0222C142.712 63.3487 142.487 62.6528 142.667 61.9794C142.689 61.8896 142.734 61.7998 142.779 61.7325C142.936 61.5753 143.183 61.6202 143.407 61.5978C144.013 61.5304 144.394 60.9019 144.462 60.2958C144.529 59.6897 144.394 59.0836 144.372 58.4999C144.372 57.7142 144.619 56.9286 145.09 56.2776C145.292 56.0082 145.538 55.7388 145.606 55.3796C145.651 55.1552 145.583 54.9082 145.449 54.6837Z" fill="black"/>
</g>
<path opacity="0.1" d="M28.9865 112.735C31.6134 112.735 33.7428 112.524 33.7428 112.263C33.7428 112.003 31.6134 111.792 28.9865 111.792C26.3597 111.792 24.2302 112.003 24.2302 112.263C24.2302 112.524 26.3597 112.735 28.9865 112.735Z" fill="#E8004C"/>
<path d="M30.6466 104.317C30.6466 104.317 24.4545 107.527 27.6627 111.276C27.8422 111.747 28.3134 112.061 28.8294 112.039C28.8294 112.039 28.6499 111.725 29.323 111.478C29.5697 111.388 29.7941 111.276 29.996 111.118C30.2877 110.916 30.4896 110.647 30.6018 110.31C30.6018 110.31 31.8582 108.627 30.8934 105.484C30.8934 105.484 31.028 104.586 30.9159 104.451L30.1531 105.484C30.1531 105.484 30.9383 106 31.028 106.786C31.028 106.786 30.2204 105.506 30.0409 105.641C29.996 105.664 29.6595 106.202 29.6595 106.202C29.6595 106.202 31.0056 107.123 31.0954 108.312C31.0954 108.312 30.3326 106.651 29.5249 106.404L29.0537 107.235C29.0537 107.235 30.5345 108.133 30.6915 109.48C30.6915 109.48 29.839 107.774 28.964 107.414L28.6275 108.29C28.6275 108.29 30.0409 109.188 30.1755 110.31C30.1755 110.31 28.9864 108.425 28.5602 108.492C28.5602 108.492 28.2909 109.323 28.3358 109.57C28.3358 109.57 29.3454 110.243 29.3678 110.894C29.3678 110.894 28.448 109.727 28.2909 109.794C28.2909 109.794 28.2236 110.961 28.5153 111.59C28.2236 111.029 28.089 110.423 28.1114 109.794C27.8198 110.041 27.6179 110.378 27.5281 110.759C27.5281 110.759 27.2589 110.108 28.1339 109.525C28.1339 109.525 28.2236 108.604 28.3134 108.492C28.3134 108.492 27.3711 108.963 26.9672 109.525C26.9672 109.525 27.1243 108.672 28.4031 108.245L28.7396 107.347C28.7396 107.347 27.4608 107.886 27.057 108.38C27.057 108.38 27.3486 107.527 28.8518 107.145L29.3005 106.315C29.3005 106.315 28.1563 106.696 27.5954 107.145C27.5954 107.145 28.0217 106.427 29.4351 106.09L29.7941 105.574C29.7941 105.574 28.964 105.866 28.7396 105.978C28.5153 106.09 28.4704 106.023 28.4704 106.023C28.8967 105.664 29.4127 105.439 29.9511 105.349C29.9287 105.372 30.6915 104.384 30.6466 104.317Z" fill="#E8004C"/>
<path d="M36.7491 110.018C37.3997 110.4 38.4093 110.647 39.6881 109.839L39.6657 111.657C39.7554 112.914 41.3035 117.449 41.3035 117.449L42.3804 121.198C43.1656 123.847 43.5695 126.585 43.5695 129.346C43.547 130.222 43.6592 131.075 43.906 131.905C44.4893 133.477 43.6816 135.497 43.3227 136.238C42.672 136.462 41.999 136.642 41.5278 136.754C41.483 136.777 41.4157 136.777 41.3708 136.799C41.3708 136.799 39.733 137.45 39.0151 137.36C38.4766 137.293 38.1401 137.966 38.5664 138.46C38.2074 138.573 37.8484 138.617 37.467 138.595C36.7491 138.505 36.3677 139.762 37.7363 140.121C39.1048 140.481 46.8226 140.121 46.8226 140.121C47.2713 139.897 47.5181 139.403 47.4059 138.909C47.9892 138.887 48.3706 138.864 48.3706 138.864C48.3706 138.864 49.7392 138.236 48.3706 136.552L48.3033 136.62L48.0117 135.767V134.599C48.0117 134.599 49.7392 126.293 49.2007 125.328C48.6623 124.363 48.3931 119.357 48.3931 119.357L48.5725 113.924C49.0661 112.914 49.3129 111.32 49.4475 110.063C49.627 109.48 49.7392 108.851 49.7841 108.223C49.8065 107.931 49.8289 107.617 49.8289 107.302C49.8289 106.606 49.7167 105.91 49.4924 105.237C50.0982 104.317 50.7936 103.464 51.5564 102.655C52.1846 102.072 52.4987 101.196 52.3641 100.343L51.9154 97.3128L50.8161 92.1497C50.9507 90.7131 50.659 89.8825 50.3225 89.4111C50.4122 88.9397 50.4796 88.4907 50.5244 88.0193C50.7712 85.9989 50.659 83.9562 50.2103 81.9583C50.0533 81.2624 49.8289 80.544 49.3578 80.0277C48.7969 79.4441 47.9219 79.0625 47.6976 78.2992C47.6751 78.0972 47.6303 77.8952 47.563 77.7156C47.361 77.1993 46.7328 77.0197 46.172 76.9523C45.1848 76.8401 43.7714 76.7503 42.8291 77.1319C42.1785 77.4013 41.2586 78.1421 40.8996 78.9502C40.6753 79.2869 40.608 79.691 40.6753 80.0726C40.7202 80.2073 40.765 80.342 40.8323 80.4542C40.6977 80.8359 40.608 81.2399 40.608 81.644C40.608 83.0807 41.5054 84.3602 42.8291 84.8765C42.8515 84.9439 42.874 85.0112 42.8964 85.0786C42.9413 85.2357 42.9637 85.3928 42.9861 85.5724C42.9637 85.8867 42.9413 86.201 42.9413 86.5152C42.9413 86.5601 42.9188 86.605 42.9188 86.6499C42.1336 86.9867 41.3708 87.3907 40.6304 87.8172C41.1689 88.6254 40.5407 92.0151 40.5407 92.0151C39.1721 92.8232 37.826 94.866 39.2619 97.021C40.6977 99.176 39.8901 101.466 39.8901 101.466L39.6657 104.945L39.6208 105.641H39.6433L39.6208 105.91H39.6657V106.202C39.0151 106.427 38.0952 106.898 37.5343 107.774C37.2651 108.2 36.951 108.604 36.5921 108.941C36.3004 109.188 36.2331 109.614 36.4799 109.929C36.5921 109.906 36.6594 109.974 36.7491 110.018ZM47.6976 100.747C47.6527 100.141 47.7649 99.5352 48.0117 98.9964C48.236 98.9964 48.4379 98.9964 48.6623 98.9964C48.6847 99.1536 48.7072 99.2883 48.752 99.423C48.9315 100.209 48.1911 100.59 47.6976 100.747Z" fill="url(#paint0_linear)"/>
<path d="M47.877 135.318L48.236 136.373L47.1142 137.518L43.3675 138.393L40.6528 138.124L40.8323 137.158C40.9445 136.732 41.2586 136.418 41.6849 136.305C42.8066 136.036 44.9156 135.452 45.3643 134.622L47.877 135.318Z" fill="#DB8B8B"/>
<path opacity="0.1" d="M47.877 135.318L48.236 136.373L47.1142 137.518L43.3675 138.393L40.6528 138.124L40.8323 137.158C40.9445 136.732 41.2586 136.418 41.6849 136.305C42.8066 136.036 44.9156 135.452 45.3643 134.622L47.877 135.318Z" fill="black"/>
<path d="M41.5054 137.854L42.0214 137.158L41.5054 136.35C41.5054 136.35 39.9349 136.979 39.2394 136.889C38.5439 136.799 38.1849 138.034 39.5086 138.371C40.8323 138.707 48.236 138.371 48.236 138.371C48.236 138.371 49.5373 137.764 48.236 136.103L47.1142 136.979C47.1142 136.979 45.1848 138.034 44.2201 137.854H41.5054Z" fill="#2E3037"/>
<path d="M39.1497 139.336L41.8643 139.605L45.6111 138.73L46.7553 137.585L46.6655 137.315L46.5309 136.934L46.3963 136.552L43.8611 135.856C43.7265 136.058 43.547 136.238 43.3451 136.373C42.515 136.934 41.0342 137.338 40.1817 137.54L40.0695 137.562C39.89 137.607 39.7554 137.72 39.6208 137.832C39.4638 137.989 39.3516 138.168 39.3067 138.371L39.1497 139.336Z" fill="#DB8B8B"/>
<path opacity="0.1" d="M39.1497 139.336L41.8643 139.605L45.6111 138.73L46.7553 137.585L46.6655 137.315L45.6335 138.124C45.6335 138.124 43.704 139.179 42.7393 138.999H40.0246L40.5407 138.303L40.0695 137.585C39.89 137.63 39.7554 137.742 39.6208 137.854C39.4638 138.011 39.3516 138.191 39.3067 138.393L39.1497 139.336Z" fill="black"/>
<path d="M40.0247 139.089L40.5407 138.393L40.0247 137.585C40.0247 137.585 38.4542 138.213 37.7587 138.124C37.0632 138.034 36.7042 139.268 38.0279 139.605C39.3516 139.942 46.7553 139.605 46.7553 139.605C46.7553 139.605 48.0565 138.999 46.7553 137.338L45.6111 138.191C45.6111 138.191 43.6816 139.246 42.7169 139.066L40.0247 139.089Z" fill="#2E3037"/>
<path d="M42.2009 88.4009C42.2009 88.4009 46.3963 88.8274 45.7906 87.0989C45.6111 86.605 45.5662 86.0663 45.656 85.55C45.7681 84.899 46.0149 84.2929 46.3963 83.7766L42.4702 84.3827C42.6945 84.7867 42.874 85.1908 43.0086 85.6398C43.4573 87.4805 42.2009 88.4009 42.2009 88.4009Z" fill="#DB8B8B"/>
<path d="M49.358 108.312C49.358 108.312 49.2682 112.061 48.3932 113.902L48.2138 119.222C48.2138 119.222 48.483 124.116 48.999 125.081C49.515 126.046 47.8548 134.173 47.8548 134.173V135.565C47.8548 135.565 45.0504 136.62 44.2651 135.385L45.0728 124.991L44.7363 110.557L49.358 108.312Z" fill="#3E1151"/>
<path opacity="0.1" d="M49.358 108.312C49.358 108.312 49.2682 112.061 48.3932 113.902L48.2138 119.222C48.2138 119.222 48.483 124.116 48.999 125.081C49.515 126.046 47.8548 134.173 47.8548 134.173V135.565C47.8548 135.565 45.0504 136.62 44.2651 135.385L45.0728 124.991L44.7363 110.557L49.358 108.312Z" fill="black"/>
<path d="M51.1078 96.2578L51.6239 97.6496L52.0726 100.613C52.1847 101.443 51.8931 102.296 51.2873 102.88C50.2329 103.935 48.8419 106.113 48.8419 106.113L47.1816 101.129C47.1816 101.129 48.8419 100.86 48.5726 99.7372C48.3034 98.6148 48.3932 96.5047 48.3932 96.5047L51.1078 96.2578Z" fill="#F5556B"/>
<path opacity="0.05" d="M51.1078 96.2578L51.6239 97.6496L52.0726 100.613C52.1847 101.443 51.8931 102.296 51.2873 102.88C50.2329 103.935 48.8419 106.113 48.8419 106.113L47.1816 101.129C47.1816 101.129 48.8419 100.86 48.5726 99.7372C48.3034 98.6148 48.3932 96.5047 48.3932 96.5047L51.1078 96.2578Z" fill="black"/>
<path opacity="0.1" d="M43.3451 136.373C44.4669 138.146 46.2168 137.136 46.5085 136.934L46.3739 136.552L43.8387 135.856C43.7265 136.058 43.5694 136.238 43.3451 136.373Z" fill="black"/>
<path d="M39.8452 111.725C39.935 112.959 41.4157 117.404 41.4157 117.404L42.4702 121.063C43.233 123.667 43.6144 126.338 43.6144 129.032C43.5919 129.885 43.7041 130.738 43.9509 131.546C44.6464 133.477 43.2554 136.081 43.2554 136.081C44.4669 138.258 46.5758 136.777 46.5758 136.777V135.385C46.5758 135.385 48.236 127.775 47.8098 126.293C47.3835 124.812 47.204 120.794 47.204 120.794V113.543C48.595 112.151 49.4475 110.288 49.5822 108.312C49.6046 108.021 49.627 107.729 49.627 107.415C49.6943 105.439 48.3482 103.127 47.8322 102.296C47.6976 102.094 47.6303 101.982 47.6303 101.982L39.9125 105.035H39.8901V105.327V106L39.8452 111.725Z" fill="#3E1151"/>
<path opacity="0.1" d="M42.4703 84.3827C42.6947 84.7867 42.8742 85.1908 43.0088 85.6398C43.8613 85.9765 44.826 85.9316 45.6562 85.55C45.7683 84.899 46.0151 84.2929 46.3965 83.7766L42.4703 84.3827Z" fill="black"/>
<path d="M44.2201 85.6847C46.1035 85.6847 47.6303 84.157 47.6303 82.2725C47.6303 80.3881 46.1035 78.8604 44.2201 78.8604C42.3367 78.8604 40.8099 80.3881 40.8099 82.2725C40.8099 84.157 42.3367 85.6847 44.2201 85.6847Z" fill="#DB8B8B"/>
<path opacity="0.1" d="M39.8452 106.045H39.8901C43.5471 106.786 48.1463 102.97 48.1463 102.97C48.0341 102.768 47.922 102.543 47.8322 102.319C47.6976 102.117 47.6303 102.004 47.6303 102.004L39.9125 105.08L39.8901 105.394L39.8452 106.045Z" fill="black"/>
<path d="M40.8099 88.3111C40.8099 88.3111 45.7009 85.3479 47.2713 86.5602L49.4476 89.3662C49.4476 89.3662 50.8386 89.7927 50.5918 92.5987L51.6462 97.672L48.5053 98.4577C48.5053 98.4577 46.6432 100.209 48.1463 102.745C48.1463 102.745 43.5246 106.584 39.8452 105.798L40.1145 101.69C40.1145 101.69 40.8997 99.423 39.5087 97.3128C38.1177 95.2027 39.419 93.2048 40.7202 92.4191C40.7202 92.3967 41.326 89.0968 40.8099 88.3111Z" fill="#F5556B"/>
<path d="M40.5408 106.135C40.5408 106.135 38.7011 106.472 37.8261 107.886C37.5793 108.312 37.2652 108.694 36.9063 109.031C36.6146 109.278 36.5922 109.727 36.8614 110.019C36.9063 110.063 36.9511 110.108 37.0184 110.153C37.7139 110.557 38.8357 110.827 40.2716 109.659C42.717 107.617 40.5408 106.135 40.5408 106.135Z" fill="#DB8B8B"/>
<path opacity="0.1" d="M43.2554 89.9723C43.2554 89.9723 45.0054 89.7927 45.4316 94.3497C45.8579 98.9066 46.5758 99.9393 46.5758 99.9393C46.5758 99.9393 47.0246 102.296 45.9701 103.688C44.9156 105.08 42.9189 108.066 42.9189 108.066C42.9189 108.066 40.7427 108.672 40.2939 106.494L43.0086 101.421C43.0086 101.421 43.4349 99.6699 42.4029 98.4577C41.3708 97.2455 40.5407 89.0968 43.2554 89.9723Z" fill="black"/>
<path d="M43.0761 89.7029C43.0761 89.7029 44.8261 89.5233 45.2523 94.0803C45.6786 98.6373 46.3965 99.6699 46.3965 99.6699C46.3965 99.6699 46.8228 102.027 45.7908 103.419C44.7587 104.811 42.7396 107.796 42.7396 107.796C42.7396 107.796 40.5633 108.402 40.1146 106.225L42.8293 101.151C42.8293 101.151 43.2556 99.4005 42.2235 98.1883C41.1915 96.9761 40.3614 88.8274 43.0761 89.7029Z" fill="#F5556B"/>
<path opacity="0.1" d="M41.64 92.9803C41.64 92.9803 41.4605 95.6966 42.2457 97.1781C43.031 98.6597 43.031 100.59 42.2457 101.645" fill="black"/>
<path opacity="0.1" d="M41.1913 89.658C41.1913 89.658 41.8868 88.9621 43.906 88.8723C45.9027 88.7825 46.8001 88.1764 46.8001 88.1764" fill="black"/>
<path opacity="0.1" d="M46.06 77.8727C46.5984 77.94 47.2042 78.1196 47.3837 78.6135C47.4285 78.7931 47.4734 78.9951 47.4958 79.1971C47.6978 79.9604 48.5503 80.3196 49.0887 80.9032C49.5599 81.4195 49.7618 82.1154 49.9189 82.7889C50.3451 84.7418 50.4573 86.7397 50.233 88.7376C50.0535 90.1968 49.7169 91.611 49.6048 93.0701C49.4926 94.5293 49.6945 96.0557 50.4797 97.2904C50.8163 97.8067 51.265 98.2781 51.5118 98.8618C51.0182 99.2658 50.3227 99.3332 49.6721 99.3556C48.9317 99.3781 48.1689 99.3781 47.4285 99.3556C47.0247 99.3781 46.6433 99.2883 46.2843 99.1087C46.0375 98.9515 45.8356 98.7271 45.6786 98.4577C45.2523 97.7169 45.1401 96.8639 45.1626 96.0108C45.185 95.1578 45.3196 94.3272 45.342 93.4742C45.342 93.0028 45.3196 92.5314 45.0504 92.1497C44.826 91.9028 44.5792 91.6783 44.31 91.4763C43.3677 90.6457 43.0536 89.3213 43.0312 88.0642C43.0088 86.8071 43.2107 85.5724 43.0985 84.3153C43.0536 83.8215 42.8741 83.2378 42.403 83.148C42.246 83.148 42.1113 83.1256 41.9543 83.0807C41.5729 82.9235 41.5953 82.3848 41.5056 81.9807C41.371 81.5318 41.012 81.195 40.8998 80.7461C40.653 79.691 41.9992 78.4339 42.8741 78.0523C43.7491 77.6707 45.1177 77.7605 46.06 77.8727Z" fill="black"/>
<path d="M46.1497 77.6931C46.6881 77.7605 47.2939 77.94 47.4734 78.4339C47.5182 78.6135 47.5631 78.8155 47.5856 79.0176C47.7875 79.7808 48.64 80.14 49.1785 80.7236C49.6496 81.2399 49.8515 81.9358 50.0086 82.6093C50.4348 84.5622 50.547 86.5601 50.3227 88.558C50.1432 90.0171 49.8067 91.4314 49.6945 92.8905C49.5823 94.3496 49.7842 95.8761 50.5695 97.1108C50.906 97.6271 51.3547 98.0985 51.6015 98.6821C51.1079 99.0862 50.4124 99.1535 49.7618 99.176C49.0214 99.1984 48.2586 99.1984 47.5182 99.176C47.1144 99.1984 46.733 99.1086 46.374 98.9291C46.1273 98.7719 45.9253 98.5474 45.7683 98.2781C45.342 97.5373 45.2298 96.6618 45.2523 95.8312C45.2747 95.0006 45.4093 94.1476 45.4318 93.2946C45.4318 92.8456 45.4093 92.3518 45.1401 91.9701C44.9157 91.7232 44.669 91.4987 44.3997 91.2967C43.4574 90.4661 43.1434 89.1417 43.1209 87.8846C43.0985 86.6275 43.3004 85.3928 43.1882 84.1357C43.1434 83.6419 42.9639 83.0582 42.4927 82.9684C42.3357 82.9684 42.2011 82.946 42.044 82.9011C41.6626 82.7439 41.6851 82.2052 41.5953 81.8011C41.4607 81.3522 41.1017 81.0154 40.9896 80.5665C40.7428 79.5114 42.0889 78.2543 42.9639 77.8727C43.8164 77.4911 45.2074 77.5809 46.1497 77.6931Z" fill="#472727"/>
<path opacity="0.1" d="M215.626 156.239C218.6 156.239 221.011 155.908 221.011 155.498C221.011 155.089 218.6 154.758 215.626 154.758C212.653 154.758 210.242 155.089 210.242 155.498C210.242 155.908 212.653 156.239 215.626 156.239Z" fill="#E8004C"/>
<path opacity="0.1" d="M195.008 158.327C197.982 158.327 200.393 157.995 200.393 157.586C200.393 157.177 197.982 156.845 195.008 156.845C192.035 156.845 189.624 157.177 189.624 157.586C189.624 157.995 192.035 158.327 195.008 158.327Z" fill="#E8004C"/>
<path opacity="0.1" d="M170.711 155.499C173.685 155.499 176.095 155.167 176.095 154.758C176.095 154.349 173.685 154.017 170.711 154.017C167.737 154.017 165.326 154.349 165.326 154.758C165.326 155.167 167.737 155.499 170.711 155.499Z" fill="#E8004C"/>
<path opacity="0.1" d="M203.265 164.051C205.383 164.051 207.101 163.82 207.101 163.535C207.101 163.25 205.383 163.019 203.265 163.019C201.146 163.019 199.428 163.25 199.428 163.535C199.428 163.82 201.146 164.051 203.265 164.051Z" fill="#E8004C"/>
<path opacity="0.1" d="M181.861 163.535C183.98 163.535 185.698 163.304 185.698 163.019C185.698 162.733 183.98 162.502 181.861 162.502C179.742 162.502 178.025 162.733 178.025 163.019C178.025 163.304 179.742 163.535 181.861 163.535Z" fill="#E8004C"/>
<path d="M194.896 157.429C194.896 157.429 202.457 132.669 193.707 122.747C187.178 115.316 179.752 116.214 176.432 117.135C174.682 117.606 173.246 118.796 172.461 120.434C171.294 122.949 171.518 127.012 179.707 131.748C193.438 139.695 194.29 150.605 194.29 150.605L194.896 157.429Z" fill="#E8004C"/>
<path d="M177.621 120.614C177.621 120.614 199.877 127.573 194.896 157.407" stroke="#565987" stroke-miterlimit="10"/>
<path d="M190.634 123.128C190.634 123.128 187.56 125.193 188.547 128.291" stroke="#565987" stroke-miterlimit="10"/>
<path d="M179.864 124.947C179.864 124.947 181.749 123.038 184.015 124.093" stroke="#565987" stroke-miterlimit="10"/>
<path d="M188.659 134.554C188.659 134.554 191.957 132.893 192.81 134.981" stroke="#565987" stroke-miterlimit="10"/>
<path d="M196.803 138.034C196.803 138.034 194.335 137.832 194.291 139.021" stroke="#565987" stroke-miterlimit="10"/>
<path d="M195.188 157.609C195.188 157.609 186.348 139.605 183.903 140.009C182.759 140.189 182.22 141.334 181.973 142.479C181.682 143.96 181.839 145.487 182.467 146.856C183.723 149.729 187.089 155.207 195.188 157.609Z" fill="#E8004C"/>
<path d="M183.992 143.421C183.992 143.421 193.281 156.89 195.076 157.474" stroke="#565987" stroke-miterlimit="10"/>
<path d="M183.14 145.531H185.294" stroke="#565987" stroke-miterlimit="10"/>
<path d="M185.72 150.448L189.13 150.605" stroke="#565987" stroke-miterlimit="10"/>
<path d="M187.807 146.519L187.425 148.293" stroke="#565987" stroke-miterlimit="10"/>
<path d="M191.419 151.907L191.351 153.501" stroke="#565987" stroke-miterlimit="10"/>
<path d="M194.941 157.609C194.941 157.609 203.781 139.605 206.226 140.009C207.393 140.189 207.909 141.334 208.155 142.479C208.447 143.96 208.29 145.487 207.662 146.856C206.383 149.729 203.018 155.207 194.941 157.609Z" fill="#E8004C"/>
<path d="M206.136 143.421C206.136 143.421 196.848 156.89 195.053 157.474" stroke="#565987" stroke-miterlimit="10"/>
<path d="M206.989 145.531H204.835" stroke="#565987" stroke-miterlimit="10"/>
<path d="M204.409 150.448L200.999 150.605" stroke="#565987" stroke-miterlimit="10"/>
<path d="M202.345 146.519L202.704 148.293" stroke="#565987" stroke-miterlimit="10"/>
<path d="M198.733 151.907L198.778 153.501" stroke="#565987" stroke-miterlimit="10"/>
<path d="M179.752 161.829C179.506 161.627 179.326 161.357 179.259 161.066C179.169 160.751 179.326 160.437 179.618 160.28C179.932 160.168 180.291 160.392 180.538 160.617C180.784 160.841 181.098 161.111 181.435 161.066C181.076 160.729 180.919 160.257 181.009 159.764C181.031 159.674 181.076 159.584 181.121 159.494C181.3 159.292 181.637 159.382 181.839 159.539C182.512 160.011 182.714 160.953 182.714 161.784C182.759 161.47 182.759 161.155 182.714 160.864C182.691 160.549 182.826 160.235 183.05 160.055C183.207 159.966 183.387 159.921 183.589 159.921C183.903 159.876 184.217 159.966 184.441 160.168C184.71 160.437 184.643 160.908 184.396 161.223C184.15 161.515 183.836 161.762 183.499 161.941C183.252 162.098 183.028 162.3 182.871 162.547C182.848 162.592 182.826 162.615 182.826 162.659H180.896C180.493 162.412 180.089 162.143 179.752 161.829Z" fill="#E8004C"/>
<path d="M213.45 154.578C213.203 154.376 213.024 154.107 212.957 153.815C212.867 153.501 213.024 153.186 213.316 153.052C213.63 152.917 213.989 153.141 214.258 153.388C214.527 153.635 214.819 153.882 215.155 153.837C214.796 153.501 214.639 153.029 214.729 152.535C214.751 152.446 214.796 152.356 214.841 152.266C215.021 152.064 215.357 152.154 215.559 152.311C216.232 152.782 216.434 153.725 216.434 154.556C216.479 154.241 216.479 153.927 216.434 153.635C216.412 153.321 216.546 153.007 216.793 152.827C216.95 152.737 217.13 152.692 217.332 152.692C217.646 152.648 217.96 152.737 218.184 152.939C218.453 153.209 218.386 153.68 218.139 153.994C217.892 154.286 217.578 154.533 217.242 154.713C216.995 154.87 216.771 155.072 216.614 155.319C216.591 155.364 216.569 155.386 216.569 155.431H214.639C214.191 155.184 213.809 154.892 213.45 154.578Z" fill="#E8004C"/>
<path d="M202.21 161.829C201.963 161.627 201.784 161.357 201.694 161.066C201.604 160.751 201.761 160.437 202.053 160.28C202.367 160.168 202.726 160.392 202.995 160.617C203.264 160.841 203.556 161.111 203.893 161.066C203.534 160.751 203.377 160.257 203.466 159.764C203.489 159.674 203.511 159.584 203.579 159.494C203.758 159.292 204.072 159.382 204.297 159.539C204.97 160.011 205.172 160.953 205.172 161.784C205.216 161.47 205.216 161.178 205.194 160.864C205.171 160.549 205.306 160.235 205.53 160.055C205.688 159.966 205.867 159.921 206.069 159.921C206.383 159.876 206.697 159.966 206.921 160.168C207.191 160.437 207.123 160.908 206.877 161.223C206.63 161.515 206.316 161.762 205.979 161.941C205.732 162.098 205.508 162.3 205.351 162.547C205.329 162.592 205.306 162.615 205.306 162.659H203.377C202.973 162.412 202.569 162.143 202.21 161.829Z" fill="#E8004C"/>
<path d="M170.374 147.17C170.374 147.17 169.656 148.113 170.711 149.527C171.765 150.942 172.64 152.154 172.281 153.052C172.281 153.052 170.688 150.403 169.387 150.358C168.086 150.313 168.938 148.742 170.374 147.17Z" fill="#E8004C"/>
<path opacity="0.1" d="M170.374 147.17C170.307 147.26 170.262 147.35 170.217 147.462C168.961 148.944 168.288 150.335 169.499 150.358C170.621 150.403 171.99 152.423 172.304 152.917C172.304 152.962 172.281 153.007 172.259 153.029C172.259 153.029 170.666 150.38 169.365 150.335C168.063 150.291 168.938 148.742 170.374 147.17Z" fill="black"/>
<path d="M169.028 148.36C169.028 148.697 169.073 148.966 169.118 148.966C169.163 148.966 169.208 148.697 169.208 148.36C169.208 148.023 169.163 148.18 169.118 148.18C169.073 148.18 169.028 148.046 169.028 148.36Z" fill="#FFD037"/>
<path d="M168.557 148.764C168.849 148.921 169.095 149.011 169.118 148.989C169.14 148.966 168.916 148.786 168.624 148.629C168.333 148.472 168.445 148.584 168.422 148.629C168.4 148.674 168.265 148.607 168.557 148.764Z" fill="#FFD037"/>
<path d="M174.166 147.17C174.166 147.17 174.884 148.113 173.829 149.527C172.775 150.942 171.9 152.154 172.259 153.052C172.259 153.052 173.852 150.403 175.153 150.358C176.454 150.313 175.602 148.742 174.166 147.17Z" fill="#E8004C"/>
<path opacity="0.1" d="M174.166 147.17C174.233 147.26 174.278 147.372 174.323 147.462C175.579 148.944 176.252 150.335 175.041 150.358C173.919 150.403 172.551 152.423 172.236 152.917C172.236 152.962 172.259 152.984 172.281 153.029C172.281 153.029 173.874 150.38 175.176 150.335C176.477 150.291 175.602 148.742 174.166 147.17Z" fill="black"/>
<path d="M175.512 148.36C175.512 148.697 175.467 148.966 175.422 148.966C175.378 148.966 175.333 148.697 175.333 148.36C175.333 148.023 175.378 148.18 175.422 148.18C175.467 148.18 175.512 148.046 175.512 148.36Z" fill="#FFD037"/>
<path d="M175.983 148.764C175.692 148.921 175.445 149.011 175.422 148.989C175.4 148.966 175.624 148.786 175.916 148.629C176.208 148.472 176.095 148.584 176.118 148.629C176.14 148.674 176.275 148.607 175.983 148.764Z" fill="#FFD037"/>
<path d="M175.288 152.917C175.288 152.917 173.268 152.85 172.663 152.423C172.057 151.997 169.567 151.48 169.41 152.176C169.252 152.872 166.381 155.633 168.647 155.656C170.913 155.678 173.941 155.296 174.547 154.937C175.153 154.578 175.288 152.917 175.288 152.917Z" fill="#A8A8A8"/>
<path opacity="0.2" d="M168.602 155.409C170.89 155.431 173.897 155.05 174.502 154.69C174.951 154.399 175.153 153.388 175.22 152.939H175.288C175.288 152.939 175.153 154.578 174.547 154.937C173.941 155.296 170.935 155.678 168.647 155.656C167.996 155.656 167.749 155.409 167.772 155.072C167.884 155.274 168.131 155.409 168.602 155.409Z" fill="black"/>
<path opacity="0.1" d="M37.5343 159.651C41.8339 159.651 45.3194 159.139 45.3194 158.507C45.3194 157.874 41.8339 157.362 37.5343 157.362C33.2348 157.362 29.7493 157.874 29.7493 158.507C29.7493 159.139 33.2348 159.651 37.5343 159.651Z" fill="#E8004C"/>
<path opacity="0.1" d="M56.4025 169.978C60.7021 169.978 64.1876 169.465 64.1876 168.833C64.1876 168.2 60.7021 167.688 56.4025 167.688C52.1029 167.688 48.6174 168.2 48.6174 168.833C48.6174 169.465 52.1029 169.978 56.4025 169.978Z" fill="#E8004C"/>
<path opacity="0.1" d="M139.615 142.501C142.465 142.501 144.775 142.24 144.775 141.917C144.775 141.595 142.465 141.334 139.615 141.334C136.765 141.334 134.455 141.595 134.455 141.917C134.455 142.24 136.765 142.501 139.615 142.501Z" fill="#E8004C"/>
<path opacity="0.1" d="M115.497 159.09C118.347 159.09 120.658 158.829 120.658 158.507C120.658 158.184 118.347 157.923 115.497 157.923C112.648 157.923 110.337 158.184 110.337 158.507C110.337 158.829 112.648 159.09 115.497 159.09Z" fill="#E8004C"/>
<path opacity="0.1" d="M104.616 169.416C107.466 169.416 109.776 169.155 109.776 168.833C109.776 168.51 107.466 168.249 104.616 168.249C101.766 168.249 99.4561 168.51 99.4561 168.833C99.4561 169.155 101.766 169.416 104.616 169.416Z" fill="#E8004C"/>
</g>
<defs>
<linearGradient id="paint0_linear" x1="44.3929" y1="140.263" x2="44.3929" y2="76.8226" gradientUnits="userSpaceOnUse">
<stop stop-color="#808080" stop-opacity="0.25"/>
<stop offset="0.54" stop-color="#808080" stop-opacity="0.12"/>
<stop offset="1" stop-color="#808080" stop-opacity="0.1"/>
</linearGradient>
<clipPath id="clip0">
<rect width="241.831" height="170" fill="white"/>
</clipPath>
</defs>
</svg>
